%
M48
M72
T01C0.03937
T02C0.04000
T03C0.04400
T04C0.11811
%
T01
X73425Y33212
X63425Y69740
X88425Y77240
X163386Y63736
T02
X23425Y79740
X33425Y79740
X33425Y69740
X23425Y69740
X23425Y59740
X33425Y59740
X33425Y49740
X23425Y49740
X248425Y52240
X258425Y52240
X258425Y62240
X248425Y62240
X248425Y72240
X258425Y72240
X258425Y82240
X248425Y82240
T03
X78425Y109740
X88425Y109740
X98425Y109740
T04
X13425Y14740
X13425Y127240
X253425Y127240
X253425Y14740
M30
