G75*
%MOIN*%
%OFA0B0*%
%FSLAX25Y25*%
%IPPOS*%
%LPD*%
%AMOC8*
5,1,8,0,0,1.08239X$1,22.5*
%
%ADD10C,0.00000*%
%ADD11C,0.00200*%
%ADD12C,0.00500*%
%ADD13C,0.00300*%
%ADD14C,0.00600*%
%ADD15C,0.00800*%
%ADD16R,0.06200X0.02400*%
%ADD17C,0.00400*%
%ADD18C,0.02000*%
D10*
X0001000Y0001000D02*
X0001000Y0139626D01*
X0266614Y0139626D01*
X0266614Y0001000D01*
X0001000Y0001000D01*
X0007519Y0014740D02*
X0007521Y0014893D01*
X0007527Y0015047D01*
X0007537Y0015200D01*
X0007551Y0015352D01*
X0007569Y0015505D01*
X0007591Y0015656D01*
X0007616Y0015807D01*
X0007646Y0015958D01*
X0007680Y0016108D01*
X0007717Y0016256D01*
X0007758Y0016404D01*
X0007803Y0016550D01*
X0007852Y0016696D01*
X0007905Y0016840D01*
X0007961Y0016982D01*
X0008021Y0017123D01*
X0008085Y0017263D01*
X0008152Y0017401D01*
X0008223Y0017537D01*
X0008298Y0017671D01*
X0008375Y0017803D01*
X0008457Y0017933D01*
X0008541Y0018061D01*
X0008629Y0018187D01*
X0008720Y0018310D01*
X0008814Y0018431D01*
X0008912Y0018549D01*
X0009012Y0018665D01*
X0009116Y0018778D01*
X0009222Y0018889D01*
X0009331Y0018997D01*
X0009443Y0019102D01*
X0009557Y0019203D01*
X0009675Y0019302D01*
X0009794Y0019398D01*
X0009916Y0019491D01*
X0010041Y0019580D01*
X0010168Y0019667D01*
X0010297Y0019749D01*
X0010428Y0019829D01*
X0010561Y0019905D01*
X0010696Y0019978D01*
X0010833Y0020047D01*
X0010972Y0020112D01*
X0011112Y0020174D01*
X0011254Y0020232D01*
X0011397Y0020287D01*
X0011542Y0020338D01*
X0011688Y0020385D01*
X0011835Y0020428D01*
X0011983Y0020467D01*
X0012132Y0020503D01*
X0012282Y0020534D01*
X0012433Y0020562D01*
X0012584Y0020586D01*
X0012737Y0020606D01*
X0012889Y0020622D01*
X0013042Y0020634D01*
X0013195Y0020642D01*
X0013348Y0020646D01*
X0013502Y0020646D01*
X0013655Y0020642D01*
X0013808Y0020634D01*
X0013961Y0020622D01*
X0014113Y0020606D01*
X0014266Y0020586D01*
X0014417Y0020562D01*
X0014568Y0020534D01*
X0014718Y0020503D01*
X0014867Y0020467D01*
X0015015Y0020428D01*
X0015162Y0020385D01*
X0015308Y0020338D01*
X0015453Y0020287D01*
X0015596Y0020232D01*
X0015738Y0020174D01*
X0015878Y0020112D01*
X0016017Y0020047D01*
X0016154Y0019978D01*
X0016289Y0019905D01*
X0016422Y0019829D01*
X0016553Y0019749D01*
X0016682Y0019667D01*
X0016809Y0019580D01*
X0016934Y0019491D01*
X0017056Y0019398D01*
X0017175Y0019302D01*
X0017293Y0019203D01*
X0017407Y0019102D01*
X0017519Y0018997D01*
X0017628Y0018889D01*
X0017734Y0018778D01*
X0017838Y0018665D01*
X0017938Y0018549D01*
X0018036Y0018431D01*
X0018130Y0018310D01*
X0018221Y0018187D01*
X0018309Y0018061D01*
X0018393Y0017933D01*
X0018475Y0017803D01*
X0018552Y0017671D01*
X0018627Y0017537D01*
X0018698Y0017401D01*
X0018765Y0017263D01*
X0018829Y0017123D01*
X0018889Y0016982D01*
X0018945Y0016840D01*
X0018998Y0016696D01*
X0019047Y0016550D01*
X0019092Y0016404D01*
X0019133Y0016256D01*
X0019170Y0016108D01*
X0019204Y0015958D01*
X0019234Y0015807D01*
X0019259Y0015656D01*
X0019281Y0015505D01*
X0019299Y0015352D01*
X0019313Y0015200D01*
X0019323Y0015047D01*
X0019329Y0014893D01*
X0019331Y0014740D01*
X0019329Y0014587D01*
X0019323Y0014433D01*
X0019313Y0014280D01*
X0019299Y0014128D01*
X0019281Y0013975D01*
X0019259Y0013824D01*
X0019234Y0013673D01*
X0019204Y0013522D01*
X0019170Y0013372D01*
X0019133Y0013224D01*
X0019092Y0013076D01*
X0019047Y0012930D01*
X0018998Y0012784D01*
X0018945Y0012640D01*
X0018889Y0012498D01*
X0018829Y0012357D01*
X0018765Y0012217D01*
X0018698Y0012079D01*
X0018627Y0011943D01*
X0018552Y0011809D01*
X0018475Y0011677D01*
X0018393Y0011547D01*
X0018309Y0011419D01*
X0018221Y0011293D01*
X0018130Y0011170D01*
X0018036Y0011049D01*
X0017938Y0010931D01*
X0017838Y0010815D01*
X0017734Y0010702D01*
X0017628Y0010591D01*
X0017519Y0010483D01*
X0017407Y0010378D01*
X0017293Y0010277D01*
X0017175Y0010178D01*
X0017056Y0010082D01*
X0016934Y0009989D01*
X0016809Y0009900D01*
X0016682Y0009813D01*
X0016553Y0009731D01*
X0016422Y0009651D01*
X0016289Y0009575D01*
X0016154Y0009502D01*
X0016017Y0009433D01*
X0015878Y0009368D01*
X0015738Y0009306D01*
X0015596Y0009248D01*
X0015453Y0009193D01*
X0015308Y0009142D01*
X0015162Y0009095D01*
X0015015Y0009052D01*
X0014867Y0009013D01*
X0014718Y0008977D01*
X0014568Y0008946D01*
X0014417Y0008918D01*
X0014266Y0008894D01*
X0014113Y0008874D01*
X0013961Y0008858D01*
X0013808Y0008846D01*
X0013655Y0008838D01*
X0013502Y0008834D01*
X0013348Y0008834D01*
X0013195Y0008838D01*
X0013042Y0008846D01*
X0012889Y0008858D01*
X0012737Y0008874D01*
X0012584Y0008894D01*
X0012433Y0008918D01*
X0012282Y0008946D01*
X0012132Y0008977D01*
X0011983Y0009013D01*
X0011835Y0009052D01*
X0011688Y0009095D01*
X0011542Y0009142D01*
X0011397Y0009193D01*
X0011254Y0009248D01*
X0011112Y0009306D01*
X0010972Y0009368D01*
X0010833Y0009433D01*
X0010696Y0009502D01*
X0010561Y0009575D01*
X0010428Y0009651D01*
X0010297Y0009731D01*
X0010168Y0009813D01*
X0010041Y0009900D01*
X0009916Y0009989D01*
X0009794Y0010082D01*
X0009675Y0010178D01*
X0009557Y0010277D01*
X0009443Y0010378D01*
X0009331Y0010483D01*
X0009222Y0010591D01*
X0009116Y0010702D01*
X0009012Y0010815D01*
X0008912Y0010931D01*
X0008814Y0011049D01*
X0008720Y0011170D01*
X0008629Y0011293D01*
X0008541Y0011419D01*
X0008457Y0011547D01*
X0008375Y0011677D01*
X0008298Y0011809D01*
X0008223Y0011943D01*
X0008152Y0012079D01*
X0008085Y0012217D01*
X0008021Y0012357D01*
X0007961Y0012498D01*
X0007905Y0012640D01*
X0007852Y0012784D01*
X0007803Y0012930D01*
X0007758Y0013076D01*
X0007717Y0013224D01*
X0007680Y0013372D01*
X0007646Y0013522D01*
X0007616Y0013673D01*
X0007591Y0013824D01*
X0007569Y0013975D01*
X0007551Y0014128D01*
X0007537Y0014280D01*
X0007527Y0014433D01*
X0007521Y0014587D01*
X0007519Y0014740D01*
X0090625Y0050440D02*
X0090556Y0050442D01*
X0090488Y0050448D01*
X0090420Y0050458D01*
X0090353Y0050471D01*
X0090287Y0050489D01*
X0090222Y0050510D01*
X0090158Y0050535D01*
X0090096Y0050563D01*
X0090035Y0050595D01*
X0089976Y0050630D01*
X0089920Y0050669D01*
X0089865Y0050711D01*
X0089814Y0050756D01*
X0089764Y0050804D01*
X0089718Y0050854D01*
X0089675Y0050907D01*
X0089634Y0050963D01*
X0089597Y0051020D01*
X0089564Y0051080D01*
X0089533Y0051142D01*
X0089507Y0051205D01*
X0089484Y0051269D01*
X0089464Y0051335D01*
X0089449Y0051402D01*
X0089437Y0051469D01*
X0089429Y0051537D01*
X0089425Y0051606D01*
X0089425Y0051674D01*
X0089429Y0051743D01*
X0089437Y0051811D01*
X0089449Y0051878D01*
X0089464Y0051945D01*
X0089484Y0052011D01*
X0089507Y0052075D01*
X0089533Y0052138D01*
X0089564Y0052200D01*
X0089597Y0052260D01*
X0089634Y0052317D01*
X0089675Y0052373D01*
X0089718Y0052426D01*
X0089764Y0052476D01*
X0089814Y0052524D01*
X0089865Y0052569D01*
X0089920Y0052611D01*
X0089976Y0052650D01*
X0090035Y0052685D01*
X0090096Y0052717D01*
X0090158Y0052745D01*
X0090222Y0052770D01*
X0090287Y0052791D01*
X0090353Y0052809D01*
X0090420Y0052822D01*
X0090488Y0052832D01*
X0090556Y0052838D01*
X0090625Y0052840D01*
X0184725Y0079540D02*
X0184727Y0079471D01*
X0184733Y0079403D01*
X0184743Y0079335D01*
X0184756Y0079268D01*
X0184774Y0079202D01*
X0184795Y0079137D01*
X0184820Y0079073D01*
X0184848Y0079011D01*
X0184880Y0078950D01*
X0184915Y0078891D01*
X0184954Y0078835D01*
X0184996Y0078780D01*
X0185041Y0078729D01*
X0185089Y0078679D01*
X0185139Y0078633D01*
X0185192Y0078590D01*
X0185248Y0078549D01*
X0185305Y0078512D01*
X0185365Y0078479D01*
X0185427Y0078448D01*
X0185490Y0078422D01*
X0185554Y0078399D01*
X0185620Y0078379D01*
X0185687Y0078364D01*
X0185754Y0078352D01*
X0185822Y0078344D01*
X0185891Y0078340D01*
X0185959Y0078340D01*
X0186028Y0078344D01*
X0186096Y0078352D01*
X0186163Y0078364D01*
X0186230Y0078379D01*
X0186296Y0078399D01*
X0186360Y0078422D01*
X0186423Y0078448D01*
X0186485Y0078479D01*
X0186545Y0078512D01*
X0186602Y0078549D01*
X0186658Y0078590D01*
X0186711Y0078633D01*
X0186761Y0078679D01*
X0186809Y0078729D01*
X0186854Y0078780D01*
X0186896Y0078835D01*
X0186935Y0078891D01*
X0186970Y0078950D01*
X0187002Y0079011D01*
X0187030Y0079073D01*
X0187055Y0079137D01*
X0187076Y0079202D01*
X0187094Y0079268D01*
X0187107Y0079335D01*
X0187117Y0079403D01*
X0187123Y0079471D01*
X0187125Y0079540D01*
X0247519Y0127240D02*
X0247521Y0127393D01*
X0247527Y0127547D01*
X0247537Y0127700D01*
X0247551Y0127852D01*
X0247569Y0128005D01*
X0247591Y0128156D01*
X0247616Y0128307D01*
X0247646Y0128458D01*
X0247680Y0128608D01*
X0247717Y0128756D01*
X0247758Y0128904D01*
X0247803Y0129050D01*
X0247852Y0129196D01*
X0247905Y0129340D01*
X0247961Y0129482D01*
X0248021Y0129623D01*
X0248085Y0129763D01*
X0248152Y0129901D01*
X0248223Y0130037D01*
X0248298Y0130171D01*
X0248375Y0130303D01*
X0248457Y0130433D01*
X0248541Y0130561D01*
X0248629Y0130687D01*
X0248720Y0130810D01*
X0248814Y0130931D01*
X0248912Y0131049D01*
X0249012Y0131165D01*
X0249116Y0131278D01*
X0249222Y0131389D01*
X0249331Y0131497D01*
X0249443Y0131602D01*
X0249557Y0131703D01*
X0249675Y0131802D01*
X0249794Y0131898D01*
X0249916Y0131991D01*
X0250041Y0132080D01*
X0250168Y0132167D01*
X0250297Y0132249D01*
X0250428Y0132329D01*
X0250561Y0132405D01*
X0250696Y0132478D01*
X0250833Y0132547D01*
X0250972Y0132612D01*
X0251112Y0132674D01*
X0251254Y0132732D01*
X0251397Y0132787D01*
X0251542Y0132838D01*
X0251688Y0132885D01*
X0251835Y0132928D01*
X0251983Y0132967D01*
X0252132Y0133003D01*
X0252282Y0133034D01*
X0252433Y0133062D01*
X0252584Y0133086D01*
X0252737Y0133106D01*
X0252889Y0133122D01*
X0253042Y0133134D01*
X0253195Y0133142D01*
X0253348Y0133146D01*
X0253502Y0133146D01*
X0253655Y0133142D01*
X0253808Y0133134D01*
X0253961Y0133122D01*
X0254113Y0133106D01*
X0254266Y0133086D01*
X0254417Y0133062D01*
X0254568Y0133034D01*
X0254718Y0133003D01*
X0254867Y0132967D01*
X0255015Y0132928D01*
X0255162Y0132885D01*
X0255308Y0132838D01*
X0255453Y0132787D01*
X0255596Y0132732D01*
X0255738Y0132674D01*
X0255878Y0132612D01*
X0256017Y0132547D01*
X0256154Y0132478D01*
X0256289Y0132405D01*
X0256422Y0132329D01*
X0256553Y0132249D01*
X0256682Y0132167D01*
X0256809Y0132080D01*
X0256934Y0131991D01*
X0257056Y0131898D01*
X0257175Y0131802D01*
X0257293Y0131703D01*
X0257407Y0131602D01*
X0257519Y0131497D01*
X0257628Y0131389D01*
X0257734Y0131278D01*
X0257838Y0131165D01*
X0257938Y0131049D01*
X0258036Y0130931D01*
X0258130Y0130810D01*
X0258221Y0130687D01*
X0258309Y0130561D01*
X0258393Y0130433D01*
X0258475Y0130303D01*
X0258552Y0130171D01*
X0258627Y0130037D01*
X0258698Y0129901D01*
X0258765Y0129763D01*
X0258829Y0129623D01*
X0258889Y0129482D01*
X0258945Y0129340D01*
X0258998Y0129196D01*
X0259047Y0129050D01*
X0259092Y0128904D01*
X0259133Y0128756D01*
X0259170Y0128608D01*
X0259204Y0128458D01*
X0259234Y0128307D01*
X0259259Y0128156D01*
X0259281Y0128005D01*
X0259299Y0127852D01*
X0259313Y0127700D01*
X0259323Y0127547D01*
X0259329Y0127393D01*
X0259331Y0127240D01*
X0259329Y0127087D01*
X0259323Y0126933D01*
X0259313Y0126780D01*
X0259299Y0126628D01*
X0259281Y0126475D01*
X0259259Y0126324D01*
X0259234Y0126173D01*
X0259204Y0126022D01*
X0259170Y0125872D01*
X0259133Y0125724D01*
X0259092Y0125576D01*
X0259047Y0125430D01*
X0258998Y0125284D01*
X0258945Y0125140D01*
X0258889Y0124998D01*
X0258829Y0124857D01*
X0258765Y0124717D01*
X0258698Y0124579D01*
X0258627Y0124443D01*
X0258552Y0124309D01*
X0258475Y0124177D01*
X0258393Y0124047D01*
X0258309Y0123919D01*
X0258221Y0123793D01*
X0258130Y0123670D01*
X0258036Y0123549D01*
X0257938Y0123431D01*
X0257838Y0123315D01*
X0257734Y0123202D01*
X0257628Y0123091D01*
X0257519Y0122983D01*
X0257407Y0122878D01*
X0257293Y0122777D01*
X0257175Y0122678D01*
X0257056Y0122582D01*
X0256934Y0122489D01*
X0256809Y0122400D01*
X0256682Y0122313D01*
X0256553Y0122231D01*
X0256422Y0122151D01*
X0256289Y0122075D01*
X0256154Y0122002D01*
X0256017Y0121933D01*
X0255878Y0121868D01*
X0255738Y0121806D01*
X0255596Y0121748D01*
X0255453Y0121693D01*
X0255308Y0121642D01*
X0255162Y0121595D01*
X0255015Y0121552D01*
X0254867Y0121513D01*
X0254718Y0121477D01*
X0254568Y0121446D01*
X0254417Y0121418D01*
X0254266Y0121394D01*
X0254113Y0121374D01*
X0253961Y0121358D01*
X0253808Y0121346D01*
X0253655Y0121338D01*
X0253502Y0121334D01*
X0253348Y0121334D01*
X0253195Y0121338D01*
X0253042Y0121346D01*
X0252889Y0121358D01*
X0252737Y0121374D01*
X0252584Y0121394D01*
X0252433Y0121418D01*
X0252282Y0121446D01*
X0252132Y0121477D01*
X0251983Y0121513D01*
X0251835Y0121552D01*
X0251688Y0121595D01*
X0251542Y0121642D01*
X0251397Y0121693D01*
X0251254Y0121748D01*
X0251112Y0121806D01*
X0250972Y0121868D01*
X0250833Y0121933D01*
X0250696Y0122002D01*
X0250561Y0122075D01*
X0250428Y0122151D01*
X0250297Y0122231D01*
X0250168Y0122313D01*
X0250041Y0122400D01*
X0249916Y0122489D01*
X0249794Y0122582D01*
X0249675Y0122678D01*
X0249557Y0122777D01*
X0249443Y0122878D01*
X0249331Y0122983D01*
X0249222Y0123091D01*
X0249116Y0123202D01*
X0249012Y0123315D01*
X0248912Y0123431D01*
X0248814Y0123549D01*
X0248720Y0123670D01*
X0248629Y0123793D01*
X0248541Y0123919D01*
X0248457Y0124047D01*
X0248375Y0124177D01*
X0248298Y0124309D01*
X0248223Y0124443D01*
X0248152Y0124579D01*
X0248085Y0124717D01*
X0248021Y0124857D01*
X0247961Y0124998D01*
X0247905Y0125140D01*
X0247852Y0125284D01*
X0247803Y0125430D01*
X0247758Y0125576D01*
X0247717Y0125724D01*
X0247680Y0125872D01*
X0247646Y0126022D01*
X0247616Y0126173D01*
X0247591Y0126324D01*
X0247569Y0126475D01*
X0247551Y0126628D01*
X0247537Y0126780D01*
X0247527Y0126933D01*
X0247521Y0127087D01*
X0247519Y0127240D01*
X0247519Y0014740D02*
X0247521Y0014893D01*
X0247527Y0015047D01*
X0247537Y0015200D01*
X0247551Y0015352D01*
X0247569Y0015505D01*
X0247591Y0015656D01*
X0247616Y0015807D01*
X0247646Y0015958D01*
X0247680Y0016108D01*
X0247717Y0016256D01*
X0247758Y0016404D01*
X0247803Y0016550D01*
X0247852Y0016696D01*
X0247905Y0016840D01*
X0247961Y0016982D01*
X0248021Y0017123D01*
X0248085Y0017263D01*
X0248152Y0017401D01*
X0248223Y0017537D01*
X0248298Y0017671D01*
X0248375Y0017803D01*
X0248457Y0017933D01*
X0248541Y0018061D01*
X0248629Y0018187D01*
X0248720Y0018310D01*
X0248814Y0018431D01*
X0248912Y0018549D01*
X0249012Y0018665D01*
X0249116Y0018778D01*
X0249222Y0018889D01*
X0249331Y0018997D01*
X0249443Y0019102D01*
X0249557Y0019203D01*
X0249675Y0019302D01*
X0249794Y0019398D01*
X0249916Y0019491D01*
X0250041Y0019580D01*
X0250168Y0019667D01*
X0250297Y0019749D01*
X0250428Y0019829D01*
X0250561Y0019905D01*
X0250696Y0019978D01*
X0250833Y0020047D01*
X0250972Y0020112D01*
X0251112Y0020174D01*
X0251254Y0020232D01*
X0251397Y0020287D01*
X0251542Y0020338D01*
X0251688Y0020385D01*
X0251835Y0020428D01*
X0251983Y0020467D01*
X0252132Y0020503D01*
X0252282Y0020534D01*
X0252433Y0020562D01*
X0252584Y0020586D01*
X0252737Y0020606D01*
X0252889Y0020622D01*
X0253042Y0020634D01*
X0253195Y0020642D01*
X0253348Y0020646D01*
X0253502Y0020646D01*
X0253655Y0020642D01*
X0253808Y0020634D01*
X0253961Y0020622D01*
X0254113Y0020606D01*
X0254266Y0020586D01*
X0254417Y0020562D01*
X0254568Y0020534D01*
X0254718Y0020503D01*
X0254867Y0020467D01*
X0255015Y0020428D01*
X0255162Y0020385D01*
X0255308Y0020338D01*
X0255453Y0020287D01*
X0255596Y0020232D01*
X0255738Y0020174D01*
X0255878Y0020112D01*
X0256017Y0020047D01*
X0256154Y0019978D01*
X0256289Y0019905D01*
X0256422Y0019829D01*
X0256553Y0019749D01*
X0256682Y0019667D01*
X0256809Y0019580D01*
X0256934Y0019491D01*
X0257056Y0019398D01*
X0257175Y0019302D01*
X0257293Y0019203D01*
X0257407Y0019102D01*
X0257519Y0018997D01*
X0257628Y0018889D01*
X0257734Y0018778D01*
X0257838Y0018665D01*
X0257938Y0018549D01*
X0258036Y0018431D01*
X0258130Y0018310D01*
X0258221Y0018187D01*
X0258309Y0018061D01*
X0258393Y0017933D01*
X0258475Y0017803D01*
X0258552Y0017671D01*
X0258627Y0017537D01*
X0258698Y0017401D01*
X0258765Y0017263D01*
X0258829Y0017123D01*
X0258889Y0016982D01*
X0258945Y0016840D01*
X0258998Y0016696D01*
X0259047Y0016550D01*
X0259092Y0016404D01*
X0259133Y0016256D01*
X0259170Y0016108D01*
X0259204Y0015958D01*
X0259234Y0015807D01*
X0259259Y0015656D01*
X0259281Y0015505D01*
X0259299Y0015352D01*
X0259313Y0015200D01*
X0259323Y0015047D01*
X0259329Y0014893D01*
X0259331Y0014740D01*
X0259329Y0014587D01*
X0259323Y0014433D01*
X0259313Y0014280D01*
X0259299Y0014128D01*
X0259281Y0013975D01*
X0259259Y0013824D01*
X0259234Y0013673D01*
X0259204Y0013522D01*
X0259170Y0013372D01*
X0259133Y0013224D01*
X0259092Y0013076D01*
X0259047Y0012930D01*
X0258998Y0012784D01*
X0258945Y0012640D01*
X0258889Y0012498D01*
X0258829Y0012357D01*
X0258765Y0012217D01*
X0258698Y0012079D01*
X0258627Y0011943D01*
X0258552Y0011809D01*
X0258475Y0011677D01*
X0258393Y0011547D01*
X0258309Y0011419D01*
X0258221Y0011293D01*
X0258130Y0011170D01*
X0258036Y0011049D01*
X0257938Y0010931D01*
X0257838Y0010815D01*
X0257734Y0010702D01*
X0257628Y0010591D01*
X0257519Y0010483D01*
X0257407Y0010378D01*
X0257293Y0010277D01*
X0257175Y0010178D01*
X0257056Y0010082D01*
X0256934Y0009989D01*
X0256809Y0009900D01*
X0256682Y0009813D01*
X0256553Y0009731D01*
X0256422Y0009651D01*
X0256289Y0009575D01*
X0256154Y0009502D01*
X0256017Y0009433D01*
X0255878Y0009368D01*
X0255738Y0009306D01*
X0255596Y0009248D01*
X0255453Y0009193D01*
X0255308Y0009142D01*
X0255162Y0009095D01*
X0255015Y0009052D01*
X0254867Y0009013D01*
X0254718Y0008977D01*
X0254568Y0008946D01*
X0254417Y0008918D01*
X0254266Y0008894D01*
X0254113Y0008874D01*
X0253961Y0008858D01*
X0253808Y0008846D01*
X0253655Y0008838D01*
X0253502Y0008834D01*
X0253348Y0008834D01*
X0253195Y0008838D01*
X0253042Y0008846D01*
X0252889Y0008858D01*
X0252737Y0008874D01*
X0252584Y0008894D01*
X0252433Y0008918D01*
X0252282Y0008946D01*
X0252132Y0008977D01*
X0251983Y0009013D01*
X0251835Y0009052D01*
X0251688Y0009095D01*
X0251542Y0009142D01*
X0251397Y0009193D01*
X0251254Y0009248D01*
X0251112Y0009306D01*
X0250972Y0009368D01*
X0250833Y0009433D01*
X0250696Y0009502D01*
X0250561Y0009575D01*
X0250428Y0009651D01*
X0250297Y0009731D01*
X0250168Y0009813D01*
X0250041Y0009900D01*
X0249916Y0009989D01*
X0249794Y0010082D01*
X0249675Y0010178D01*
X0249557Y0010277D01*
X0249443Y0010378D01*
X0249331Y0010483D01*
X0249222Y0010591D01*
X0249116Y0010702D01*
X0249012Y0010815D01*
X0248912Y0010931D01*
X0248814Y0011049D01*
X0248720Y0011170D01*
X0248629Y0011293D01*
X0248541Y0011419D01*
X0248457Y0011547D01*
X0248375Y0011677D01*
X0248298Y0011809D01*
X0248223Y0011943D01*
X0248152Y0012079D01*
X0248085Y0012217D01*
X0248021Y0012357D01*
X0247961Y0012498D01*
X0247905Y0012640D01*
X0247852Y0012784D01*
X0247803Y0012930D01*
X0247758Y0013076D01*
X0247717Y0013224D01*
X0247680Y0013372D01*
X0247646Y0013522D01*
X0247616Y0013673D01*
X0247591Y0013824D01*
X0247569Y0013975D01*
X0247551Y0014128D01*
X0247537Y0014280D01*
X0247527Y0014433D01*
X0247521Y0014587D01*
X0247519Y0014740D01*
X0007519Y0127240D02*
X0007521Y0127393D01*
X0007527Y0127547D01*
X0007537Y0127700D01*
X0007551Y0127852D01*
X0007569Y0128005D01*
X0007591Y0128156D01*
X0007616Y0128307D01*
X0007646Y0128458D01*
X0007680Y0128608D01*
X0007717Y0128756D01*
X0007758Y0128904D01*
X0007803Y0129050D01*
X0007852Y0129196D01*
X0007905Y0129340D01*
X0007961Y0129482D01*
X0008021Y0129623D01*
X0008085Y0129763D01*
X0008152Y0129901D01*
X0008223Y0130037D01*
X0008298Y0130171D01*
X0008375Y0130303D01*
X0008457Y0130433D01*
X0008541Y0130561D01*
X0008629Y0130687D01*
X0008720Y0130810D01*
X0008814Y0130931D01*
X0008912Y0131049D01*
X0009012Y0131165D01*
X0009116Y0131278D01*
X0009222Y0131389D01*
X0009331Y0131497D01*
X0009443Y0131602D01*
X0009557Y0131703D01*
X0009675Y0131802D01*
X0009794Y0131898D01*
X0009916Y0131991D01*
X0010041Y0132080D01*
X0010168Y0132167D01*
X0010297Y0132249D01*
X0010428Y0132329D01*
X0010561Y0132405D01*
X0010696Y0132478D01*
X0010833Y0132547D01*
X0010972Y0132612D01*
X0011112Y0132674D01*
X0011254Y0132732D01*
X0011397Y0132787D01*
X0011542Y0132838D01*
X0011688Y0132885D01*
X0011835Y0132928D01*
X0011983Y0132967D01*
X0012132Y0133003D01*
X0012282Y0133034D01*
X0012433Y0133062D01*
X0012584Y0133086D01*
X0012737Y0133106D01*
X0012889Y0133122D01*
X0013042Y0133134D01*
X0013195Y0133142D01*
X0013348Y0133146D01*
X0013502Y0133146D01*
X0013655Y0133142D01*
X0013808Y0133134D01*
X0013961Y0133122D01*
X0014113Y0133106D01*
X0014266Y0133086D01*
X0014417Y0133062D01*
X0014568Y0133034D01*
X0014718Y0133003D01*
X0014867Y0132967D01*
X0015015Y0132928D01*
X0015162Y0132885D01*
X0015308Y0132838D01*
X0015453Y0132787D01*
X0015596Y0132732D01*
X0015738Y0132674D01*
X0015878Y0132612D01*
X0016017Y0132547D01*
X0016154Y0132478D01*
X0016289Y0132405D01*
X0016422Y0132329D01*
X0016553Y0132249D01*
X0016682Y0132167D01*
X0016809Y0132080D01*
X0016934Y0131991D01*
X0017056Y0131898D01*
X0017175Y0131802D01*
X0017293Y0131703D01*
X0017407Y0131602D01*
X0017519Y0131497D01*
X0017628Y0131389D01*
X0017734Y0131278D01*
X0017838Y0131165D01*
X0017938Y0131049D01*
X0018036Y0130931D01*
X0018130Y0130810D01*
X0018221Y0130687D01*
X0018309Y0130561D01*
X0018393Y0130433D01*
X0018475Y0130303D01*
X0018552Y0130171D01*
X0018627Y0130037D01*
X0018698Y0129901D01*
X0018765Y0129763D01*
X0018829Y0129623D01*
X0018889Y0129482D01*
X0018945Y0129340D01*
X0018998Y0129196D01*
X0019047Y0129050D01*
X0019092Y0128904D01*
X0019133Y0128756D01*
X0019170Y0128608D01*
X0019204Y0128458D01*
X0019234Y0128307D01*
X0019259Y0128156D01*
X0019281Y0128005D01*
X0019299Y0127852D01*
X0019313Y0127700D01*
X0019323Y0127547D01*
X0019329Y0127393D01*
X0019331Y0127240D01*
X0019329Y0127087D01*
X0019323Y0126933D01*
X0019313Y0126780D01*
X0019299Y0126628D01*
X0019281Y0126475D01*
X0019259Y0126324D01*
X0019234Y0126173D01*
X0019204Y0126022D01*
X0019170Y0125872D01*
X0019133Y0125724D01*
X0019092Y0125576D01*
X0019047Y0125430D01*
X0018998Y0125284D01*
X0018945Y0125140D01*
X0018889Y0124998D01*
X0018829Y0124857D01*
X0018765Y0124717D01*
X0018698Y0124579D01*
X0018627Y0124443D01*
X0018552Y0124309D01*
X0018475Y0124177D01*
X0018393Y0124047D01*
X0018309Y0123919D01*
X0018221Y0123793D01*
X0018130Y0123670D01*
X0018036Y0123549D01*
X0017938Y0123431D01*
X0017838Y0123315D01*
X0017734Y0123202D01*
X0017628Y0123091D01*
X0017519Y0122983D01*
X0017407Y0122878D01*
X0017293Y0122777D01*
X0017175Y0122678D01*
X0017056Y0122582D01*
X0016934Y0122489D01*
X0016809Y0122400D01*
X0016682Y0122313D01*
X0016553Y0122231D01*
X0016422Y0122151D01*
X0016289Y0122075D01*
X0016154Y0122002D01*
X0016017Y0121933D01*
X0015878Y0121868D01*
X0015738Y0121806D01*
X0015596Y0121748D01*
X0015453Y0121693D01*
X0015308Y0121642D01*
X0015162Y0121595D01*
X0015015Y0121552D01*
X0014867Y0121513D01*
X0014718Y0121477D01*
X0014568Y0121446D01*
X0014417Y0121418D01*
X0014266Y0121394D01*
X0014113Y0121374D01*
X0013961Y0121358D01*
X0013808Y0121346D01*
X0013655Y0121338D01*
X0013502Y0121334D01*
X0013348Y0121334D01*
X0013195Y0121338D01*
X0013042Y0121346D01*
X0012889Y0121358D01*
X0012737Y0121374D01*
X0012584Y0121394D01*
X0012433Y0121418D01*
X0012282Y0121446D01*
X0012132Y0121477D01*
X0011983Y0121513D01*
X0011835Y0121552D01*
X0011688Y0121595D01*
X0011542Y0121642D01*
X0011397Y0121693D01*
X0011254Y0121748D01*
X0011112Y0121806D01*
X0010972Y0121868D01*
X0010833Y0121933D01*
X0010696Y0122002D01*
X0010561Y0122075D01*
X0010428Y0122151D01*
X0010297Y0122231D01*
X0010168Y0122313D01*
X0010041Y0122400D01*
X0009916Y0122489D01*
X0009794Y0122582D01*
X0009675Y0122678D01*
X0009557Y0122777D01*
X0009443Y0122878D01*
X0009331Y0122983D01*
X0009222Y0123091D01*
X0009116Y0123202D01*
X0009012Y0123315D01*
X0008912Y0123431D01*
X0008814Y0123549D01*
X0008720Y0123670D01*
X0008629Y0123793D01*
X0008541Y0123919D01*
X0008457Y0124047D01*
X0008375Y0124177D01*
X0008298Y0124309D01*
X0008223Y0124443D01*
X0008152Y0124579D01*
X0008085Y0124717D01*
X0008021Y0124857D01*
X0007961Y0124998D01*
X0007905Y0125140D01*
X0007852Y0125284D01*
X0007803Y0125430D01*
X0007758Y0125576D01*
X0007717Y0125724D01*
X0007680Y0125872D01*
X0007646Y0126022D01*
X0007616Y0126173D01*
X0007591Y0126324D01*
X0007569Y0126475D01*
X0007551Y0126628D01*
X0007537Y0126780D01*
X0007527Y0126933D01*
X0007521Y0127087D01*
X0007519Y0127240D01*
D11*
X0008368Y0089404D02*
X0009836Y0089404D01*
X0009102Y0089404D02*
X0009102Y0087202D01*
X0010578Y0087202D02*
X0011312Y0087202D01*
X0010945Y0087202D02*
X0010945Y0089404D01*
X0010578Y0089404D02*
X0011312Y0089404D01*
X0012051Y0088670D02*
X0012785Y0089404D01*
X0013519Y0088670D01*
X0013519Y0087202D01*
X0013519Y0088303D02*
X0012051Y0088303D01*
X0012051Y0088670D02*
X0012051Y0087202D01*
X0016471Y0087202D02*
X0017572Y0087202D01*
X0017939Y0087569D01*
X0017939Y0088303D01*
X0017572Y0088670D01*
X0016471Y0088670D01*
X0016471Y0086468D01*
X0018680Y0087202D02*
X0019414Y0087202D01*
X0019047Y0087202D02*
X0019047Y0088670D01*
X0018680Y0088670D01*
X0019047Y0089404D02*
X0019047Y0089771D01*
X0020154Y0088670D02*
X0021255Y0088670D01*
X0021622Y0088303D01*
X0021622Y0087202D01*
X0022364Y0087202D02*
X0023465Y0087202D01*
X0023832Y0087569D01*
X0023465Y0087936D01*
X0022731Y0087936D01*
X0022364Y0088303D01*
X0022731Y0088670D01*
X0023832Y0088670D01*
X0020154Y0088670D02*
X0020154Y0087202D01*
X0026783Y0087569D02*
X0027150Y0087202D01*
X0027884Y0087202D01*
X0028251Y0087569D01*
X0028251Y0089037D01*
X0027884Y0089404D01*
X0027150Y0089404D01*
X0026783Y0089037D01*
X0026783Y0088670D01*
X0027150Y0088303D01*
X0028251Y0088303D01*
X0031203Y0088303D02*
X0032671Y0088303D01*
X0032671Y0088670D02*
X0032671Y0087202D01*
X0033413Y0087202D02*
X0033413Y0089404D01*
X0034881Y0087202D01*
X0034881Y0089404D01*
X0035623Y0089404D02*
X0036724Y0089404D01*
X0037091Y0089037D01*
X0037091Y0087569D01*
X0036724Y0087202D01*
X0035623Y0087202D01*
X0035623Y0089404D01*
X0032671Y0088670D02*
X0031937Y0089404D01*
X0031203Y0088670D01*
X0031203Y0087202D01*
X0040043Y0087202D02*
X0041511Y0087202D01*
X0040777Y0087202D02*
X0040777Y0089404D01*
X0040043Y0088670D01*
X0042253Y0089037D02*
X0042620Y0089404D01*
X0043353Y0089404D01*
X0043720Y0089037D01*
X0043720Y0088670D01*
X0043353Y0088303D01*
X0043720Y0087936D01*
X0043720Y0087569D01*
X0043353Y0087202D01*
X0042620Y0087202D01*
X0042253Y0087569D01*
X0042986Y0088303D02*
X0043353Y0088303D01*
X0046672Y0088670D02*
X0047039Y0088670D01*
X0047406Y0088303D01*
X0047773Y0088670D01*
X0048140Y0088303D01*
X0048140Y0087202D01*
X0047406Y0087202D02*
X0047406Y0088303D01*
X0046672Y0088670D02*
X0046672Y0087202D01*
X0048882Y0087569D02*
X0048882Y0088670D01*
X0048882Y0087569D02*
X0049249Y0087202D01*
X0050350Y0087202D01*
X0050350Y0088670D01*
X0051092Y0088303D02*
X0051459Y0088670D01*
X0052560Y0088670D01*
X0053302Y0088670D02*
X0054036Y0088670D01*
X0053669Y0089037D02*
X0053669Y0087569D01*
X0054036Y0087202D01*
X0052560Y0087569D02*
X0052193Y0087936D01*
X0051459Y0087936D01*
X0051092Y0088303D01*
X0051092Y0087202D02*
X0052193Y0087202D01*
X0052560Y0087569D01*
X0056985Y0087202D02*
X0058086Y0087202D01*
X0058453Y0087569D01*
X0058453Y0088303D01*
X0058086Y0088670D01*
X0056985Y0088670D01*
X0056985Y0089404D02*
X0056985Y0087202D01*
X0059195Y0087569D02*
X0059195Y0088303D01*
X0059562Y0088670D01*
X0060296Y0088670D01*
X0060663Y0088303D01*
X0060663Y0087936D01*
X0059195Y0087936D01*
X0059195Y0087569D02*
X0059562Y0087202D01*
X0060296Y0087202D01*
X0063615Y0087202D02*
X0064349Y0087202D01*
X0063982Y0087202D02*
X0063982Y0089404D01*
X0063615Y0089404D01*
X0065088Y0088670D02*
X0065455Y0088670D01*
X0065455Y0087202D01*
X0065088Y0087202D02*
X0065822Y0087202D01*
X0066928Y0087202D02*
X0066928Y0089037D01*
X0067295Y0089404D01*
X0068034Y0088670D02*
X0068768Y0088670D01*
X0068401Y0089037D02*
X0068401Y0087569D01*
X0068768Y0087202D01*
X0069508Y0087569D02*
X0069508Y0088303D01*
X0069875Y0088670D01*
X0070609Y0088670D01*
X0070976Y0088303D01*
X0070976Y0087936D01*
X0069508Y0087936D01*
X0069508Y0087569D02*
X0069875Y0087202D01*
X0070609Y0087202D01*
X0071718Y0087569D02*
X0071718Y0088303D01*
X0072085Y0088670D01*
X0073186Y0088670D01*
X0073186Y0089404D02*
X0073186Y0087202D01*
X0072085Y0087202D01*
X0071718Y0087569D01*
X0073927Y0087569D02*
X0074294Y0087569D01*
X0074294Y0087202D01*
X0073927Y0087202D01*
X0073927Y0087569D01*
X0067295Y0088303D02*
X0066561Y0088303D01*
X0065455Y0089404D02*
X0065455Y0089771D01*
X0046814Y0080809D02*
X0046447Y0081176D01*
X0045714Y0081176D01*
X0045347Y0080809D01*
X0045347Y0079341D01*
X0045714Y0078974D01*
X0046447Y0078974D01*
X0046814Y0079341D01*
X0044605Y0079341D02*
X0044238Y0078974D01*
X0043504Y0078974D01*
X0043137Y0079341D01*
X0043137Y0080809D01*
X0043504Y0081176D01*
X0044238Y0081176D01*
X0044605Y0080809D01*
X0042395Y0081176D02*
X0042395Y0079708D01*
X0041661Y0078974D01*
X0040927Y0079708D01*
X0040927Y0081176D01*
X0040927Y0071176D02*
X0042395Y0071176D01*
X0041661Y0071176D02*
X0041661Y0068974D01*
X0043137Y0068974D02*
X0043871Y0068974D01*
X0043504Y0068974D02*
X0043504Y0071176D01*
X0043137Y0071176D02*
X0043871Y0071176D01*
X0044610Y0070442D02*
X0045344Y0071176D01*
X0046078Y0070442D01*
X0046078Y0068974D01*
X0046820Y0068974D02*
X0048288Y0070442D01*
X0048288Y0070809D01*
X0047921Y0071176D01*
X0047187Y0071176D01*
X0046820Y0070809D01*
X0046078Y0070075D02*
X0044610Y0070075D01*
X0044610Y0070442D02*
X0044610Y0068974D01*
X0046820Y0068974D02*
X0048288Y0068974D01*
X0048288Y0061176D02*
X0047554Y0060809D01*
X0046820Y0060075D01*
X0047921Y0060075D01*
X0048288Y0059708D01*
X0048288Y0059341D01*
X0047921Y0058974D01*
X0047187Y0058974D01*
X0046820Y0059341D01*
X0046820Y0060075D01*
X0046078Y0060075D02*
X0044610Y0060075D01*
X0044610Y0060442D02*
X0045344Y0061176D01*
X0046078Y0060442D01*
X0046078Y0058974D01*
X0044610Y0058974D02*
X0044610Y0060442D01*
X0043871Y0061176D02*
X0043137Y0061176D01*
X0043504Y0061176D02*
X0043504Y0058974D01*
X0043137Y0058974D02*
X0043871Y0058974D01*
X0041661Y0058974D02*
X0041661Y0061176D01*
X0040927Y0061176D02*
X0042395Y0061176D01*
X0042395Y0051176D02*
X0040927Y0051176D01*
X0041661Y0051176D02*
X0041661Y0048974D01*
X0043137Y0048974D02*
X0043871Y0048974D01*
X0043504Y0048974D02*
X0043504Y0051176D01*
X0043137Y0051176D02*
X0043871Y0051176D01*
X0044610Y0050442D02*
X0045344Y0051176D01*
X0046078Y0050442D01*
X0046078Y0048974D01*
X0046820Y0049341D02*
X0047187Y0048974D01*
X0047921Y0048974D01*
X0048288Y0049341D01*
X0048288Y0050075D01*
X0047921Y0050442D01*
X0047554Y0050442D01*
X0046820Y0050075D01*
X0046820Y0051176D01*
X0048288Y0051176D01*
X0046078Y0050075D02*
X0044610Y0050075D01*
X0044610Y0050442D02*
X0044610Y0048974D01*
X0015768Y0050533D02*
X0014300Y0049065D01*
X0014300Y0048698D01*
X0013558Y0048698D02*
X0013558Y0050166D01*
X0012824Y0050900D01*
X0012090Y0050166D01*
X0012090Y0048698D01*
X0011351Y0048698D02*
X0010617Y0048698D01*
X0010984Y0048698D02*
X0010984Y0050900D01*
X0010617Y0050900D02*
X0011351Y0050900D01*
X0012090Y0049799D02*
X0013558Y0049799D01*
X0014300Y0050900D02*
X0015768Y0050900D01*
X0015768Y0050533D01*
X0009875Y0050900D02*
X0008407Y0050900D01*
X0009141Y0050900D02*
X0009141Y0048698D01*
X0008774Y0058698D02*
X0009508Y0058698D01*
X0009875Y0059065D01*
X0009875Y0059799D01*
X0009141Y0059799D01*
X0008407Y0059065D02*
X0008774Y0058698D01*
X0008407Y0059065D02*
X0008407Y0060533D01*
X0008774Y0060900D01*
X0009508Y0060900D01*
X0009875Y0060533D01*
X0010617Y0060900D02*
X0012085Y0058698D01*
X0012085Y0060900D01*
X0012827Y0060900D02*
X0013928Y0060900D01*
X0014295Y0060533D01*
X0014295Y0059065D01*
X0013928Y0058698D01*
X0012827Y0058698D01*
X0012827Y0060900D01*
X0010617Y0060900D02*
X0010617Y0058698D01*
X0010617Y0068698D02*
X0011351Y0068698D01*
X0010984Y0068698D02*
X0010984Y0070900D01*
X0010617Y0070900D02*
X0011351Y0070900D01*
X0012090Y0070166D02*
X0012824Y0070900D01*
X0013558Y0070166D01*
X0013558Y0068698D01*
X0014300Y0068698D02*
X0015768Y0068698D01*
X0015034Y0068698D02*
X0015034Y0070900D01*
X0014300Y0070166D01*
X0013558Y0069799D02*
X0012090Y0069799D01*
X0012090Y0070166D02*
X0012090Y0068698D01*
X0009141Y0068698D02*
X0009141Y0070900D01*
X0008407Y0070900D02*
X0009875Y0070900D01*
X0016510Y0070533D02*
X0016877Y0070900D01*
X0017611Y0070900D01*
X0017978Y0070533D01*
X0017978Y0070166D01*
X0017611Y0069799D01*
X0017978Y0069432D01*
X0017978Y0069065D01*
X0017611Y0068698D01*
X0016877Y0068698D01*
X0016510Y0069065D01*
X0017244Y0069799D02*
X0017611Y0069799D01*
X0015401Y0078698D02*
X0015768Y0079065D01*
X0015768Y0080533D01*
X0015401Y0080900D01*
X0014667Y0080900D01*
X0014300Y0080533D01*
X0014300Y0080166D01*
X0014667Y0079799D01*
X0015768Y0079799D01*
X0015401Y0078698D02*
X0014667Y0078698D01*
X0014300Y0079065D01*
X0013558Y0078698D02*
X0013558Y0080166D01*
X0012824Y0080900D01*
X0012090Y0080166D01*
X0012090Y0078698D01*
X0011351Y0078698D02*
X0010617Y0078698D01*
X0010984Y0078698D02*
X0010984Y0080900D01*
X0010617Y0080900D02*
X0011351Y0080900D01*
X0012090Y0079799D02*
X0013558Y0079799D01*
X0009875Y0080900D02*
X0008407Y0080900D01*
X0009141Y0080900D02*
X0009141Y0078698D01*
X0222777Y0062620D02*
X0222777Y0061152D01*
X0223144Y0060785D01*
X0223878Y0060785D01*
X0224245Y0061152D01*
X0224987Y0061152D02*
X0224987Y0062620D01*
X0225354Y0062987D01*
X0226088Y0062987D01*
X0226455Y0062620D01*
X0226455Y0061152D01*
X0226088Y0060785D01*
X0225354Y0060785D01*
X0224987Y0061152D01*
X0224245Y0062620D02*
X0223878Y0062987D01*
X0223144Y0062987D01*
X0222777Y0062620D01*
X0227197Y0062987D02*
X0227197Y0060785D01*
X0228665Y0060785D02*
X0228665Y0062987D01*
X0227931Y0062253D01*
X0227197Y0062987D01*
X0229407Y0062987D02*
X0229407Y0060785D01*
X0229407Y0061519D02*
X0230508Y0061519D01*
X0230875Y0061886D01*
X0230875Y0062620D01*
X0230508Y0062987D01*
X0229407Y0062987D01*
X0231617Y0062620D02*
X0231617Y0061152D01*
X0231984Y0060785D01*
X0232718Y0060785D01*
X0233085Y0061152D01*
X0233085Y0062620D01*
X0232718Y0062987D01*
X0231984Y0062987D01*
X0231617Y0062620D01*
X0233827Y0062620D02*
X0233827Y0062253D01*
X0234194Y0061886D01*
X0234927Y0061886D01*
X0235294Y0061519D01*
X0235294Y0061152D01*
X0234927Y0060785D01*
X0234194Y0060785D01*
X0233827Y0061152D01*
X0233827Y0062620D02*
X0234194Y0062987D01*
X0234927Y0062987D01*
X0235294Y0062620D01*
X0236036Y0062987D02*
X0236770Y0062987D01*
X0236403Y0062987D02*
X0236403Y0060785D01*
X0236036Y0060785D02*
X0236770Y0060785D01*
X0238244Y0060785D02*
X0238244Y0062987D01*
X0237510Y0062987D02*
X0238978Y0062987D01*
X0239720Y0062987D02*
X0239720Y0060785D01*
X0241187Y0060785D01*
X0240454Y0061886D02*
X0239720Y0061886D01*
X0239720Y0062987D02*
X0241187Y0062987D01*
X0240875Y0071179D02*
X0240875Y0072647D01*
X0240141Y0073381D01*
X0239407Y0072647D01*
X0239407Y0071179D01*
X0238665Y0071179D02*
X0238665Y0073381D01*
X0237931Y0072647D01*
X0237197Y0073381D01*
X0237197Y0071179D01*
X0236455Y0071546D02*
X0236455Y0073381D01*
X0234987Y0073381D02*
X0234987Y0071546D01*
X0235354Y0071179D01*
X0236088Y0071179D01*
X0236455Y0071546D01*
X0234245Y0071179D02*
X0232777Y0071179D01*
X0232777Y0073381D01*
X0239407Y0072280D02*
X0240875Y0072280D01*
X0240800Y0081179D02*
X0241167Y0081546D01*
X0241167Y0083014D01*
X0240800Y0083381D01*
X0240066Y0083381D01*
X0239699Y0083014D01*
X0239699Y0081546D01*
X0240066Y0081179D01*
X0240800Y0081179D01*
X0238960Y0081179D02*
X0238226Y0081179D01*
X0238593Y0081179D02*
X0238593Y0083381D01*
X0238226Y0083381D02*
X0238960Y0083381D01*
X0237484Y0083014D02*
X0237117Y0083381D01*
X0236016Y0083381D01*
X0236016Y0081179D01*
X0237117Y0081179D01*
X0237484Y0081546D01*
X0237484Y0083014D01*
X0235274Y0083381D02*
X0235274Y0081546D01*
X0234907Y0081179D01*
X0234173Y0081179D01*
X0233806Y0081546D01*
X0233806Y0083381D01*
X0233064Y0082647D02*
X0233064Y0081179D01*
X0233064Y0082280D02*
X0231596Y0082280D01*
X0231596Y0082647D02*
X0232330Y0083381D01*
X0233064Y0082647D01*
X0231596Y0082647D02*
X0231596Y0081179D01*
X0255494Y0085247D02*
X0255861Y0084880D01*
X0256595Y0084880D01*
X0256962Y0085247D01*
X0256962Y0085980D01*
X0256228Y0085980D01*
X0255494Y0085247D02*
X0255494Y0086714D01*
X0255861Y0087081D01*
X0256595Y0087081D01*
X0256962Y0086714D01*
X0257704Y0087081D02*
X0259171Y0084880D01*
X0259171Y0087081D01*
X0259913Y0087081D02*
X0259913Y0084880D01*
X0261014Y0084880D01*
X0261381Y0085247D01*
X0261381Y0086714D01*
X0261014Y0087081D01*
X0259913Y0087081D01*
X0257704Y0087081D02*
X0257704Y0084880D01*
X0240230Y0053381D02*
X0240964Y0052647D01*
X0240964Y0051179D01*
X0240964Y0052280D02*
X0239496Y0052280D01*
X0239496Y0052647D02*
X0240230Y0053381D01*
X0239496Y0052647D02*
X0239496Y0051179D01*
X0238754Y0051179D02*
X0238754Y0053381D01*
X0238020Y0052647D01*
X0237286Y0053381D01*
X0237286Y0051179D01*
X0236544Y0051546D02*
X0236544Y0053014D01*
X0236177Y0053381D01*
X0235443Y0053381D01*
X0235076Y0053014D01*
X0235076Y0051546D01*
X0235443Y0051179D01*
X0236177Y0051179D01*
X0236544Y0051546D01*
X0234334Y0051179D02*
X0233600Y0051913D01*
X0233967Y0051913D02*
X0232866Y0051913D01*
X0232866Y0051179D02*
X0232866Y0053381D01*
X0233967Y0053381D01*
X0234334Y0053014D01*
X0234334Y0052280D01*
X0233967Y0051913D01*
X0232124Y0052280D02*
X0230656Y0052280D01*
X0229914Y0053014D02*
X0229547Y0053381D01*
X0228813Y0053381D01*
X0228446Y0053014D01*
X0228446Y0051546D01*
X0228813Y0051179D01*
X0229547Y0051179D01*
X0229914Y0051546D01*
X0230656Y0051179D02*
X0230656Y0053381D01*
X0232124Y0053381D02*
X0232124Y0051179D01*
D12*
X0233313Y0044245D02*
X0233313Y0039157D01*
X0234331Y0038140D01*
X0236366Y0038140D01*
X0237383Y0039157D01*
X0237383Y0044245D01*
X0239390Y0044245D02*
X0243460Y0044245D01*
X0245467Y0044245D02*
X0248520Y0044245D01*
X0249538Y0043227D01*
X0249538Y0041192D01*
X0248520Y0040175D01*
X0245467Y0040175D01*
X0245467Y0038140D02*
X0245467Y0044245D01*
X0241425Y0044245D02*
X0241425Y0038140D01*
X0251545Y0039157D02*
X0252562Y0038140D01*
X0254597Y0038140D01*
X0255615Y0039157D01*
X0255615Y0044245D01*
X0257622Y0044245D02*
X0261692Y0044245D01*
X0259657Y0044245D02*
X0259657Y0038140D01*
X0251545Y0039157D02*
X0251545Y0044245D01*
X0231306Y0043227D02*
X0231306Y0039157D01*
X0230289Y0038140D01*
X0228253Y0038140D01*
X0227236Y0039157D01*
X0227236Y0043227D01*
X0228253Y0044245D01*
X0230289Y0044245D01*
X0231306Y0043227D01*
X0219152Y0044245D02*
X0219152Y0040175D01*
X0217117Y0038140D01*
X0215082Y0040175D01*
X0215082Y0044245D01*
X0213074Y0044245D02*
X0209004Y0038140D01*
X0206997Y0038140D02*
X0206997Y0042210D01*
X0204962Y0044245D01*
X0202927Y0042210D01*
X0202927Y0038140D01*
X0202927Y0041192D02*
X0206997Y0041192D01*
X0056366Y0098182D02*
X0052296Y0098182D01*
X0050289Y0098182D02*
X0050289Y0093094D01*
X0049272Y0092077D01*
X0047237Y0092077D01*
X0046219Y0093094D01*
X0046219Y0098182D01*
X0044212Y0097164D02*
X0044212Y0095129D01*
X0043195Y0094112D01*
X0040142Y0094112D01*
X0040142Y0092077D02*
X0040142Y0098182D01*
X0043195Y0098182D01*
X0044212Y0097164D01*
X0038135Y0098182D02*
X0038135Y0092077D01*
X0034065Y0098182D01*
X0034065Y0092077D01*
X0032048Y0092077D02*
X0030013Y0092077D01*
X0031031Y0092077D02*
X0031031Y0098182D01*
X0032048Y0098182D02*
X0030013Y0098182D01*
X0021929Y0096147D02*
X0021929Y0092077D01*
X0021929Y0095129D02*
X0017859Y0095129D01*
X0017859Y0096147D02*
X0019894Y0098182D01*
X0021929Y0096147D01*
X0017859Y0096147D02*
X0017859Y0092077D01*
X0015843Y0092077D02*
X0013808Y0092077D01*
X0014825Y0092077D02*
X0014825Y0098182D01*
X0013808Y0098182D02*
X0015843Y0098182D01*
X0011800Y0098182D02*
X0007730Y0098182D01*
X0009765Y0098182D02*
X0009765Y0092077D01*
X0031028Y0115921D02*
X0034571Y0124583D01*
X0036146Y0124976D01*
X0040870Y0117102D01*
X0039689Y0116709D01*
X0035358Y0123402D01*
X0032602Y0116315D01*
X0031028Y0115921D01*
X0031080Y0116049D02*
X0031540Y0116049D01*
X0031284Y0116548D02*
X0032693Y0116548D01*
X0032887Y0117046D02*
X0031488Y0117046D01*
X0031692Y0117545D02*
X0033081Y0117545D01*
X0033275Y0118043D02*
X0031896Y0118043D01*
X0032100Y0118542D02*
X0033468Y0118542D01*
X0033662Y0119040D02*
X0032304Y0119040D01*
X0032508Y0119539D02*
X0033856Y0119539D01*
X0034050Y0120038D02*
X0032712Y0120038D01*
X0032915Y0120536D02*
X0034244Y0120536D01*
X0034438Y0121035D02*
X0033119Y0121035D01*
X0033323Y0121533D02*
X0034632Y0121533D01*
X0034826Y0122032D02*
X0033527Y0122032D01*
X0033731Y0122530D02*
X0035019Y0122530D01*
X0035213Y0123029D02*
X0033935Y0123029D01*
X0034139Y0123527D02*
X0037015Y0123527D01*
X0036716Y0124026D02*
X0034343Y0124026D01*
X0034547Y0124524D02*
X0036417Y0124524D01*
X0037587Y0125023D02*
X0039391Y0125023D01*
X0039003Y0125521D02*
X0037214Y0125521D01*
X0036840Y0126020D02*
X0038615Y0126020D01*
X0038227Y0126518D02*
X0036466Y0126518D01*
X0036092Y0127017D02*
X0037840Y0127017D01*
X0037452Y0127515D02*
X0035718Y0127515D01*
X0035344Y0128014D02*
X0037064Y0128014D01*
X0036676Y0128512D02*
X0034970Y0128512D01*
X0034961Y0128512D02*
X0033816Y0128512D01*
X0033589Y0128014D02*
X0034752Y0128014D01*
X0034542Y0127515D02*
X0033363Y0127515D01*
X0033136Y0127017D02*
X0034332Y0127017D01*
X0034122Y0126518D02*
X0032910Y0126518D01*
X0032683Y0126020D02*
X0033912Y0126020D01*
X0033702Y0125521D02*
X0032456Y0125521D01*
X0032230Y0125023D02*
X0033492Y0125023D01*
X0033282Y0124524D02*
X0032003Y0124524D01*
X0031777Y0124026D02*
X0033072Y0124026D01*
X0032862Y0123527D02*
X0031550Y0123527D01*
X0031323Y0123029D02*
X0032653Y0123029D01*
X0032443Y0122530D02*
X0031097Y0122530D01*
X0030870Y0122032D02*
X0032233Y0122032D01*
X0032023Y0121533D02*
X0030644Y0121533D01*
X0030417Y0121035D02*
X0031796Y0121035D01*
X0031815Y0121039D02*
X0030240Y0120646D01*
X0034177Y0129307D01*
X0035752Y0129701D01*
X0041264Y0122614D01*
X0039689Y0122220D01*
X0034965Y0128520D01*
X0031815Y0121039D01*
X0035600Y0123029D02*
X0037314Y0123029D01*
X0037614Y0122530D02*
X0035922Y0122530D01*
X0036245Y0122032D02*
X0037913Y0122032D01*
X0038212Y0121533D02*
X0036567Y0121533D01*
X0036890Y0121035D02*
X0038511Y0121035D01*
X0038810Y0120536D02*
X0037213Y0120536D01*
X0037535Y0120038D02*
X0039109Y0120038D01*
X0039408Y0119539D02*
X0037858Y0119539D01*
X0038180Y0119040D02*
X0039707Y0119040D01*
X0040006Y0118542D02*
X0038503Y0118542D01*
X0038825Y0118043D02*
X0040305Y0118043D01*
X0040605Y0117545D02*
X0039148Y0117545D01*
X0039470Y0117046D02*
X0040702Y0117046D01*
X0040927Y0122530D02*
X0039457Y0122530D01*
X0039083Y0123029D02*
X0040942Y0123029D01*
X0040554Y0123527D02*
X0038709Y0123527D01*
X0038335Y0124026D02*
X0040166Y0124026D01*
X0039778Y0124524D02*
X0037961Y0124524D01*
X0036289Y0129011D02*
X0034042Y0129011D01*
X0034986Y0129509D02*
X0035901Y0129509D01*
X0048675Y0130799D02*
X0052745Y0130799D01*
X0052745Y0131816D02*
X0052745Y0127746D01*
X0048675Y0127746D02*
X0048675Y0131816D01*
X0050710Y0133851D01*
X0052745Y0131816D01*
X0054752Y0133851D02*
X0058823Y0133851D01*
X0056787Y0133851D02*
X0056787Y0127746D01*
X0060830Y0127746D02*
X0060830Y0131816D01*
X0062865Y0133851D01*
X0064900Y0131816D01*
X0064900Y0127746D01*
X0066907Y0127746D02*
X0066907Y0133851D01*
X0069959Y0133851D01*
X0070977Y0132834D01*
X0070977Y0130799D01*
X0069959Y0129781D01*
X0066907Y0129781D01*
X0068942Y0129781D02*
X0070977Y0127746D01*
X0072984Y0127746D02*
X0075019Y0127746D01*
X0074001Y0127746D02*
X0074001Y0133851D01*
X0072984Y0133851D02*
X0075019Y0133851D01*
X0083113Y0132834D02*
X0084130Y0133851D01*
X0086165Y0133851D01*
X0087183Y0132834D01*
X0087183Y0131816D01*
X0083113Y0127746D01*
X0087183Y0127746D01*
X0089190Y0128764D02*
X0090207Y0127746D01*
X0092242Y0127746D01*
X0093260Y0128764D01*
X0093260Y0129781D01*
X0092242Y0130799D01*
X0089190Y0130799D01*
X0089190Y0128764D01*
X0089190Y0130799D02*
X0091225Y0132834D01*
X0093260Y0133851D01*
X0095267Y0132834D02*
X0096285Y0133851D01*
X0098320Y0133851D01*
X0099337Y0132834D01*
X0095267Y0128764D01*
X0096285Y0127746D01*
X0098320Y0127746D01*
X0099337Y0128764D01*
X0099337Y0132834D01*
X0101344Y0132834D02*
X0102362Y0133851D01*
X0104397Y0133851D01*
X0105414Y0132834D01*
X0101344Y0128764D01*
X0102362Y0127746D01*
X0104397Y0127746D01*
X0105414Y0128764D01*
X0105414Y0132834D01*
X0101344Y0132834D02*
X0101344Y0128764D01*
X0095267Y0128764D02*
X0095267Y0132834D01*
X0113499Y0131816D02*
X0113499Y0127746D01*
X0117569Y0127746D02*
X0117569Y0131816D01*
X0115534Y0133851D01*
X0113499Y0131816D01*
X0113499Y0130799D02*
X0117569Y0130799D01*
X0119576Y0127746D02*
X0123646Y0133851D01*
X0125653Y0133851D02*
X0125653Y0129781D01*
X0127688Y0127746D01*
X0129723Y0129781D01*
X0129723Y0133851D01*
X0137807Y0133851D02*
X0139842Y0131816D01*
X0141877Y0133851D01*
X0141877Y0127746D01*
X0143884Y0128764D02*
X0144902Y0127746D01*
X0146937Y0127746D01*
X0147955Y0128764D01*
X0147955Y0132834D01*
X0146937Y0133851D01*
X0144902Y0133851D01*
X0143884Y0132834D01*
X0143884Y0128764D01*
X0137807Y0127746D02*
X0137807Y0133851D01*
X0149962Y0133851D02*
X0149962Y0127746D01*
X0153014Y0127746D01*
X0154032Y0128764D01*
X0154032Y0132834D01*
X0153014Y0133851D01*
X0149962Y0133851D01*
X0162116Y0133851D02*
X0165169Y0133851D01*
X0166186Y0132834D01*
X0166186Y0130799D01*
X0165169Y0129781D01*
X0162116Y0129781D01*
X0162116Y0127746D02*
X0162116Y0133851D01*
X0168193Y0131816D02*
X0170228Y0133851D01*
X0172263Y0131816D01*
X0172263Y0127746D01*
X0174270Y0127746D02*
X0178341Y0127746D01*
X0174270Y0127746D02*
X0174270Y0133851D01*
X0172263Y0130799D02*
X0168193Y0130799D01*
X0168193Y0131816D02*
X0168193Y0127746D01*
X0186425Y0127746D02*
X0186425Y0131816D01*
X0186425Y0129781D02*
X0188460Y0131816D01*
X0189477Y0131816D01*
X0191489Y0130799D02*
X0192507Y0131816D01*
X0194542Y0131816D01*
X0195559Y0130799D01*
X0195559Y0129781D01*
X0191489Y0129781D01*
X0191489Y0128764D02*
X0191489Y0130799D01*
X0191489Y0128764D02*
X0192507Y0127746D01*
X0194542Y0127746D01*
X0199601Y0127746D02*
X0201636Y0131816D01*
X0197566Y0131816D02*
X0199601Y0127746D01*
X0209721Y0127746D02*
X0213791Y0127746D01*
X0215798Y0127746D02*
X0215798Y0128764D01*
X0216815Y0128764D01*
X0216815Y0127746D01*
X0215798Y0127746D01*
X0218837Y0128764D02*
X0222907Y0132834D01*
X0222907Y0128764D01*
X0221889Y0127746D01*
X0219854Y0127746D01*
X0218837Y0128764D01*
X0218837Y0132834D01*
X0219854Y0133851D01*
X0221889Y0133851D01*
X0222907Y0132834D01*
X0211756Y0133851D02*
X0211756Y0127746D01*
X0209721Y0131816D02*
X0211756Y0133851D01*
X0064900Y0130799D02*
X0060830Y0130799D01*
X0054331Y0098182D02*
X0054331Y0092077D01*
D13*
X0091059Y0063290D02*
X0094195Y0060154D01*
X0092627Y0060154D02*
X0092627Y0063290D01*
X0094195Y0063290D02*
X0091059Y0060154D01*
X0091059Y0061722D02*
X0094195Y0061722D01*
X0173075Y0079874D02*
X0176211Y0083010D01*
X0174643Y0083010D02*
X0174643Y0079874D01*
X0176211Y0079874D02*
X0173075Y0083010D01*
X0173075Y0081442D02*
X0176211Y0081442D01*
X0182576Y0008749D02*
X0182576Y0008265D01*
X0182576Y0007298D02*
X0182576Y0005363D01*
X0182092Y0005363D02*
X0183060Y0005363D01*
X0184057Y0005363D02*
X0184057Y0007298D01*
X0185508Y0007298D01*
X0185992Y0006814D01*
X0185992Y0005363D01*
X0187003Y0005846D02*
X0187003Y0006814D01*
X0187487Y0007298D01*
X0188455Y0007298D01*
X0188938Y0006814D01*
X0188938Y0006330D01*
X0187003Y0006330D01*
X0187003Y0005846D02*
X0187487Y0005363D01*
X0188455Y0005363D01*
X0189950Y0005846D02*
X0189950Y0006814D01*
X0190434Y0007298D01*
X0191401Y0007298D01*
X0191885Y0006814D01*
X0191885Y0006330D01*
X0189950Y0006330D01*
X0189950Y0005846D02*
X0190434Y0005363D01*
X0191401Y0005363D01*
X0192896Y0005363D02*
X0192896Y0007298D01*
X0193864Y0007298D02*
X0194348Y0007298D01*
X0193864Y0007298D02*
X0192896Y0006330D01*
X0195352Y0005846D02*
X0195836Y0005846D01*
X0195836Y0005363D01*
X0195352Y0005363D01*
X0195352Y0005846D01*
X0196825Y0005846D02*
X0197309Y0005363D01*
X0198760Y0005363D01*
X0199772Y0005846D02*
X0200255Y0005363D01*
X0201223Y0005363D01*
X0201707Y0005846D01*
X0201707Y0006814D01*
X0201223Y0007298D01*
X0200255Y0007298D01*
X0199772Y0006814D01*
X0199772Y0005846D01*
X0198760Y0007298D02*
X0197309Y0007298D01*
X0196825Y0006814D01*
X0196825Y0005846D01*
X0202718Y0005363D02*
X0202718Y0007298D01*
X0203202Y0007298D01*
X0203686Y0006814D01*
X0204169Y0007298D01*
X0204653Y0006814D01*
X0204653Y0005363D01*
X0203686Y0005363D02*
X0203686Y0006814D01*
X0208611Y0008265D02*
X0208611Y0005363D01*
X0212540Y0005846D02*
X0212540Y0007781D01*
X0213024Y0008265D01*
X0213991Y0008265D01*
X0214475Y0007781D01*
X0215486Y0007781D02*
X0215486Y0005846D01*
X0215970Y0005363D01*
X0216938Y0005363D01*
X0217421Y0005846D01*
X0217421Y0007781D02*
X0216938Y0008265D01*
X0215970Y0008265D01*
X0215486Y0007781D01*
X0214475Y0005846D02*
X0213991Y0005363D01*
X0213024Y0005363D01*
X0212540Y0005846D01*
X0221379Y0005363D02*
X0222831Y0005363D01*
X0223314Y0005846D01*
X0223314Y0006330D01*
X0222831Y0006814D01*
X0221379Y0006814D01*
X0221379Y0005363D02*
X0221379Y0008265D01*
X0222831Y0008265D01*
X0223314Y0007781D01*
X0223314Y0007298D01*
X0222831Y0006814D01*
X0224326Y0007781D02*
X0225293Y0006814D01*
X0225293Y0005363D01*
X0225293Y0006814D02*
X0226261Y0007781D01*
X0226261Y0008265D01*
X0227272Y0006814D02*
X0229207Y0006814D01*
X0230219Y0007298D02*
X0230703Y0006814D01*
X0231670Y0006814D01*
X0232154Y0006330D01*
X0232154Y0005846D01*
X0231670Y0005363D01*
X0230703Y0005363D01*
X0230219Y0005846D01*
X0230219Y0007298D02*
X0230219Y0007781D01*
X0230703Y0008265D01*
X0231670Y0008265D01*
X0232154Y0007781D01*
X0233165Y0007298D02*
X0234133Y0008265D01*
X0235100Y0007298D01*
X0235100Y0005363D01*
X0235100Y0006814D02*
X0233165Y0006814D01*
X0233165Y0007298D02*
X0233165Y0005363D01*
X0239058Y0006814D02*
X0240510Y0008265D01*
X0240510Y0005363D01*
X0242005Y0005363D02*
X0242005Y0005846D01*
X0242489Y0005846D01*
X0242489Y0005363D01*
X0242005Y0005363D01*
X0243478Y0005846D02*
X0245413Y0007781D01*
X0245413Y0005846D01*
X0244929Y0005363D01*
X0243962Y0005363D01*
X0243478Y0005846D01*
X0243478Y0007781D01*
X0243962Y0008265D01*
X0244929Y0008265D01*
X0245413Y0007781D01*
X0240993Y0006814D02*
X0239058Y0006814D01*
X0224326Y0007781D02*
X0224326Y0008265D01*
X0182576Y0007298D02*
X0182092Y0007298D01*
X0181081Y0007298D02*
X0179630Y0007298D01*
X0179146Y0006814D01*
X0179146Y0005846D01*
X0179630Y0005363D01*
X0181081Y0005363D01*
X0181081Y0004879D02*
X0181081Y0007298D01*
X0178134Y0006814D02*
X0178134Y0005363D01*
X0178134Y0006814D02*
X0177651Y0007298D01*
X0176199Y0007298D01*
X0176199Y0005363D01*
X0175188Y0006330D02*
X0173253Y0006330D01*
X0173253Y0005846D02*
X0173253Y0006814D01*
X0173737Y0007298D01*
X0174704Y0007298D01*
X0175188Y0006814D01*
X0175188Y0006330D01*
X0174704Y0005363D02*
X0173737Y0005363D01*
X0173253Y0005846D01*
X0172241Y0005363D02*
X0172241Y0006814D01*
X0171758Y0007298D01*
X0170306Y0007298D01*
X0170306Y0005363D01*
X0168818Y0007298D02*
X0167851Y0006330D01*
X0167851Y0005363D02*
X0167851Y0007298D01*
X0168818Y0007298D02*
X0169302Y0007298D01*
X0166839Y0006814D02*
X0166356Y0007298D01*
X0165388Y0007298D01*
X0164904Y0006814D01*
X0164904Y0005846D01*
X0165388Y0005363D01*
X0166356Y0005363D01*
X0166839Y0005846D01*
X0166839Y0006814D01*
X0163893Y0006814D02*
X0163893Y0005363D01*
X0163893Y0006814D02*
X0163409Y0007298D01*
X0162442Y0007298D01*
X0161958Y0006814D01*
X0160946Y0007298D02*
X0159495Y0007298D01*
X0159011Y0006814D01*
X0159011Y0005846D01*
X0159495Y0005363D01*
X0160946Y0005363D01*
X0160946Y0004879D02*
X0160946Y0007298D01*
X0161958Y0008265D02*
X0161958Y0005363D01*
X0160946Y0004879D02*
X0160463Y0004395D01*
X0159979Y0004395D01*
X0158000Y0005363D02*
X0158000Y0006814D01*
X0157516Y0007298D01*
X0156065Y0007298D01*
X0156065Y0005363D01*
X0155053Y0005846D02*
X0155053Y0006814D01*
X0154570Y0007298D01*
X0153602Y0007298D01*
X0153118Y0006814D01*
X0153118Y0005846D01*
X0153602Y0005363D01*
X0154570Y0005363D01*
X0155053Y0005846D01*
X0152121Y0005363D02*
X0151154Y0005363D01*
X0151638Y0005363D02*
X0151638Y0008265D01*
X0151154Y0008265D01*
X0150142Y0008265D02*
X0148207Y0005363D01*
X0145261Y0005363D02*
X0147196Y0008265D01*
X0144271Y0007298D02*
X0144271Y0006814D01*
X0143788Y0006814D01*
X0143788Y0007298D01*
X0144271Y0007298D01*
X0144271Y0005846D02*
X0144271Y0005363D01*
X0143788Y0005363D01*
X0143788Y0005846D01*
X0144271Y0005846D01*
X0142776Y0005846D02*
X0142292Y0005363D01*
X0140841Y0005363D01*
X0140841Y0004395D02*
X0140841Y0007298D01*
X0142292Y0007298D01*
X0142776Y0006814D01*
X0142776Y0005846D01*
X0139844Y0005363D02*
X0139361Y0005846D01*
X0139361Y0007781D01*
X0138877Y0007298D02*
X0139844Y0007298D01*
X0137880Y0007298D02*
X0136913Y0007298D01*
X0137396Y0007781D02*
X0137396Y0005846D01*
X0137880Y0005363D01*
X0135901Y0005363D02*
X0135901Y0006814D01*
X0135417Y0007298D01*
X0134450Y0007298D01*
X0133966Y0006814D01*
X0133966Y0008265D02*
X0133966Y0005363D01*
X0130008Y0005363D02*
X0128557Y0005363D01*
X0128073Y0005846D01*
X0128073Y0007298D01*
X0127061Y0006814D02*
X0126578Y0007298D01*
X0125126Y0007298D01*
X0125126Y0008265D02*
X0125126Y0005363D01*
X0126578Y0005363D01*
X0127061Y0005846D01*
X0127061Y0006814D01*
X0130008Y0007298D02*
X0130008Y0004879D01*
X0129524Y0004395D01*
X0129040Y0004395D01*
X0121168Y0005363D02*
X0121168Y0006814D01*
X0120685Y0007298D01*
X0119233Y0007298D01*
X0119233Y0005363D01*
X0118222Y0005363D02*
X0116771Y0005363D01*
X0116287Y0005846D01*
X0116287Y0006814D01*
X0116771Y0007298D01*
X0118222Y0007298D01*
X0118222Y0004879D01*
X0117738Y0004395D01*
X0117254Y0004395D01*
X0115290Y0005363D02*
X0114323Y0005363D01*
X0114806Y0005363D02*
X0114806Y0007298D01*
X0114323Y0007298D01*
X0113311Y0007298D02*
X0111860Y0007298D01*
X0111376Y0006814D01*
X0111860Y0006330D01*
X0112827Y0006330D01*
X0113311Y0005846D01*
X0112827Y0005363D01*
X0111376Y0005363D01*
X0110364Y0006330D02*
X0108430Y0006330D01*
X0108430Y0005846D02*
X0108430Y0006814D01*
X0108913Y0007298D01*
X0109881Y0007298D01*
X0110364Y0006814D01*
X0110364Y0006330D01*
X0109881Y0005363D02*
X0108913Y0005363D01*
X0108430Y0005846D01*
X0107418Y0005363D02*
X0105967Y0005363D01*
X0105483Y0005846D01*
X0105483Y0006814D01*
X0105967Y0007298D01*
X0107418Y0007298D01*
X0107418Y0008265D02*
X0107418Y0005363D01*
X0114806Y0008265D02*
X0114806Y0008749D01*
X0101540Y0007298D02*
X0100572Y0007298D01*
X0101056Y0007781D02*
X0101056Y0005846D01*
X0101540Y0005363D01*
X0099575Y0005363D02*
X0098608Y0005363D01*
X0099092Y0005363D02*
X0099092Y0007298D01*
X0098608Y0007298D01*
X0097596Y0007298D02*
X0097596Y0005363D01*
X0096145Y0005363D01*
X0095661Y0005846D01*
X0095661Y0007298D01*
X0094650Y0007298D02*
X0093198Y0007298D01*
X0092715Y0006814D01*
X0092715Y0005846D01*
X0093198Y0005363D01*
X0094650Y0005363D01*
X0091711Y0007298D02*
X0091227Y0007298D01*
X0090259Y0006330D01*
X0090259Y0005363D02*
X0090259Y0007298D01*
X0088779Y0007298D02*
X0088779Y0005363D01*
X0089262Y0005363D02*
X0088295Y0005363D01*
X0087283Y0005363D02*
X0085832Y0005363D01*
X0085348Y0005846D01*
X0085348Y0006814D01*
X0085832Y0007298D01*
X0087283Y0007298D01*
X0088295Y0007298D02*
X0088779Y0007298D01*
X0088779Y0008265D02*
X0088779Y0008749D01*
X0081420Y0008265D02*
X0081420Y0005363D01*
X0077476Y0005363D02*
X0076509Y0005363D01*
X0076993Y0005363D02*
X0076993Y0008265D01*
X0076509Y0008265D01*
X0075497Y0006814D02*
X0075014Y0007298D01*
X0074046Y0007298D01*
X0073562Y0006814D01*
X0072551Y0006814D02*
X0072551Y0005363D01*
X0071100Y0005363D01*
X0070616Y0005846D01*
X0071100Y0006330D01*
X0072551Y0006330D01*
X0072551Y0006814D02*
X0072067Y0007298D01*
X0071100Y0007298D01*
X0069619Y0007298D02*
X0068652Y0007298D01*
X0069135Y0007781D02*
X0069135Y0005846D01*
X0069619Y0005363D01*
X0067640Y0005846D02*
X0067156Y0006330D01*
X0066189Y0006330D01*
X0065705Y0006814D01*
X0066189Y0007298D01*
X0067640Y0007298D01*
X0067640Y0005846D02*
X0067156Y0005363D01*
X0065705Y0005363D01*
X0061747Y0005363D02*
X0060296Y0005363D01*
X0059812Y0005846D01*
X0059812Y0007298D01*
X0058800Y0006814D02*
X0058317Y0007298D01*
X0056865Y0007298D01*
X0056865Y0008265D02*
X0056865Y0005363D01*
X0058317Y0005363D01*
X0058800Y0005846D01*
X0058800Y0006814D01*
X0060779Y0004395D02*
X0061263Y0004395D01*
X0061747Y0004879D01*
X0061747Y0007298D01*
X0052922Y0007298D02*
X0051955Y0007298D01*
X0052438Y0007781D02*
X0052438Y0005846D01*
X0052922Y0005363D01*
X0050943Y0005363D02*
X0050943Y0007298D01*
X0049008Y0007298D02*
X0049008Y0005846D01*
X0049492Y0005363D01*
X0050943Y0005363D01*
X0047997Y0005846D02*
X0047513Y0005363D01*
X0046545Y0005363D01*
X0046062Y0005846D01*
X0046062Y0006814D01*
X0046545Y0007298D01*
X0047513Y0007298D01*
X0047997Y0006814D01*
X0047997Y0005846D01*
X0045050Y0005363D02*
X0043599Y0005363D01*
X0043115Y0005846D01*
X0043115Y0007298D01*
X0042103Y0006814D02*
X0042103Y0005363D01*
X0040652Y0005363D01*
X0040169Y0005846D01*
X0040652Y0006330D01*
X0042103Y0006330D01*
X0042103Y0006814D02*
X0041620Y0007298D01*
X0040652Y0007298D01*
X0038688Y0008265D02*
X0038688Y0005363D01*
X0038204Y0005363D02*
X0039172Y0005363D01*
X0038688Y0008265D02*
X0038204Y0008265D01*
X0034246Y0008265D02*
X0034246Y0005363D01*
X0032795Y0005363D01*
X0032311Y0005846D01*
X0032311Y0006814D01*
X0032795Y0007298D01*
X0034246Y0007298D01*
X0031307Y0007298D02*
X0030823Y0007298D01*
X0029856Y0006330D01*
X0029856Y0005363D02*
X0029856Y0007298D01*
X0028844Y0006814D02*
X0028844Y0005363D01*
X0027393Y0005363D01*
X0026909Y0005846D01*
X0027393Y0006330D01*
X0028844Y0006330D01*
X0028844Y0006814D02*
X0028360Y0007298D01*
X0027393Y0007298D01*
X0025898Y0006814D02*
X0025414Y0007298D01*
X0024446Y0007298D01*
X0023963Y0006814D01*
X0023963Y0005846D01*
X0024446Y0005363D01*
X0025414Y0005363D01*
X0025898Y0005846D01*
X0025898Y0006814D01*
X0022951Y0006814D02*
X0022467Y0007298D01*
X0021016Y0007298D01*
X0021016Y0008265D02*
X0021016Y0005363D01*
X0022467Y0005363D01*
X0022951Y0005846D01*
X0022951Y0006814D01*
X0044083Y0004395D02*
X0044566Y0004395D01*
X0045050Y0004879D01*
X0045050Y0007298D01*
X0073562Y0008265D02*
X0073562Y0005363D01*
X0075497Y0005363D02*
X0075497Y0006814D01*
X0099092Y0008265D02*
X0099092Y0008749D01*
X0180113Y0004395D02*
X0180597Y0004395D01*
X0181081Y0004879D01*
D14*
X0129025Y0037140D02*
X0117825Y0037140D01*
X0117825Y0042340D01*
X0129025Y0042340D01*
X0129025Y0037140D01*
X0090625Y0047140D02*
X0090625Y0050440D01*
X0090625Y0052840D01*
X0090625Y0056240D01*
X0051225Y0056240D02*
X0051225Y0047140D01*
X0038425Y0047240D02*
X0038425Y0052240D01*
X0035925Y0054740D01*
X0038425Y0057240D01*
X0038425Y0062240D01*
X0035925Y0064740D01*
X0038425Y0067240D01*
X0038425Y0072240D01*
X0035925Y0074740D01*
X0038425Y0077240D01*
X0038425Y0082240D01*
X0035925Y0084740D01*
X0020925Y0084740D01*
X0018425Y0082240D01*
X0018425Y0077240D01*
X0020925Y0074740D01*
X0018425Y0072240D01*
X0018425Y0067240D01*
X0020925Y0064740D01*
X0018425Y0062240D01*
X0018425Y0057240D01*
X0020925Y0054740D01*
X0018425Y0052240D01*
X0018425Y0047240D01*
X0020925Y0044740D01*
X0035925Y0044740D01*
X0038425Y0047240D01*
X0180525Y0059940D02*
X0191325Y0059940D01*
X0191325Y0079540D02*
X0187125Y0079540D01*
X0184725Y0079540D01*
X0180525Y0079540D01*
X0243425Y0079740D02*
X0243425Y0084740D01*
X0245925Y0087240D01*
X0260925Y0087240D01*
X0263425Y0084740D01*
X0263425Y0079740D01*
X0260925Y0077240D01*
X0263425Y0074740D01*
X0263425Y0069740D01*
X0260925Y0067240D01*
X0263425Y0064740D01*
X0263425Y0059740D01*
X0260925Y0057240D01*
X0263425Y0054740D01*
X0263425Y0049740D01*
X0260925Y0047240D01*
X0245925Y0047240D01*
X0243425Y0049740D01*
X0243425Y0054740D01*
X0245925Y0057240D01*
X0243425Y0059740D01*
X0243425Y0064740D01*
X0245925Y0067240D01*
X0243425Y0069740D01*
X0243425Y0074740D01*
X0245925Y0077240D01*
X0243425Y0079740D01*
D15*
X0103425Y0107240D02*
X0103425Y0112240D01*
X0073425Y0112240D02*
X0073425Y0107240D01*
X0100925Y0041209D02*
X0098563Y0037272D01*
X0103287Y0037272D01*
X0100925Y0041209D01*
D16*
X0100925Y0041940D03*
D17*
X0140630Y0033343D02*
X0147323Y0040035D01*
X0149685Y0040035D01*
X0157165Y0040035D02*
X0159528Y0040035D01*
X0166220Y0033343D01*
X0166220Y0014445D01*
X0157165Y0014445D01*
X0149685Y0014445D02*
X0140630Y0014445D01*
X0140630Y0033343D01*
X0157165Y0038855D02*
X0157448Y0038760D01*
X0157729Y0038658D01*
X0158006Y0038549D01*
X0158282Y0038434D01*
X0158554Y0038312D01*
X0158823Y0038183D01*
X0159089Y0038048D01*
X0159351Y0037906D01*
X0159610Y0037758D01*
X0159866Y0037604D01*
X0160117Y0037443D01*
X0160365Y0037276D01*
X0160608Y0037104D01*
X0160847Y0036925D01*
X0161082Y0036741D01*
X0161312Y0036551D01*
X0161537Y0036355D01*
X0161757Y0036154D01*
X0161973Y0035948D01*
X0162183Y0035736D01*
X0162388Y0035520D01*
X0162588Y0035298D01*
X0162782Y0035071D01*
X0162971Y0034840D01*
X0163154Y0034605D01*
X0163331Y0034365D01*
X0163502Y0034120D01*
X0163667Y0033872D01*
X0163826Y0033619D01*
X0163979Y0033363D01*
X0164126Y0033103D01*
X0164266Y0032840D01*
X0164400Y0032573D01*
X0164527Y0032303D01*
X0164647Y0032030D01*
X0164761Y0031755D01*
X0164868Y0031476D01*
X0164968Y0031195D01*
X0165061Y0030912D01*
X0165148Y0030626D01*
X0165227Y0030338D01*
X0165299Y0030049D01*
X0165364Y0029758D01*
X0165422Y0029465D01*
X0165473Y0029171D01*
X0165517Y0028876D01*
X0165553Y0028580D01*
X0165582Y0028283D01*
X0165604Y0027985D01*
X0165619Y0027687D01*
X0165626Y0027389D01*
X0165626Y0027091D01*
X0165619Y0026793D01*
X0165604Y0026495D01*
X0165582Y0026197D01*
X0165553Y0025900D01*
X0165517Y0025604D01*
X0165473Y0025309D01*
X0165422Y0025015D01*
X0165364Y0024722D01*
X0165299Y0024431D01*
X0165227Y0024142D01*
X0165148Y0023854D01*
X0165061Y0023568D01*
X0164968Y0023285D01*
X0164868Y0023004D01*
X0164761Y0022725D01*
X0164647Y0022450D01*
X0164527Y0022177D01*
X0164400Y0021907D01*
X0164266Y0021640D01*
X0164126Y0021377D01*
X0163979Y0021117D01*
X0163826Y0020861D01*
X0163667Y0020608D01*
X0163502Y0020360D01*
X0163331Y0020115D01*
X0163154Y0019875D01*
X0162971Y0019640D01*
X0162782Y0019409D01*
X0162588Y0019182D01*
X0162388Y0018960D01*
X0162183Y0018744D01*
X0161973Y0018532D01*
X0161757Y0018326D01*
X0161537Y0018125D01*
X0161312Y0017929D01*
X0161082Y0017739D01*
X0160847Y0017555D01*
X0160608Y0017376D01*
X0160365Y0017204D01*
X0160117Y0017037D01*
X0159866Y0016876D01*
X0159610Y0016722D01*
X0159351Y0016574D01*
X0159089Y0016432D01*
X0158823Y0016297D01*
X0158554Y0016168D01*
X0158282Y0016046D01*
X0158006Y0015931D01*
X0157729Y0015822D01*
X0157448Y0015720D01*
X0157165Y0015625D01*
X0149685Y0015625D02*
X0149402Y0015720D01*
X0149121Y0015822D01*
X0148844Y0015931D01*
X0148568Y0016046D01*
X0148296Y0016168D01*
X0148027Y0016297D01*
X0147761Y0016432D01*
X0147499Y0016574D01*
X0147240Y0016722D01*
X0146984Y0016876D01*
X0146733Y0017037D01*
X0146485Y0017204D01*
X0146242Y0017376D01*
X0146003Y0017555D01*
X0145768Y0017739D01*
X0145538Y0017929D01*
X0145313Y0018125D01*
X0145093Y0018326D01*
X0144877Y0018532D01*
X0144667Y0018744D01*
X0144462Y0018960D01*
X0144262Y0019182D01*
X0144068Y0019409D01*
X0143879Y0019640D01*
X0143696Y0019875D01*
X0143519Y0020115D01*
X0143348Y0020360D01*
X0143183Y0020608D01*
X0143024Y0020861D01*
X0142871Y0021117D01*
X0142724Y0021377D01*
X0142584Y0021640D01*
X0142450Y0021907D01*
X0142323Y0022177D01*
X0142203Y0022450D01*
X0142089Y0022725D01*
X0141982Y0023004D01*
X0141882Y0023285D01*
X0141789Y0023568D01*
X0141702Y0023854D01*
X0141623Y0024142D01*
X0141551Y0024431D01*
X0141486Y0024722D01*
X0141428Y0025015D01*
X0141377Y0025309D01*
X0141333Y0025604D01*
X0141297Y0025900D01*
X0141268Y0026197D01*
X0141246Y0026495D01*
X0141231Y0026793D01*
X0141224Y0027091D01*
X0141224Y0027389D01*
X0141231Y0027687D01*
X0141246Y0027985D01*
X0141268Y0028283D01*
X0141297Y0028580D01*
X0141333Y0028876D01*
X0141377Y0029171D01*
X0141428Y0029465D01*
X0141486Y0029758D01*
X0141551Y0030049D01*
X0141623Y0030338D01*
X0141702Y0030626D01*
X0141789Y0030912D01*
X0141882Y0031195D01*
X0141982Y0031476D01*
X0142089Y0031755D01*
X0142203Y0032030D01*
X0142323Y0032303D01*
X0142450Y0032573D01*
X0142584Y0032840D01*
X0142724Y0033103D01*
X0142871Y0033363D01*
X0143024Y0033619D01*
X0143183Y0033872D01*
X0143348Y0034120D01*
X0143519Y0034365D01*
X0143696Y0034605D01*
X0143879Y0034840D01*
X0144068Y0035071D01*
X0144262Y0035298D01*
X0144462Y0035520D01*
X0144667Y0035736D01*
X0144877Y0035948D01*
X0145093Y0036154D01*
X0145313Y0036355D01*
X0145538Y0036551D01*
X0145768Y0036741D01*
X0146003Y0036925D01*
X0146242Y0037104D01*
X0146485Y0037276D01*
X0146733Y0037443D01*
X0146984Y0037604D01*
X0147240Y0037758D01*
X0147499Y0037906D01*
X0147761Y0038048D01*
X0148027Y0038183D01*
X0148296Y0038312D01*
X0148568Y0038434D01*
X0148844Y0038549D01*
X0149121Y0038658D01*
X0149402Y0038760D01*
X0149685Y0038855D01*
X0203130Y0084445D02*
X0203130Y0103343D01*
X0209823Y0110035D01*
X0212185Y0110035D01*
X0219665Y0110035D02*
X0222028Y0110035D01*
X0228720Y0103343D01*
X0228720Y0084445D01*
X0219665Y0084445D01*
X0212185Y0084445D02*
X0203130Y0084445D01*
X0219665Y0085625D02*
X0219948Y0085720D01*
X0220229Y0085822D01*
X0220506Y0085931D01*
X0220782Y0086046D01*
X0221054Y0086168D01*
X0221323Y0086297D01*
X0221589Y0086432D01*
X0221851Y0086574D01*
X0222110Y0086722D01*
X0222366Y0086876D01*
X0222617Y0087037D01*
X0222865Y0087204D01*
X0223108Y0087376D01*
X0223347Y0087555D01*
X0223582Y0087739D01*
X0223812Y0087929D01*
X0224037Y0088125D01*
X0224257Y0088326D01*
X0224473Y0088532D01*
X0224683Y0088744D01*
X0224888Y0088960D01*
X0225088Y0089182D01*
X0225282Y0089409D01*
X0225471Y0089640D01*
X0225654Y0089875D01*
X0225831Y0090115D01*
X0226002Y0090360D01*
X0226167Y0090608D01*
X0226326Y0090861D01*
X0226479Y0091117D01*
X0226626Y0091377D01*
X0226766Y0091640D01*
X0226900Y0091907D01*
X0227027Y0092177D01*
X0227147Y0092450D01*
X0227261Y0092725D01*
X0227368Y0093004D01*
X0227468Y0093285D01*
X0227561Y0093568D01*
X0227648Y0093854D01*
X0227727Y0094142D01*
X0227799Y0094431D01*
X0227864Y0094722D01*
X0227922Y0095015D01*
X0227973Y0095309D01*
X0228017Y0095604D01*
X0228053Y0095900D01*
X0228082Y0096197D01*
X0228104Y0096495D01*
X0228119Y0096793D01*
X0228126Y0097091D01*
X0228126Y0097389D01*
X0228119Y0097687D01*
X0228104Y0097985D01*
X0228082Y0098283D01*
X0228053Y0098580D01*
X0228017Y0098876D01*
X0227973Y0099171D01*
X0227922Y0099465D01*
X0227864Y0099758D01*
X0227799Y0100049D01*
X0227727Y0100338D01*
X0227648Y0100626D01*
X0227561Y0100912D01*
X0227468Y0101195D01*
X0227368Y0101476D01*
X0227261Y0101755D01*
X0227147Y0102030D01*
X0227027Y0102303D01*
X0226900Y0102573D01*
X0226766Y0102840D01*
X0226626Y0103103D01*
X0226479Y0103363D01*
X0226326Y0103619D01*
X0226167Y0103872D01*
X0226002Y0104120D01*
X0225831Y0104365D01*
X0225654Y0104605D01*
X0225471Y0104840D01*
X0225282Y0105071D01*
X0225088Y0105298D01*
X0224888Y0105520D01*
X0224683Y0105736D01*
X0224473Y0105948D01*
X0224257Y0106154D01*
X0224037Y0106355D01*
X0223812Y0106551D01*
X0223582Y0106741D01*
X0223347Y0106925D01*
X0223108Y0107104D01*
X0222865Y0107276D01*
X0222617Y0107443D01*
X0222366Y0107604D01*
X0222110Y0107758D01*
X0221851Y0107906D01*
X0221589Y0108048D01*
X0221323Y0108183D01*
X0221054Y0108312D01*
X0220782Y0108434D01*
X0220506Y0108549D01*
X0220229Y0108658D01*
X0219948Y0108760D01*
X0219665Y0108855D01*
X0212185Y0108855D02*
X0211902Y0108760D01*
X0211621Y0108658D01*
X0211344Y0108549D01*
X0211068Y0108434D01*
X0210796Y0108312D01*
X0210527Y0108183D01*
X0210261Y0108048D01*
X0209999Y0107906D01*
X0209740Y0107758D01*
X0209484Y0107604D01*
X0209233Y0107443D01*
X0208985Y0107276D01*
X0208742Y0107104D01*
X0208503Y0106925D01*
X0208268Y0106741D01*
X0208038Y0106551D01*
X0207813Y0106355D01*
X0207593Y0106154D01*
X0207377Y0105948D01*
X0207167Y0105736D01*
X0206962Y0105520D01*
X0206762Y0105298D01*
X0206568Y0105071D01*
X0206379Y0104840D01*
X0206196Y0104605D01*
X0206019Y0104365D01*
X0205848Y0104120D01*
X0205683Y0103872D01*
X0205524Y0103619D01*
X0205371Y0103363D01*
X0205224Y0103103D01*
X0205084Y0102840D01*
X0204950Y0102573D01*
X0204823Y0102303D01*
X0204703Y0102030D01*
X0204589Y0101755D01*
X0204482Y0101476D01*
X0204382Y0101195D01*
X0204289Y0100912D01*
X0204202Y0100626D01*
X0204123Y0100338D01*
X0204051Y0100049D01*
X0203986Y0099758D01*
X0203928Y0099465D01*
X0203877Y0099171D01*
X0203833Y0098876D01*
X0203797Y0098580D01*
X0203768Y0098283D01*
X0203746Y0097985D01*
X0203731Y0097687D01*
X0203724Y0097389D01*
X0203724Y0097091D01*
X0203731Y0096793D01*
X0203746Y0096495D01*
X0203768Y0096197D01*
X0203797Y0095900D01*
X0203833Y0095604D01*
X0203877Y0095309D01*
X0203928Y0095015D01*
X0203986Y0094722D01*
X0204051Y0094431D01*
X0204123Y0094142D01*
X0204202Y0093854D01*
X0204289Y0093568D01*
X0204382Y0093285D01*
X0204482Y0093004D01*
X0204589Y0092725D01*
X0204703Y0092450D01*
X0204823Y0092177D01*
X0204950Y0091907D01*
X0205084Y0091640D01*
X0205224Y0091377D01*
X0205371Y0091117D01*
X0205524Y0090861D01*
X0205683Y0090608D01*
X0205848Y0090360D01*
X0206019Y0090115D01*
X0206196Y0089875D01*
X0206379Y0089640D01*
X0206568Y0089409D01*
X0206762Y0089182D01*
X0206962Y0088960D01*
X0207167Y0088744D01*
X0207377Y0088532D01*
X0207593Y0088326D01*
X0207813Y0088125D01*
X0208038Y0087929D01*
X0208268Y0087739D01*
X0208503Y0087555D01*
X0208742Y0087376D01*
X0208985Y0087204D01*
X0209233Y0087037D01*
X0209484Y0086876D01*
X0209740Y0086722D01*
X0209999Y0086574D01*
X0210261Y0086432D01*
X0210527Y0086297D01*
X0210796Y0086168D01*
X0211068Y0086046D01*
X0211344Y0085931D01*
X0211621Y0085822D01*
X0211902Y0085720D01*
X0212185Y0085625D01*
X0170161Y0108375D02*
X0157956Y0108375D01*
X0153625Y0112706D01*
X0155004Y0119989D02*
X0155087Y0120156D01*
X0155174Y0120320D01*
X0155266Y0120483D01*
X0155361Y0120643D01*
X0155460Y0120800D01*
X0155563Y0120955D01*
X0155670Y0121108D01*
X0155781Y0121258D01*
X0155895Y0121405D01*
X0156012Y0121550D01*
X0156133Y0121691D01*
X0156258Y0121830D01*
X0156385Y0121965D01*
X0156516Y0122098D01*
X0156651Y0122227D01*
X0156788Y0122353D01*
X0156928Y0122475D01*
X0157072Y0122594D01*
X0157218Y0122710D01*
X0157367Y0122821D01*
X0157518Y0122930D01*
X0157672Y0123034D01*
X0157829Y0123135D01*
X0157988Y0123232D01*
X0158149Y0123325D01*
X0158313Y0123414D01*
X0158479Y0123499D01*
X0158646Y0123580D01*
X0158816Y0123657D01*
X0158988Y0123730D01*
X0159161Y0123798D01*
X0159336Y0123862D01*
X0159512Y0123922D01*
X0159690Y0123978D01*
X0159869Y0124030D01*
X0160049Y0124077D01*
X0160230Y0124119D01*
X0160412Y0124158D01*
X0160596Y0124191D01*
X0160779Y0124221D01*
X0160964Y0124245D01*
X0161149Y0124266D01*
X0161335Y0124282D01*
X0161521Y0124293D01*
X0161707Y0124300D01*
X0161893Y0124302D01*
X0162079Y0124300D01*
X0162265Y0124293D01*
X0162451Y0124282D01*
X0162637Y0124266D01*
X0162822Y0124245D01*
X0163007Y0124221D01*
X0163190Y0124191D01*
X0163374Y0124158D01*
X0163556Y0124119D01*
X0163737Y0124077D01*
X0163917Y0124030D01*
X0164096Y0123978D01*
X0164274Y0123922D01*
X0164450Y0123862D01*
X0164625Y0123798D01*
X0164798Y0123730D01*
X0164970Y0123657D01*
X0165140Y0123580D01*
X0165307Y0123499D01*
X0165473Y0123414D01*
X0165637Y0123325D01*
X0165798Y0123232D01*
X0165957Y0123135D01*
X0166114Y0123034D01*
X0166268Y0122930D01*
X0166419Y0122821D01*
X0166568Y0122710D01*
X0166714Y0122594D01*
X0166858Y0122475D01*
X0166998Y0122353D01*
X0167135Y0122227D01*
X0167270Y0122098D01*
X0167401Y0121965D01*
X0167528Y0121830D01*
X0167653Y0121691D01*
X0167774Y0121550D01*
X0167891Y0121405D01*
X0168005Y0121258D01*
X0168116Y0121108D01*
X0168223Y0120955D01*
X0168326Y0120800D01*
X0168425Y0120643D01*
X0168520Y0120483D01*
X0168612Y0120320D01*
X0168699Y0120156D01*
X0168782Y0119989D01*
X0170161Y0119990D02*
X0170161Y0124911D01*
X0157956Y0124911D01*
X0153625Y0120580D01*
X0155004Y0113297D02*
X0155087Y0113130D01*
X0155174Y0112966D01*
X0155266Y0112803D01*
X0155361Y0112643D01*
X0155460Y0112486D01*
X0155563Y0112331D01*
X0155670Y0112178D01*
X0155781Y0112028D01*
X0155895Y0111881D01*
X0156012Y0111736D01*
X0156133Y0111595D01*
X0156258Y0111456D01*
X0156385Y0111321D01*
X0156516Y0111188D01*
X0156651Y0111059D01*
X0156788Y0110933D01*
X0156928Y0110811D01*
X0157072Y0110692D01*
X0157218Y0110576D01*
X0157367Y0110465D01*
X0157518Y0110356D01*
X0157672Y0110252D01*
X0157829Y0110151D01*
X0157988Y0110054D01*
X0158149Y0109961D01*
X0158313Y0109872D01*
X0158479Y0109787D01*
X0158646Y0109706D01*
X0158816Y0109629D01*
X0158988Y0109556D01*
X0159161Y0109488D01*
X0159336Y0109424D01*
X0159512Y0109364D01*
X0159690Y0109308D01*
X0159869Y0109256D01*
X0160049Y0109209D01*
X0160230Y0109167D01*
X0160412Y0109128D01*
X0160596Y0109095D01*
X0160779Y0109065D01*
X0160964Y0109041D01*
X0161149Y0109020D01*
X0161335Y0109004D01*
X0161521Y0108993D01*
X0161707Y0108986D01*
X0161893Y0108984D01*
X0162079Y0108986D01*
X0162265Y0108993D01*
X0162451Y0109004D01*
X0162637Y0109020D01*
X0162822Y0109041D01*
X0163007Y0109065D01*
X0163190Y0109095D01*
X0163374Y0109128D01*
X0163556Y0109167D01*
X0163737Y0109209D01*
X0163917Y0109256D01*
X0164096Y0109308D01*
X0164274Y0109364D01*
X0164450Y0109424D01*
X0164625Y0109488D01*
X0164798Y0109556D01*
X0164970Y0109629D01*
X0165140Y0109706D01*
X0165307Y0109787D01*
X0165473Y0109872D01*
X0165637Y0109961D01*
X0165798Y0110054D01*
X0165957Y0110151D01*
X0166114Y0110252D01*
X0166268Y0110356D01*
X0166419Y0110465D01*
X0166568Y0110576D01*
X0166714Y0110692D01*
X0166858Y0110811D01*
X0166998Y0110933D01*
X0167135Y0111059D01*
X0167270Y0111188D01*
X0167401Y0111321D01*
X0167528Y0111456D01*
X0167653Y0111595D01*
X0167774Y0111736D01*
X0167891Y0111881D01*
X0168005Y0112028D01*
X0168116Y0112178D01*
X0168223Y0112331D01*
X0168326Y0112486D01*
X0168425Y0112643D01*
X0168520Y0112803D01*
X0168612Y0112966D01*
X0168699Y0113130D01*
X0168782Y0113297D01*
X0170161Y0113297D02*
X0170161Y0108375D01*
X0066693Y0106394D02*
X0066693Y0101472D01*
X0054488Y0101472D01*
X0050157Y0105803D01*
X0051536Y0113086D02*
X0051619Y0113253D01*
X0051706Y0113417D01*
X0051798Y0113580D01*
X0051893Y0113740D01*
X0051992Y0113897D01*
X0052095Y0114052D01*
X0052202Y0114205D01*
X0052313Y0114355D01*
X0052427Y0114502D01*
X0052544Y0114647D01*
X0052665Y0114788D01*
X0052790Y0114927D01*
X0052917Y0115062D01*
X0053048Y0115195D01*
X0053183Y0115324D01*
X0053320Y0115450D01*
X0053460Y0115572D01*
X0053604Y0115691D01*
X0053750Y0115807D01*
X0053899Y0115918D01*
X0054050Y0116027D01*
X0054204Y0116131D01*
X0054361Y0116232D01*
X0054520Y0116329D01*
X0054681Y0116422D01*
X0054845Y0116511D01*
X0055011Y0116596D01*
X0055178Y0116677D01*
X0055348Y0116754D01*
X0055520Y0116827D01*
X0055693Y0116895D01*
X0055868Y0116959D01*
X0056044Y0117019D01*
X0056222Y0117075D01*
X0056401Y0117127D01*
X0056581Y0117174D01*
X0056762Y0117216D01*
X0056944Y0117255D01*
X0057128Y0117288D01*
X0057311Y0117318D01*
X0057496Y0117342D01*
X0057681Y0117363D01*
X0057867Y0117379D01*
X0058053Y0117390D01*
X0058239Y0117397D01*
X0058425Y0117399D01*
X0058611Y0117397D01*
X0058797Y0117390D01*
X0058983Y0117379D01*
X0059169Y0117363D01*
X0059354Y0117342D01*
X0059539Y0117318D01*
X0059722Y0117288D01*
X0059906Y0117255D01*
X0060088Y0117216D01*
X0060269Y0117174D01*
X0060449Y0117127D01*
X0060628Y0117075D01*
X0060806Y0117019D01*
X0060982Y0116959D01*
X0061157Y0116895D01*
X0061330Y0116827D01*
X0061502Y0116754D01*
X0061672Y0116677D01*
X0061839Y0116596D01*
X0062005Y0116511D01*
X0062169Y0116422D01*
X0062330Y0116329D01*
X0062489Y0116232D01*
X0062646Y0116131D01*
X0062800Y0116027D01*
X0062951Y0115918D01*
X0063100Y0115807D01*
X0063246Y0115691D01*
X0063390Y0115572D01*
X0063530Y0115450D01*
X0063667Y0115324D01*
X0063802Y0115195D01*
X0063933Y0115062D01*
X0064060Y0114927D01*
X0064185Y0114788D01*
X0064306Y0114647D01*
X0064423Y0114502D01*
X0064537Y0114355D01*
X0064648Y0114205D01*
X0064755Y0114052D01*
X0064858Y0113897D01*
X0064957Y0113740D01*
X0065052Y0113580D01*
X0065144Y0113417D01*
X0065231Y0113253D01*
X0065314Y0113086D01*
X0066693Y0113087D02*
X0066693Y0118008D01*
X0054488Y0118008D01*
X0050157Y0113677D01*
X0051536Y0106394D02*
X0051619Y0106227D01*
X0051706Y0106063D01*
X0051798Y0105900D01*
X0051893Y0105740D01*
X0051992Y0105583D01*
X0052095Y0105428D01*
X0052202Y0105275D01*
X0052313Y0105125D01*
X0052427Y0104978D01*
X0052544Y0104833D01*
X0052665Y0104692D01*
X0052790Y0104553D01*
X0052917Y0104418D01*
X0053048Y0104285D01*
X0053183Y0104156D01*
X0053320Y0104030D01*
X0053460Y0103908D01*
X0053604Y0103789D01*
X0053750Y0103673D01*
X0053899Y0103562D01*
X0054050Y0103453D01*
X0054204Y0103349D01*
X0054361Y0103248D01*
X0054520Y0103151D01*
X0054681Y0103058D01*
X0054845Y0102969D01*
X0055011Y0102884D01*
X0055178Y0102803D01*
X0055348Y0102726D01*
X0055520Y0102653D01*
X0055693Y0102585D01*
X0055868Y0102521D01*
X0056044Y0102461D01*
X0056222Y0102405D01*
X0056401Y0102353D01*
X0056581Y0102306D01*
X0056762Y0102264D01*
X0056944Y0102225D01*
X0057128Y0102192D01*
X0057311Y0102162D01*
X0057496Y0102138D01*
X0057681Y0102117D01*
X0057867Y0102101D01*
X0058053Y0102090D01*
X0058239Y0102083D01*
X0058425Y0102081D01*
X0058611Y0102083D01*
X0058797Y0102090D01*
X0058983Y0102101D01*
X0059169Y0102117D01*
X0059354Y0102138D01*
X0059539Y0102162D01*
X0059722Y0102192D01*
X0059906Y0102225D01*
X0060088Y0102264D01*
X0060269Y0102306D01*
X0060449Y0102353D01*
X0060628Y0102405D01*
X0060806Y0102461D01*
X0060982Y0102521D01*
X0061157Y0102585D01*
X0061330Y0102653D01*
X0061502Y0102726D01*
X0061672Y0102803D01*
X0061839Y0102884D01*
X0062005Y0102969D01*
X0062169Y0103058D01*
X0062330Y0103151D01*
X0062489Y0103248D01*
X0062646Y0103349D01*
X0062800Y0103453D01*
X0062951Y0103562D01*
X0063100Y0103673D01*
X0063246Y0103789D01*
X0063390Y0103908D01*
X0063530Y0104030D01*
X0063667Y0104156D01*
X0063802Y0104285D01*
X0063933Y0104418D01*
X0064060Y0104553D01*
X0064185Y0104692D01*
X0064306Y0104833D01*
X0064423Y0104978D01*
X0064537Y0105125D01*
X0064648Y0105275D01*
X0064755Y0105428D01*
X0064858Y0105583D01*
X0064957Y0105740D01*
X0065052Y0105900D01*
X0065144Y0106063D01*
X0065231Y0106227D01*
X0065314Y0106394D01*
D18*
X0025318Y0123165D02*
X0025321Y0123415D01*
X0025330Y0123665D01*
X0025346Y0123915D01*
X0025367Y0124165D01*
X0025395Y0124413D01*
X0025428Y0124661D01*
X0025468Y0124908D01*
X0025514Y0125155D01*
X0025566Y0125399D01*
X0025624Y0125643D01*
X0025687Y0125885D01*
X0025757Y0126125D01*
X0025833Y0126364D01*
X0025914Y0126601D01*
X0026001Y0126835D01*
X0026094Y0127068D01*
X0026193Y0127298D01*
X0026297Y0127525D01*
X0026407Y0127750D01*
X0026522Y0127972D01*
X0026643Y0128192D01*
X0026769Y0128408D01*
X0026900Y0128621D01*
X0027037Y0128831D01*
X0027178Y0129037D01*
X0027325Y0129240D01*
X0027476Y0129439D01*
X0027633Y0129635D01*
X0027794Y0129826D01*
X0027960Y0130014D01*
X0028130Y0130197D01*
X0028305Y0130376D01*
X0028484Y0130551D01*
X0028667Y0130721D01*
X0028855Y0130887D01*
X0029046Y0131048D01*
X0029242Y0131205D01*
X0029441Y0131356D01*
X0029644Y0131503D01*
X0029850Y0131644D01*
X0030060Y0131781D01*
X0030273Y0131912D01*
X0030489Y0132038D01*
X0030709Y0132159D01*
X0030931Y0132274D01*
X0031156Y0132384D01*
X0031383Y0132488D01*
X0031613Y0132587D01*
X0031846Y0132680D01*
X0032080Y0132767D01*
X0032317Y0132848D01*
X0032556Y0132924D01*
X0032796Y0132994D01*
X0033038Y0133057D01*
X0033282Y0133115D01*
X0033526Y0133167D01*
X0033773Y0133213D01*
X0034020Y0133253D01*
X0034268Y0133286D01*
X0034516Y0133314D01*
X0034766Y0133335D01*
X0035016Y0133351D01*
X0035266Y0133360D01*
X0035516Y0133363D01*
X0035766Y0133360D01*
X0036016Y0133351D01*
X0036266Y0133335D01*
X0036516Y0133314D01*
X0036764Y0133286D01*
X0037012Y0133253D01*
X0037259Y0133213D01*
X0037506Y0133167D01*
X0037750Y0133115D01*
X0037994Y0133057D01*
X0038236Y0132994D01*
X0038476Y0132924D01*
X0038715Y0132848D01*
X0038952Y0132767D01*
X0039186Y0132680D01*
X0039419Y0132587D01*
X0039649Y0132488D01*
X0039876Y0132384D01*
X0040101Y0132274D01*
X0040323Y0132159D01*
X0040543Y0132038D01*
X0040759Y0131912D01*
X0040972Y0131781D01*
X0041182Y0131644D01*
X0041388Y0131503D01*
X0041591Y0131356D01*
X0041790Y0131205D01*
X0041986Y0131048D01*
X0042177Y0130887D01*
X0042365Y0130721D01*
X0042548Y0130551D01*
X0042727Y0130376D01*
X0042902Y0130197D01*
X0043072Y0130014D01*
X0043238Y0129826D01*
X0043399Y0129635D01*
X0043556Y0129439D01*
X0043707Y0129240D01*
X0043854Y0129037D01*
X0043995Y0128831D01*
X0044132Y0128621D01*
X0044263Y0128408D01*
X0044389Y0128192D01*
X0044510Y0127972D01*
X0044625Y0127750D01*
X0044735Y0127525D01*
X0044839Y0127298D01*
X0044938Y0127068D01*
X0045031Y0126835D01*
X0045118Y0126601D01*
X0045199Y0126364D01*
X0045275Y0126125D01*
X0045345Y0125885D01*
X0045408Y0125643D01*
X0045466Y0125399D01*
X0045518Y0125155D01*
X0045564Y0124908D01*
X0045604Y0124661D01*
X0045637Y0124413D01*
X0045665Y0124165D01*
X0045686Y0123915D01*
X0045702Y0123665D01*
X0045711Y0123415D01*
X0045714Y0123165D01*
X0045711Y0122915D01*
X0045702Y0122665D01*
X0045686Y0122415D01*
X0045665Y0122165D01*
X0045637Y0121917D01*
X0045604Y0121669D01*
X0045564Y0121422D01*
X0045518Y0121175D01*
X0045466Y0120931D01*
X0045408Y0120687D01*
X0045345Y0120445D01*
X0045275Y0120205D01*
X0045199Y0119966D01*
X0045118Y0119729D01*
X0045031Y0119495D01*
X0044938Y0119262D01*
X0044839Y0119032D01*
X0044735Y0118805D01*
X0044625Y0118580D01*
X0044510Y0118358D01*
X0044389Y0118138D01*
X0044263Y0117922D01*
X0044132Y0117709D01*
X0043995Y0117499D01*
X0043854Y0117293D01*
X0043707Y0117090D01*
X0043556Y0116891D01*
X0043399Y0116695D01*
X0043238Y0116504D01*
X0043072Y0116316D01*
X0042902Y0116133D01*
X0042727Y0115954D01*
X0042548Y0115779D01*
X0042365Y0115609D01*
X0042177Y0115443D01*
X0041986Y0115282D01*
X0041790Y0115125D01*
X0041591Y0114974D01*
X0041388Y0114827D01*
X0041182Y0114686D01*
X0040972Y0114549D01*
X0040759Y0114418D01*
X0040543Y0114292D01*
X0040323Y0114171D01*
X0040101Y0114056D01*
X0039876Y0113946D01*
X0039649Y0113842D01*
X0039419Y0113743D01*
X0039186Y0113650D01*
X0038952Y0113563D01*
X0038715Y0113482D01*
X0038476Y0113406D01*
X0038236Y0113336D01*
X0037994Y0113273D01*
X0037750Y0113215D01*
X0037506Y0113163D01*
X0037259Y0113117D01*
X0037012Y0113077D01*
X0036764Y0113044D01*
X0036516Y0113016D01*
X0036266Y0112995D01*
X0036016Y0112979D01*
X0035766Y0112970D01*
X0035516Y0112967D01*
X0035266Y0112970D01*
X0035016Y0112979D01*
X0034766Y0112995D01*
X0034516Y0113016D01*
X0034268Y0113044D01*
X0034020Y0113077D01*
X0033773Y0113117D01*
X0033526Y0113163D01*
X0033282Y0113215D01*
X0033038Y0113273D01*
X0032796Y0113336D01*
X0032556Y0113406D01*
X0032317Y0113482D01*
X0032080Y0113563D01*
X0031846Y0113650D01*
X0031613Y0113743D01*
X0031383Y0113842D01*
X0031156Y0113946D01*
X0030931Y0114056D01*
X0030709Y0114171D01*
X0030489Y0114292D01*
X0030273Y0114418D01*
X0030060Y0114549D01*
X0029850Y0114686D01*
X0029644Y0114827D01*
X0029441Y0114974D01*
X0029242Y0115125D01*
X0029046Y0115282D01*
X0028855Y0115443D01*
X0028667Y0115609D01*
X0028484Y0115779D01*
X0028305Y0115954D01*
X0028130Y0116133D01*
X0027960Y0116316D01*
X0027794Y0116504D01*
X0027633Y0116695D01*
X0027476Y0116891D01*
X0027325Y0117090D01*
X0027178Y0117293D01*
X0027037Y0117499D01*
X0026900Y0117709D01*
X0026769Y0117922D01*
X0026643Y0118138D01*
X0026522Y0118358D01*
X0026407Y0118580D01*
X0026297Y0118805D01*
X0026193Y0119032D01*
X0026094Y0119262D01*
X0026001Y0119495D01*
X0025914Y0119729D01*
X0025833Y0119966D01*
X0025757Y0120205D01*
X0025687Y0120445D01*
X0025624Y0120687D01*
X0025566Y0120931D01*
X0025514Y0121175D01*
X0025468Y0121422D01*
X0025428Y0121669D01*
X0025395Y0121917D01*
X0025367Y0122165D01*
X0025346Y0122415D01*
X0025330Y0122665D01*
X0025321Y0122915D01*
X0025318Y0123165D01*
M02*
