G75*
%MOIN*%
%OFA0B0*%
%FSLAX25Y25*%
%IPPOS*%
%LPD*%
%AMOC8*
5,1,8,0,0,1.08239X$1,22.5*
%
%ADD10C,0.00000*%
%ADD11C,0.07400*%
%ADD12OC8,0.07400*%
%ADD13C,0.01600*%
%ADD14R,0.05906X0.05906*%
D10*
X0001000Y0001000D02*
X0001000Y0139626D01*
X0266614Y0139626D01*
X0266614Y0001000D01*
X0001000Y0001000D01*
X0007519Y0014740D02*
X0007521Y0014893D01*
X0007527Y0015047D01*
X0007537Y0015200D01*
X0007551Y0015352D01*
X0007569Y0015505D01*
X0007591Y0015656D01*
X0007616Y0015807D01*
X0007646Y0015958D01*
X0007680Y0016108D01*
X0007717Y0016256D01*
X0007758Y0016404D01*
X0007803Y0016550D01*
X0007852Y0016696D01*
X0007905Y0016840D01*
X0007961Y0016982D01*
X0008021Y0017123D01*
X0008085Y0017263D01*
X0008152Y0017401D01*
X0008223Y0017537D01*
X0008298Y0017671D01*
X0008375Y0017803D01*
X0008457Y0017933D01*
X0008541Y0018061D01*
X0008629Y0018187D01*
X0008720Y0018310D01*
X0008814Y0018431D01*
X0008912Y0018549D01*
X0009012Y0018665D01*
X0009116Y0018778D01*
X0009222Y0018889D01*
X0009331Y0018997D01*
X0009443Y0019102D01*
X0009557Y0019203D01*
X0009675Y0019302D01*
X0009794Y0019398D01*
X0009916Y0019491D01*
X0010041Y0019580D01*
X0010168Y0019667D01*
X0010297Y0019749D01*
X0010428Y0019829D01*
X0010561Y0019905D01*
X0010696Y0019978D01*
X0010833Y0020047D01*
X0010972Y0020112D01*
X0011112Y0020174D01*
X0011254Y0020232D01*
X0011397Y0020287D01*
X0011542Y0020338D01*
X0011688Y0020385D01*
X0011835Y0020428D01*
X0011983Y0020467D01*
X0012132Y0020503D01*
X0012282Y0020534D01*
X0012433Y0020562D01*
X0012584Y0020586D01*
X0012737Y0020606D01*
X0012889Y0020622D01*
X0013042Y0020634D01*
X0013195Y0020642D01*
X0013348Y0020646D01*
X0013502Y0020646D01*
X0013655Y0020642D01*
X0013808Y0020634D01*
X0013961Y0020622D01*
X0014113Y0020606D01*
X0014266Y0020586D01*
X0014417Y0020562D01*
X0014568Y0020534D01*
X0014718Y0020503D01*
X0014867Y0020467D01*
X0015015Y0020428D01*
X0015162Y0020385D01*
X0015308Y0020338D01*
X0015453Y0020287D01*
X0015596Y0020232D01*
X0015738Y0020174D01*
X0015878Y0020112D01*
X0016017Y0020047D01*
X0016154Y0019978D01*
X0016289Y0019905D01*
X0016422Y0019829D01*
X0016553Y0019749D01*
X0016682Y0019667D01*
X0016809Y0019580D01*
X0016934Y0019491D01*
X0017056Y0019398D01*
X0017175Y0019302D01*
X0017293Y0019203D01*
X0017407Y0019102D01*
X0017519Y0018997D01*
X0017628Y0018889D01*
X0017734Y0018778D01*
X0017838Y0018665D01*
X0017938Y0018549D01*
X0018036Y0018431D01*
X0018130Y0018310D01*
X0018221Y0018187D01*
X0018309Y0018061D01*
X0018393Y0017933D01*
X0018475Y0017803D01*
X0018552Y0017671D01*
X0018627Y0017537D01*
X0018698Y0017401D01*
X0018765Y0017263D01*
X0018829Y0017123D01*
X0018889Y0016982D01*
X0018945Y0016840D01*
X0018998Y0016696D01*
X0019047Y0016550D01*
X0019092Y0016404D01*
X0019133Y0016256D01*
X0019170Y0016108D01*
X0019204Y0015958D01*
X0019234Y0015807D01*
X0019259Y0015656D01*
X0019281Y0015505D01*
X0019299Y0015352D01*
X0019313Y0015200D01*
X0019323Y0015047D01*
X0019329Y0014893D01*
X0019331Y0014740D01*
X0019329Y0014587D01*
X0019323Y0014433D01*
X0019313Y0014280D01*
X0019299Y0014128D01*
X0019281Y0013975D01*
X0019259Y0013824D01*
X0019234Y0013673D01*
X0019204Y0013522D01*
X0019170Y0013372D01*
X0019133Y0013224D01*
X0019092Y0013076D01*
X0019047Y0012930D01*
X0018998Y0012784D01*
X0018945Y0012640D01*
X0018889Y0012498D01*
X0018829Y0012357D01*
X0018765Y0012217D01*
X0018698Y0012079D01*
X0018627Y0011943D01*
X0018552Y0011809D01*
X0018475Y0011677D01*
X0018393Y0011547D01*
X0018309Y0011419D01*
X0018221Y0011293D01*
X0018130Y0011170D01*
X0018036Y0011049D01*
X0017938Y0010931D01*
X0017838Y0010815D01*
X0017734Y0010702D01*
X0017628Y0010591D01*
X0017519Y0010483D01*
X0017407Y0010378D01*
X0017293Y0010277D01*
X0017175Y0010178D01*
X0017056Y0010082D01*
X0016934Y0009989D01*
X0016809Y0009900D01*
X0016682Y0009813D01*
X0016553Y0009731D01*
X0016422Y0009651D01*
X0016289Y0009575D01*
X0016154Y0009502D01*
X0016017Y0009433D01*
X0015878Y0009368D01*
X0015738Y0009306D01*
X0015596Y0009248D01*
X0015453Y0009193D01*
X0015308Y0009142D01*
X0015162Y0009095D01*
X0015015Y0009052D01*
X0014867Y0009013D01*
X0014718Y0008977D01*
X0014568Y0008946D01*
X0014417Y0008918D01*
X0014266Y0008894D01*
X0014113Y0008874D01*
X0013961Y0008858D01*
X0013808Y0008846D01*
X0013655Y0008838D01*
X0013502Y0008834D01*
X0013348Y0008834D01*
X0013195Y0008838D01*
X0013042Y0008846D01*
X0012889Y0008858D01*
X0012737Y0008874D01*
X0012584Y0008894D01*
X0012433Y0008918D01*
X0012282Y0008946D01*
X0012132Y0008977D01*
X0011983Y0009013D01*
X0011835Y0009052D01*
X0011688Y0009095D01*
X0011542Y0009142D01*
X0011397Y0009193D01*
X0011254Y0009248D01*
X0011112Y0009306D01*
X0010972Y0009368D01*
X0010833Y0009433D01*
X0010696Y0009502D01*
X0010561Y0009575D01*
X0010428Y0009651D01*
X0010297Y0009731D01*
X0010168Y0009813D01*
X0010041Y0009900D01*
X0009916Y0009989D01*
X0009794Y0010082D01*
X0009675Y0010178D01*
X0009557Y0010277D01*
X0009443Y0010378D01*
X0009331Y0010483D01*
X0009222Y0010591D01*
X0009116Y0010702D01*
X0009012Y0010815D01*
X0008912Y0010931D01*
X0008814Y0011049D01*
X0008720Y0011170D01*
X0008629Y0011293D01*
X0008541Y0011419D01*
X0008457Y0011547D01*
X0008375Y0011677D01*
X0008298Y0011809D01*
X0008223Y0011943D01*
X0008152Y0012079D01*
X0008085Y0012217D01*
X0008021Y0012357D01*
X0007961Y0012498D01*
X0007905Y0012640D01*
X0007852Y0012784D01*
X0007803Y0012930D01*
X0007758Y0013076D01*
X0007717Y0013224D01*
X0007680Y0013372D01*
X0007646Y0013522D01*
X0007616Y0013673D01*
X0007591Y0013824D01*
X0007569Y0013975D01*
X0007551Y0014128D01*
X0007537Y0014280D01*
X0007527Y0014433D01*
X0007521Y0014587D01*
X0007519Y0014740D01*
X0007519Y0127240D02*
X0007521Y0127393D01*
X0007527Y0127547D01*
X0007537Y0127700D01*
X0007551Y0127852D01*
X0007569Y0128005D01*
X0007591Y0128156D01*
X0007616Y0128307D01*
X0007646Y0128458D01*
X0007680Y0128608D01*
X0007717Y0128756D01*
X0007758Y0128904D01*
X0007803Y0129050D01*
X0007852Y0129196D01*
X0007905Y0129340D01*
X0007961Y0129482D01*
X0008021Y0129623D01*
X0008085Y0129763D01*
X0008152Y0129901D01*
X0008223Y0130037D01*
X0008298Y0130171D01*
X0008375Y0130303D01*
X0008457Y0130433D01*
X0008541Y0130561D01*
X0008629Y0130687D01*
X0008720Y0130810D01*
X0008814Y0130931D01*
X0008912Y0131049D01*
X0009012Y0131165D01*
X0009116Y0131278D01*
X0009222Y0131389D01*
X0009331Y0131497D01*
X0009443Y0131602D01*
X0009557Y0131703D01*
X0009675Y0131802D01*
X0009794Y0131898D01*
X0009916Y0131991D01*
X0010041Y0132080D01*
X0010168Y0132167D01*
X0010297Y0132249D01*
X0010428Y0132329D01*
X0010561Y0132405D01*
X0010696Y0132478D01*
X0010833Y0132547D01*
X0010972Y0132612D01*
X0011112Y0132674D01*
X0011254Y0132732D01*
X0011397Y0132787D01*
X0011542Y0132838D01*
X0011688Y0132885D01*
X0011835Y0132928D01*
X0011983Y0132967D01*
X0012132Y0133003D01*
X0012282Y0133034D01*
X0012433Y0133062D01*
X0012584Y0133086D01*
X0012737Y0133106D01*
X0012889Y0133122D01*
X0013042Y0133134D01*
X0013195Y0133142D01*
X0013348Y0133146D01*
X0013502Y0133146D01*
X0013655Y0133142D01*
X0013808Y0133134D01*
X0013961Y0133122D01*
X0014113Y0133106D01*
X0014266Y0133086D01*
X0014417Y0133062D01*
X0014568Y0133034D01*
X0014718Y0133003D01*
X0014867Y0132967D01*
X0015015Y0132928D01*
X0015162Y0132885D01*
X0015308Y0132838D01*
X0015453Y0132787D01*
X0015596Y0132732D01*
X0015738Y0132674D01*
X0015878Y0132612D01*
X0016017Y0132547D01*
X0016154Y0132478D01*
X0016289Y0132405D01*
X0016422Y0132329D01*
X0016553Y0132249D01*
X0016682Y0132167D01*
X0016809Y0132080D01*
X0016934Y0131991D01*
X0017056Y0131898D01*
X0017175Y0131802D01*
X0017293Y0131703D01*
X0017407Y0131602D01*
X0017519Y0131497D01*
X0017628Y0131389D01*
X0017734Y0131278D01*
X0017838Y0131165D01*
X0017938Y0131049D01*
X0018036Y0130931D01*
X0018130Y0130810D01*
X0018221Y0130687D01*
X0018309Y0130561D01*
X0018393Y0130433D01*
X0018475Y0130303D01*
X0018552Y0130171D01*
X0018627Y0130037D01*
X0018698Y0129901D01*
X0018765Y0129763D01*
X0018829Y0129623D01*
X0018889Y0129482D01*
X0018945Y0129340D01*
X0018998Y0129196D01*
X0019047Y0129050D01*
X0019092Y0128904D01*
X0019133Y0128756D01*
X0019170Y0128608D01*
X0019204Y0128458D01*
X0019234Y0128307D01*
X0019259Y0128156D01*
X0019281Y0128005D01*
X0019299Y0127852D01*
X0019313Y0127700D01*
X0019323Y0127547D01*
X0019329Y0127393D01*
X0019331Y0127240D01*
X0019329Y0127087D01*
X0019323Y0126933D01*
X0019313Y0126780D01*
X0019299Y0126628D01*
X0019281Y0126475D01*
X0019259Y0126324D01*
X0019234Y0126173D01*
X0019204Y0126022D01*
X0019170Y0125872D01*
X0019133Y0125724D01*
X0019092Y0125576D01*
X0019047Y0125430D01*
X0018998Y0125284D01*
X0018945Y0125140D01*
X0018889Y0124998D01*
X0018829Y0124857D01*
X0018765Y0124717D01*
X0018698Y0124579D01*
X0018627Y0124443D01*
X0018552Y0124309D01*
X0018475Y0124177D01*
X0018393Y0124047D01*
X0018309Y0123919D01*
X0018221Y0123793D01*
X0018130Y0123670D01*
X0018036Y0123549D01*
X0017938Y0123431D01*
X0017838Y0123315D01*
X0017734Y0123202D01*
X0017628Y0123091D01*
X0017519Y0122983D01*
X0017407Y0122878D01*
X0017293Y0122777D01*
X0017175Y0122678D01*
X0017056Y0122582D01*
X0016934Y0122489D01*
X0016809Y0122400D01*
X0016682Y0122313D01*
X0016553Y0122231D01*
X0016422Y0122151D01*
X0016289Y0122075D01*
X0016154Y0122002D01*
X0016017Y0121933D01*
X0015878Y0121868D01*
X0015738Y0121806D01*
X0015596Y0121748D01*
X0015453Y0121693D01*
X0015308Y0121642D01*
X0015162Y0121595D01*
X0015015Y0121552D01*
X0014867Y0121513D01*
X0014718Y0121477D01*
X0014568Y0121446D01*
X0014417Y0121418D01*
X0014266Y0121394D01*
X0014113Y0121374D01*
X0013961Y0121358D01*
X0013808Y0121346D01*
X0013655Y0121338D01*
X0013502Y0121334D01*
X0013348Y0121334D01*
X0013195Y0121338D01*
X0013042Y0121346D01*
X0012889Y0121358D01*
X0012737Y0121374D01*
X0012584Y0121394D01*
X0012433Y0121418D01*
X0012282Y0121446D01*
X0012132Y0121477D01*
X0011983Y0121513D01*
X0011835Y0121552D01*
X0011688Y0121595D01*
X0011542Y0121642D01*
X0011397Y0121693D01*
X0011254Y0121748D01*
X0011112Y0121806D01*
X0010972Y0121868D01*
X0010833Y0121933D01*
X0010696Y0122002D01*
X0010561Y0122075D01*
X0010428Y0122151D01*
X0010297Y0122231D01*
X0010168Y0122313D01*
X0010041Y0122400D01*
X0009916Y0122489D01*
X0009794Y0122582D01*
X0009675Y0122678D01*
X0009557Y0122777D01*
X0009443Y0122878D01*
X0009331Y0122983D01*
X0009222Y0123091D01*
X0009116Y0123202D01*
X0009012Y0123315D01*
X0008912Y0123431D01*
X0008814Y0123549D01*
X0008720Y0123670D01*
X0008629Y0123793D01*
X0008541Y0123919D01*
X0008457Y0124047D01*
X0008375Y0124177D01*
X0008298Y0124309D01*
X0008223Y0124443D01*
X0008152Y0124579D01*
X0008085Y0124717D01*
X0008021Y0124857D01*
X0007961Y0124998D01*
X0007905Y0125140D01*
X0007852Y0125284D01*
X0007803Y0125430D01*
X0007758Y0125576D01*
X0007717Y0125724D01*
X0007680Y0125872D01*
X0007646Y0126022D01*
X0007616Y0126173D01*
X0007591Y0126324D01*
X0007569Y0126475D01*
X0007551Y0126628D01*
X0007537Y0126780D01*
X0007527Y0126933D01*
X0007521Y0127087D01*
X0007519Y0127240D01*
X0247519Y0127240D02*
X0247521Y0127393D01*
X0247527Y0127547D01*
X0247537Y0127700D01*
X0247551Y0127852D01*
X0247569Y0128005D01*
X0247591Y0128156D01*
X0247616Y0128307D01*
X0247646Y0128458D01*
X0247680Y0128608D01*
X0247717Y0128756D01*
X0247758Y0128904D01*
X0247803Y0129050D01*
X0247852Y0129196D01*
X0247905Y0129340D01*
X0247961Y0129482D01*
X0248021Y0129623D01*
X0248085Y0129763D01*
X0248152Y0129901D01*
X0248223Y0130037D01*
X0248298Y0130171D01*
X0248375Y0130303D01*
X0248457Y0130433D01*
X0248541Y0130561D01*
X0248629Y0130687D01*
X0248720Y0130810D01*
X0248814Y0130931D01*
X0248912Y0131049D01*
X0249012Y0131165D01*
X0249116Y0131278D01*
X0249222Y0131389D01*
X0249331Y0131497D01*
X0249443Y0131602D01*
X0249557Y0131703D01*
X0249675Y0131802D01*
X0249794Y0131898D01*
X0249916Y0131991D01*
X0250041Y0132080D01*
X0250168Y0132167D01*
X0250297Y0132249D01*
X0250428Y0132329D01*
X0250561Y0132405D01*
X0250696Y0132478D01*
X0250833Y0132547D01*
X0250972Y0132612D01*
X0251112Y0132674D01*
X0251254Y0132732D01*
X0251397Y0132787D01*
X0251542Y0132838D01*
X0251688Y0132885D01*
X0251835Y0132928D01*
X0251983Y0132967D01*
X0252132Y0133003D01*
X0252282Y0133034D01*
X0252433Y0133062D01*
X0252584Y0133086D01*
X0252737Y0133106D01*
X0252889Y0133122D01*
X0253042Y0133134D01*
X0253195Y0133142D01*
X0253348Y0133146D01*
X0253502Y0133146D01*
X0253655Y0133142D01*
X0253808Y0133134D01*
X0253961Y0133122D01*
X0254113Y0133106D01*
X0254266Y0133086D01*
X0254417Y0133062D01*
X0254568Y0133034D01*
X0254718Y0133003D01*
X0254867Y0132967D01*
X0255015Y0132928D01*
X0255162Y0132885D01*
X0255308Y0132838D01*
X0255453Y0132787D01*
X0255596Y0132732D01*
X0255738Y0132674D01*
X0255878Y0132612D01*
X0256017Y0132547D01*
X0256154Y0132478D01*
X0256289Y0132405D01*
X0256422Y0132329D01*
X0256553Y0132249D01*
X0256682Y0132167D01*
X0256809Y0132080D01*
X0256934Y0131991D01*
X0257056Y0131898D01*
X0257175Y0131802D01*
X0257293Y0131703D01*
X0257407Y0131602D01*
X0257519Y0131497D01*
X0257628Y0131389D01*
X0257734Y0131278D01*
X0257838Y0131165D01*
X0257938Y0131049D01*
X0258036Y0130931D01*
X0258130Y0130810D01*
X0258221Y0130687D01*
X0258309Y0130561D01*
X0258393Y0130433D01*
X0258475Y0130303D01*
X0258552Y0130171D01*
X0258627Y0130037D01*
X0258698Y0129901D01*
X0258765Y0129763D01*
X0258829Y0129623D01*
X0258889Y0129482D01*
X0258945Y0129340D01*
X0258998Y0129196D01*
X0259047Y0129050D01*
X0259092Y0128904D01*
X0259133Y0128756D01*
X0259170Y0128608D01*
X0259204Y0128458D01*
X0259234Y0128307D01*
X0259259Y0128156D01*
X0259281Y0128005D01*
X0259299Y0127852D01*
X0259313Y0127700D01*
X0259323Y0127547D01*
X0259329Y0127393D01*
X0259331Y0127240D01*
X0259329Y0127087D01*
X0259323Y0126933D01*
X0259313Y0126780D01*
X0259299Y0126628D01*
X0259281Y0126475D01*
X0259259Y0126324D01*
X0259234Y0126173D01*
X0259204Y0126022D01*
X0259170Y0125872D01*
X0259133Y0125724D01*
X0259092Y0125576D01*
X0259047Y0125430D01*
X0258998Y0125284D01*
X0258945Y0125140D01*
X0258889Y0124998D01*
X0258829Y0124857D01*
X0258765Y0124717D01*
X0258698Y0124579D01*
X0258627Y0124443D01*
X0258552Y0124309D01*
X0258475Y0124177D01*
X0258393Y0124047D01*
X0258309Y0123919D01*
X0258221Y0123793D01*
X0258130Y0123670D01*
X0258036Y0123549D01*
X0257938Y0123431D01*
X0257838Y0123315D01*
X0257734Y0123202D01*
X0257628Y0123091D01*
X0257519Y0122983D01*
X0257407Y0122878D01*
X0257293Y0122777D01*
X0257175Y0122678D01*
X0257056Y0122582D01*
X0256934Y0122489D01*
X0256809Y0122400D01*
X0256682Y0122313D01*
X0256553Y0122231D01*
X0256422Y0122151D01*
X0256289Y0122075D01*
X0256154Y0122002D01*
X0256017Y0121933D01*
X0255878Y0121868D01*
X0255738Y0121806D01*
X0255596Y0121748D01*
X0255453Y0121693D01*
X0255308Y0121642D01*
X0255162Y0121595D01*
X0255015Y0121552D01*
X0254867Y0121513D01*
X0254718Y0121477D01*
X0254568Y0121446D01*
X0254417Y0121418D01*
X0254266Y0121394D01*
X0254113Y0121374D01*
X0253961Y0121358D01*
X0253808Y0121346D01*
X0253655Y0121338D01*
X0253502Y0121334D01*
X0253348Y0121334D01*
X0253195Y0121338D01*
X0253042Y0121346D01*
X0252889Y0121358D01*
X0252737Y0121374D01*
X0252584Y0121394D01*
X0252433Y0121418D01*
X0252282Y0121446D01*
X0252132Y0121477D01*
X0251983Y0121513D01*
X0251835Y0121552D01*
X0251688Y0121595D01*
X0251542Y0121642D01*
X0251397Y0121693D01*
X0251254Y0121748D01*
X0251112Y0121806D01*
X0250972Y0121868D01*
X0250833Y0121933D01*
X0250696Y0122002D01*
X0250561Y0122075D01*
X0250428Y0122151D01*
X0250297Y0122231D01*
X0250168Y0122313D01*
X0250041Y0122400D01*
X0249916Y0122489D01*
X0249794Y0122582D01*
X0249675Y0122678D01*
X0249557Y0122777D01*
X0249443Y0122878D01*
X0249331Y0122983D01*
X0249222Y0123091D01*
X0249116Y0123202D01*
X0249012Y0123315D01*
X0248912Y0123431D01*
X0248814Y0123549D01*
X0248720Y0123670D01*
X0248629Y0123793D01*
X0248541Y0123919D01*
X0248457Y0124047D01*
X0248375Y0124177D01*
X0248298Y0124309D01*
X0248223Y0124443D01*
X0248152Y0124579D01*
X0248085Y0124717D01*
X0248021Y0124857D01*
X0247961Y0124998D01*
X0247905Y0125140D01*
X0247852Y0125284D01*
X0247803Y0125430D01*
X0247758Y0125576D01*
X0247717Y0125724D01*
X0247680Y0125872D01*
X0247646Y0126022D01*
X0247616Y0126173D01*
X0247591Y0126324D01*
X0247569Y0126475D01*
X0247551Y0126628D01*
X0247537Y0126780D01*
X0247527Y0126933D01*
X0247521Y0127087D01*
X0247519Y0127240D01*
X0247519Y0014740D02*
X0247521Y0014893D01*
X0247527Y0015047D01*
X0247537Y0015200D01*
X0247551Y0015352D01*
X0247569Y0015505D01*
X0247591Y0015656D01*
X0247616Y0015807D01*
X0247646Y0015958D01*
X0247680Y0016108D01*
X0247717Y0016256D01*
X0247758Y0016404D01*
X0247803Y0016550D01*
X0247852Y0016696D01*
X0247905Y0016840D01*
X0247961Y0016982D01*
X0248021Y0017123D01*
X0248085Y0017263D01*
X0248152Y0017401D01*
X0248223Y0017537D01*
X0248298Y0017671D01*
X0248375Y0017803D01*
X0248457Y0017933D01*
X0248541Y0018061D01*
X0248629Y0018187D01*
X0248720Y0018310D01*
X0248814Y0018431D01*
X0248912Y0018549D01*
X0249012Y0018665D01*
X0249116Y0018778D01*
X0249222Y0018889D01*
X0249331Y0018997D01*
X0249443Y0019102D01*
X0249557Y0019203D01*
X0249675Y0019302D01*
X0249794Y0019398D01*
X0249916Y0019491D01*
X0250041Y0019580D01*
X0250168Y0019667D01*
X0250297Y0019749D01*
X0250428Y0019829D01*
X0250561Y0019905D01*
X0250696Y0019978D01*
X0250833Y0020047D01*
X0250972Y0020112D01*
X0251112Y0020174D01*
X0251254Y0020232D01*
X0251397Y0020287D01*
X0251542Y0020338D01*
X0251688Y0020385D01*
X0251835Y0020428D01*
X0251983Y0020467D01*
X0252132Y0020503D01*
X0252282Y0020534D01*
X0252433Y0020562D01*
X0252584Y0020586D01*
X0252737Y0020606D01*
X0252889Y0020622D01*
X0253042Y0020634D01*
X0253195Y0020642D01*
X0253348Y0020646D01*
X0253502Y0020646D01*
X0253655Y0020642D01*
X0253808Y0020634D01*
X0253961Y0020622D01*
X0254113Y0020606D01*
X0254266Y0020586D01*
X0254417Y0020562D01*
X0254568Y0020534D01*
X0254718Y0020503D01*
X0254867Y0020467D01*
X0255015Y0020428D01*
X0255162Y0020385D01*
X0255308Y0020338D01*
X0255453Y0020287D01*
X0255596Y0020232D01*
X0255738Y0020174D01*
X0255878Y0020112D01*
X0256017Y0020047D01*
X0256154Y0019978D01*
X0256289Y0019905D01*
X0256422Y0019829D01*
X0256553Y0019749D01*
X0256682Y0019667D01*
X0256809Y0019580D01*
X0256934Y0019491D01*
X0257056Y0019398D01*
X0257175Y0019302D01*
X0257293Y0019203D01*
X0257407Y0019102D01*
X0257519Y0018997D01*
X0257628Y0018889D01*
X0257734Y0018778D01*
X0257838Y0018665D01*
X0257938Y0018549D01*
X0258036Y0018431D01*
X0258130Y0018310D01*
X0258221Y0018187D01*
X0258309Y0018061D01*
X0258393Y0017933D01*
X0258475Y0017803D01*
X0258552Y0017671D01*
X0258627Y0017537D01*
X0258698Y0017401D01*
X0258765Y0017263D01*
X0258829Y0017123D01*
X0258889Y0016982D01*
X0258945Y0016840D01*
X0258998Y0016696D01*
X0259047Y0016550D01*
X0259092Y0016404D01*
X0259133Y0016256D01*
X0259170Y0016108D01*
X0259204Y0015958D01*
X0259234Y0015807D01*
X0259259Y0015656D01*
X0259281Y0015505D01*
X0259299Y0015352D01*
X0259313Y0015200D01*
X0259323Y0015047D01*
X0259329Y0014893D01*
X0259331Y0014740D01*
X0259329Y0014587D01*
X0259323Y0014433D01*
X0259313Y0014280D01*
X0259299Y0014128D01*
X0259281Y0013975D01*
X0259259Y0013824D01*
X0259234Y0013673D01*
X0259204Y0013522D01*
X0259170Y0013372D01*
X0259133Y0013224D01*
X0259092Y0013076D01*
X0259047Y0012930D01*
X0258998Y0012784D01*
X0258945Y0012640D01*
X0258889Y0012498D01*
X0258829Y0012357D01*
X0258765Y0012217D01*
X0258698Y0012079D01*
X0258627Y0011943D01*
X0258552Y0011809D01*
X0258475Y0011677D01*
X0258393Y0011547D01*
X0258309Y0011419D01*
X0258221Y0011293D01*
X0258130Y0011170D01*
X0258036Y0011049D01*
X0257938Y0010931D01*
X0257838Y0010815D01*
X0257734Y0010702D01*
X0257628Y0010591D01*
X0257519Y0010483D01*
X0257407Y0010378D01*
X0257293Y0010277D01*
X0257175Y0010178D01*
X0257056Y0010082D01*
X0256934Y0009989D01*
X0256809Y0009900D01*
X0256682Y0009813D01*
X0256553Y0009731D01*
X0256422Y0009651D01*
X0256289Y0009575D01*
X0256154Y0009502D01*
X0256017Y0009433D01*
X0255878Y0009368D01*
X0255738Y0009306D01*
X0255596Y0009248D01*
X0255453Y0009193D01*
X0255308Y0009142D01*
X0255162Y0009095D01*
X0255015Y0009052D01*
X0254867Y0009013D01*
X0254718Y0008977D01*
X0254568Y0008946D01*
X0254417Y0008918D01*
X0254266Y0008894D01*
X0254113Y0008874D01*
X0253961Y0008858D01*
X0253808Y0008846D01*
X0253655Y0008838D01*
X0253502Y0008834D01*
X0253348Y0008834D01*
X0253195Y0008838D01*
X0253042Y0008846D01*
X0252889Y0008858D01*
X0252737Y0008874D01*
X0252584Y0008894D01*
X0252433Y0008918D01*
X0252282Y0008946D01*
X0252132Y0008977D01*
X0251983Y0009013D01*
X0251835Y0009052D01*
X0251688Y0009095D01*
X0251542Y0009142D01*
X0251397Y0009193D01*
X0251254Y0009248D01*
X0251112Y0009306D01*
X0250972Y0009368D01*
X0250833Y0009433D01*
X0250696Y0009502D01*
X0250561Y0009575D01*
X0250428Y0009651D01*
X0250297Y0009731D01*
X0250168Y0009813D01*
X0250041Y0009900D01*
X0249916Y0009989D01*
X0249794Y0010082D01*
X0249675Y0010178D01*
X0249557Y0010277D01*
X0249443Y0010378D01*
X0249331Y0010483D01*
X0249222Y0010591D01*
X0249116Y0010702D01*
X0249012Y0010815D01*
X0248912Y0010931D01*
X0248814Y0011049D01*
X0248720Y0011170D01*
X0248629Y0011293D01*
X0248541Y0011419D01*
X0248457Y0011547D01*
X0248375Y0011677D01*
X0248298Y0011809D01*
X0248223Y0011943D01*
X0248152Y0012079D01*
X0248085Y0012217D01*
X0248021Y0012357D01*
X0247961Y0012498D01*
X0247905Y0012640D01*
X0247852Y0012784D01*
X0247803Y0012930D01*
X0247758Y0013076D01*
X0247717Y0013224D01*
X0247680Y0013372D01*
X0247646Y0013522D01*
X0247616Y0013673D01*
X0247591Y0013824D01*
X0247569Y0013975D01*
X0247551Y0014128D01*
X0247537Y0014280D01*
X0247527Y0014433D01*
X0247521Y0014587D01*
X0247519Y0014740D01*
D11*
X0098425Y0106040D02*
X0098425Y0113440D01*
X0088425Y0113440D02*
X0088425Y0106040D01*
X0078425Y0106040D02*
X0078425Y0113440D01*
D12*
X0033425Y0079740D03*
X0023425Y0079740D03*
X0023425Y0069740D03*
X0033425Y0069740D03*
X0033425Y0059740D03*
X0023425Y0059740D03*
X0023425Y0049740D03*
X0033425Y0049740D03*
X0248425Y0052240D03*
X0258425Y0052240D03*
X0258425Y0062240D03*
X0248425Y0062240D03*
X0248425Y0072240D03*
X0258425Y0072240D03*
X0258425Y0082240D03*
X0248425Y0082240D03*
D13*
X0243667Y0077240D02*
X0241525Y0079382D01*
X0241525Y0085098D01*
X0245567Y0089140D01*
X0251283Y0089140D01*
X0254415Y0086008D01*
X0256147Y0087740D01*
X0258225Y0087740D01*
X0258225Y0082440D01*
X0258625Y0082440D01*
X0258625Y0087740D01*
X0260703Y0087740D01*
X0263414Y0085029D01*
X0263414Y0136369D01*
X0004200Y0136369D01*
X0004200Y0004200D01*
X0263414Y0004200D01*
X0263414Y0049451D01*
X0260703Y0046740D01*
X0258625Y0046740D01*
X0258625Y0052040D01*
X0258225Y0052040D01*
X0258225Y0046740D01*
X0256147Y0046740D01*
X0254415Y0048472D01*
X0251283Y0045340D01*
X0245567Y0045340D01*
X0241525Y0049382D01*
X0241525Y0055098D01*
X0243667Y0057240D01*
X0241525Y0059382D01*
X0241525Y0065098D01*
X0243667Y0067240D01*
X0241525Y0069382D01*
X0241525Y0075098D01*
X0243667Y0077240D01*
X0242988Y0076562D02*
X0040005Y0076562D01*
X0040325Y0076882D02*
X0038183Y0074740D01*
X0040325Y0072598D01*
X0040325Y0066882D01*
X0038183Y0064740D01*
X0040325Y0062598D01*
X0040325Y0056882D01*
X0038183Y0054740D01*
X0040325Y0052598D01*
X0040325Y0046882D01*
X0036283Y0042840D01*
X0030567Y0042840D01*
X0028425Y0044982D01*
X0026283Y0042840D01*
X0020567Y0042840D01*
X0016525Y0046882D01*
X0016525Y0052598D01*
X0019657Y0055730D01*
X0017925Y0057462D01*
X0017925Y0059540D01*
X0023225Y0059540D01*
X0023225Y0059940D01*
X0017925Y0059940D01*
X0017925Y0062018D01*
X0019657Y0063750D01*
X0016525Y0066882D01*
X0016525Y0072598D01*
X0018667Y0074740D01*
X0016525Y0076882D01*
X0016525Y0082598D01*
X0020567Y0086640D01*
X0026283Y0086640D01*
X0028425Y0084498D01*
X0030567Y0086640D01*
X0036283Y0086640D01*
X0040325Y0082598D01*
X0040325Y0076882D01*
X0040325Y0078160D02*
X0242747Y0078160D01*
X0241525Y0079759D02*
X0040325Y0079759D01*
X0040325Y0081357D02*
X0241525Y0081357D01*
X0241525Y0082956D02*
X0039968Y0082956D01*
X0038369Y0084554D02*
X0241525Y0084554D01*
X0242580Y0086153D02*
X0036771Y0086153D01*
X0030080Y0086153D02*
X0026771Y0086153D01*
X0028369Y0084554D02*
X0028481Y0084554D01*
X0020080Y0086153D02*
X0004200Y0086153D01*
X0004200Y0087751D02*
X0244178Y0087751D01*
X0252672Y0087751D02*
X0263414Y0087751D01*
X0263414Y0086153D02*
X0262291Y0086153D01*
X0263414Y0089350D02*
X0004200Y0089350D01*
X0004200Y0090948D02*
X0263414Y0090948D01*
X0263414Y0092547D02*
X0004200Y0092547D01*
X0004200Y0094145D02*
X0263414Y0094145D01*
X0263414Y0095744D02*
X0004200Y0095744D01*
X0004200Y0097342D02*
X0263414Y0097342D01*
X0263414Y0098941D02*
X0004200Y0098941D01*
X0004200Y0100539D02*
X0074168Y0100539D01*
X0074517Y0100191D02*
X0077053Y0099140D01*
X0079798Y0099140D01*
X0082334Y0100191D01*
X0083425Y0101282D01*
X0084517Y0100191D01*
X0087053Y0099140D01*
X0089798Y0099140D01*
X0092334Y0100191D01*
X0094275Y0102132D01*
X0094357Y0102330D01*
X0094842Y0101845D01*
X0095543Y0101336D01*
X0096314Y0100943D01*
X0097137Y0100676D01*
X0097992Y0100540D01*
X0098125Y0100540D01*
X0098125Y0109440D01*
X0098725Y0109440D01*
X0098725Y0100540D01*
X0098858Y0100540D01*
X0099713Y0100676D01*
X0100536Y0100943D01*
X0101308Y0101336D01*
X0102008Y0101845D01*
X0102620Y0102457D01*
X0103129Y0103158D01*
X0103522Y0103929D01*
X0103790Y0104752D01*
X0103925Y0105607D01*
X0103925Y0109440D01*
X0098725Y0109440D01*
X0098725Y0110040D01*
X0098125Y0110040D01*
X0098125Y0118940D01*
X0097992Y0118940D01*
X0097137Y0118805D01*
X0096314Y0118537D01*
X0095543Y0118144D01*
X0094842Y0117635D01*
X0094357Y0117150D01*
X0094275Y0117349D01*
X0092334Y0119290D01*
X0089798Y0120340D01*
X0087053Y0120340D01*
X0084517Y0119290D01*
X0083425Y0118198D01*
X0082334Y0119290D01*
X0079798Y0120340D01*
X0077053Y0120340D01*
X0074517Y0119290D01*
X0072576Y0117349D01*
X0071525Y0114813D01*
X0071525Y0104668D01*
X0072576Y0102132D01*
X0074517Y0100191D01*
X0072573Y0102138D02*
X0004200Y0102138D01*
X0004200Y0103736D02*
X0071911Y0103736D01*
X0071525Y0105335D02*
X0004200Y0105335D01*
X0004200Y0106933D02*
X0071525Y0106933D01*
X0071525Y0108532D02*
X0004200Y0108532D01*
X0004200Y0110130D02*
X0071525Y0110130D01*
X0071525Y0111729D02*
X0004200Y0111729D01*
X0004200Y0113327D02*
X0071525Y0113327D01*
X0071572Y0114926D02*
X0004200Y0114926D01*
X0004200Y0116524D02*
X0072234Y0116524D01*
X0073350Y0118123D02*
X0004200Y0118123D01*
X0004200Y0119721D02*
X0008067Y0119721D01*
X0008267Y0119521D02*
X0005706Y0122082D01*
X0004320Y0125429D01*
X0004320Y0129051D01*
X0005706Y0132398D01*
X0008267Y0134959D01*
X0011614Y0136346D01*
X0015236Y0136346D01*
X0018583Y0134959D01*
X0021144Y0132398D01*
X0022531Y0129051D01*
X0022531Y0125429D01*
X0021144Y0122082D01*
X0018583Y0119521D01*
X0015236Y0118135D01*
X0011614Y0118135D01*
X0008267Y0119521D01*
X0006468Y0121320D02*
X0004200Y0121320D01*
X0004200Y0122918D02*
X0005360Y0122918D01*
X0004697Y0124517D02*
X0004200Y0124517D01*
X0004200Y0126115D02*
X0004320Y0126115D01*
X0004320Y0127714D02*
X0004200Y0127714D01*
X0004200Y0129312D02*
X0004428Y0129312D01*
X0004200Y0130911D02*
X0005090Y0130911D01*
X0005817Y0132509D02*
X0004200Y0132509D01*
X0004200Y0134108D02*
X0007416Y0134108D01*
X0010071Y0135706D02*
X0004200Y0135706D01*
X0016780Y0135706D02*
X0250071Y0135706D01*
X0251614Y0136346D02*
X0248267Y0134959D01*
X0245706Y0132398D01*
X0244320Y0129051D01*
X0244320Y0125429D01*
X0245706Y0122082D01*
X0248267Y0119521D01*
X0251614Y0118135D01*
X0255236Y0118135D01*
X0258583Y0119521D01*
X0261144Y0122082D01*
X0262531Y0125429D01*
X0262531Y0129051D01*
X0261144Y0132398D01*
X0258583Y0134959D01*
X0255236Y0136346D01*
X0251614Y0136346D01*
X0256780Y0135706D02*
X0263414Y0135706D01*
X0263414Y0134108D02*
X0259435Y0134108D01*
X0261033Y0132509D02*
X0263414Y0132509D01*
X0263414Y0130911D02*
X0261760Y0130911D01*
X0262423Y0129312D02*
X0263414Y0129312D01*
X0263414Y0127714D02*
X0262531Y0127714D01*
X0262531Y0126115D02*
X0263414Y0126115D01*
X0263414Y0124517D02*
X0262153Y0124517D01*
X0261491Y0122918D02*
X0263414Y0122918D01*
X0263414Y0121320D02*
X0260382Y0121320D01*
X0258783Y0119721D02*
X0263414Y0119721D01*
X0263414Y0118123D02*
X0101337Y0118123D01*
X0101308Y0118144D02*
X0100536Y0118537D01*
X0099713Y0118805D01*
X0098858Y0118940D01*
X0098725Y0118940D01*
X0098725Y0110040D01*
X0103925Y0110040D01*
X0103925Y0113873D01*
X0103790Y0114728D01*
X0103522Y0115551D01*
X0103129Y0116323D01*
X0102620Y0117023D01*
X0102008Y0117635D01*
X0101308Y0118144D01*
X0098725Y0118123D02*
X0098125Y0118123D01*
X0098125Y0116524D02*
X0098725Y0116524D01*
X0098725Y0114926D02*
X0098125Y0114926D01*
X0098125Y0113327D02*
X0098725Y0113327D01*
X0098725Y0111729D02*
X0098125Y0111729D01*
X0098125Y0110130D02*
X0098725Y0110130D01*
X0098725Y0108532D02*
X0098125Y0108532D01*
X0098125Y0106933D02*
X0098725Y0106933D01*
X0098725Y0105335D02*
X0098125Y0105335D01*
X0098125Y0103736D02*
X0098725Y0103736D01*
X0098725Y0102138D02*
X0098125Y0102138D01*
X0094549Y0102138D02*
X0094277Y0102138D01*
X0092682Y0100539D02*
X0263414Y0100539D01*
X0263414Y0102138D02*
X0102301Y0102138D01*
X0103424Y0103736D02*
X0263414Y0103736D01*
X0263414Y0105335D02*
X0103882Y0105335D01*
X0103925Y0106933D02*
X0263414Y0106933D01*
X0263414Y0108532D02*
X0103925Y0108532D01*
X0103925Y0110130D02*
X0263414Y0110130D01*
X0263414Y0111729D02*
X0103925Y0111729D01*
X0103925Y0113327D02*
X0263414Y0113327D01*
X0263414Y0114926D02*
X0103726Y0114926D01*
X0102983Y0116524D02*
X0263414Y0116524D01*
X0248067Y0119721D02*
X0091292Y0119721D01*
X0093501Y0118123D02*
X0095513Y0118123D01*
X0085559Y0119721D02*
X0081292Y0119721D01*
X0075559Y0119721D02*
X0018783Y0119721D01*
X0020382Y0121320D02*
X0246468Y0121320D01*
X0245360Y0122918D02*
X0021491Y0122918D01*
X0022153Y0124517D02*
X0244697Y0124517D01*
X0244320Y0126115D02*
X0022531Y0126115D01*
X0022531Y0127714D02*
X0244320Y0127714D01*
X0244428Y0129312D02*
X0022423Y0129312D01*
X0021760Y0130911D02*
X0245090Y0130911D01*
X0245817Y0132509D02*
X0021033Y0132509D01*
X0019435Y0134108D02*
X0247416Y0134108D01*
X0254271Y0086153D02*
X0254559Y0086153D01*
X0258225Y0086153D02*
X0258625Y0086153D01*
X0258625Y0084554D02*
X0258225Y0084554D01*
X0258225Y0082956D02*
X0258625Y0082956D01*
X0258625Y0082040D02*
X0258625Y0076740D01*
X0258625Y0072440D01*
X0258225Y0072440D01*
X0258225Y0082040D01*
X0258625Y0082040D01*
X0258625Y0081357D02*
X0258225Y0081357D01*
X0258225Y0079759D02*
X0258625Y0079759D01*
X0258625Y0078160D02*
X0258225Y0078160D01*
X0258225Y0076562D02*
X0258625Y0076562D01*
X0258625Y0074963D02*
X0258225Y0074963D01*
X0258225Y0073365D02*
X0258625Y0073365D01*
X0258625Y0072040D02*
X0258625Y0066740D01*
X0258625Y0062440D01*
X0258225Y0062440D01*
X0258225Y0072040D01*
X0258625Y0072040D01*
X0258625Y0071766D02*
X0258225Y0071766D01*
X0258225Y0070167D02*
X0258625Y0070167D01*
X0258625Y0068569D02*
X0258225Y0068569D01*
X0258225Y0066970D02*
X0258625Y0066970D01*
X0258625Y0065372D02*
X0258225Y0065372D01*
X0258225Y0063773D02*
X0258625Y0063773D01*
X0258625Y0062040D02*
X0258625Y0056740D01*
X0258625Y0052440D01*
X0258225Y0052440D01*
X0258225Y0062040D01*
X0258625Y0062040D01*
X0258625Y0060576D02*
X0258225Y0060576D01*
X0258225Y0058978D02*
X0258625Y0058978D01*
X0258625Y0057379D02*
X0258225Y0057379D01*
X0258225Y0055781D02*
X0258625Y0055781D01*
X0258625Y0054182D02*
X0258225Y0054182D01*
X0258225Y0052584D02*
X0258625Y0052584D01*
X0258625Y0050985D02*
X0258225Y0050985D01*
X0258225Y0049387D02*
X0258625Y0049387D01*
X0258625Y0047788D02*
X0258225Y0047788D01*
X0255099Y0047788D02*
X0253731Y0047788D01*
X0252133Y0046190D02*
X0263414Y0046190D01*
X0263414Y0047788D02*
X0261752Y0047788D01*
X0263350Y0049387D02*
X0263414Y0049387D01*
X0263414Y0044591D02*
X0067676Y0044591D01*
X0067435Y0044831D02*
X0067428Y0063759D01*
X0068191Y0064075D01*
X0069091Y0064975D01*
X0069578Y0066151D01*
X0069578Y0073329D01*
X0069091Y0074506D01*
X0068191Y0075406D01*
X0067014Y0075893D01*
X0059836Y0075893D01*
X0058660Y0075406D01*
X0057760Y0074506D01*
X0057272Y0073329D01*
X0057272Y0066151D01*
X0057760Y0064975D01*
X0058660Y0064075D01*
X0059428Y0063757D01*
X0059436Y0043962D01*
X0059435Y0043959D01*
X0059436Y0043165D01*
X0059437Y0042373D01*
X0059437Y0042371D01*
X0059437Y0042368D01*
X0059742Y0041635D01*
X0060046Y0040903D01*
X0060048Y0040901D01*
X0060049Y0040899D01*
X0060610Y0040339D01*
X0061172Y0039778D01*
X0061174Y0039777D01*
X0067272Y0033698D01*
X0067272Y0029623D01*
X0067760Y0028447D01*
X0068660Y0027547D01*
X0069836Y0027060D01*
X0077014Y0027060D01*
X0078191Y0027547D01*
X0079091Y0028447D01*
X0079578Y0029623D01*
X0079578Y0036802D01*
X0079091Y0037978D01*
X0078191Y0038878D01*
X0077014Y0039365D01*
X0072919Y0039365D01*
X0067435Y0044831D01*
X0067435Y0046190D02*
X0244717Y0046190D01*
X0243119Y0047788D02*
X0067434Y0047788D01*
X0067434Y0049387D02*
X0241525Y0049387D01*
X0241525Y0050985D02*
X0067433Y0050985D01*
X0067432Y0052584D02*
X0241525Y0052584D01*
X0241525Y0054182D02*
X0067432Y0054182D01*
X0067431Y0055781D02*
X0242208Y0055781D01*
X0243528Y0057379D02*
X0067430Y0057379D01*
X0067430Y0058978D02*
X0241929Y0058978D01*
X0241525Y0060576D02*
X0067429Y0060576D01*
X0067428Y0062175D02*
X0241525Y0062175D01*
X0241525Y0063773D02*
X0067464Y0063773D01*
X0069255Y0065372D02*
X0241799Y0065372D01*
X0243397Y0066970D02*
X0069578Y0066970D01*
X0069578Y0068569D02*
X0242338Y0068569D01*
X0241525Y0070167D02*
X0069578Y0070167D01*
X0069578Y0071766D02*
X0241525Y0071766D01*
X0241525Y0073365D02*
X0069563Y0073365D01*
X0068633Y0074963D02*
X0241525Y0074963D01*
X0263414Y0042993D02*
X0069280Y0042993D01*
X0070883Y0041394D02*
X0263414Y0041394D01*
X0263414Y0039796D02*
X0072487Y0039796D01*
X0078871Y0038197D02*
X0263414Y0038197D01*
X0263414Y0036599D02*
X0079578Y0036599D01*
X0079578Y0035000D02*
X0263414Y0035000D01*
X0263414Y0033402D02*
X0079578Y0033402D01*
X0079578Y0031803D02*
X0263414Y0031803D01*
X0263414Y0030205D02*
X0079578Y0030205D01*
X0079157Y0028606D02*
X0263414Y0028606D01*
X0263414Y0027008D02*
X0004200Y0027008D01*
X0004200Y0028606D02*
X0067694Y0028606D01*
X0067272Y0030205D02*
X0004200Y0030205D01*
X0004200Y0031803D02*
X0067272Y0031803D01*
X0067272Y0033402D02*
X0004200Y0033402D01*
X0004200Y0035000D02*
X0065966Y0035000D01*
X0064362Y0036599D02*
X0004200Y0036599D01*
X0004200Y0038197D02*
X0062759Y0038197D01*
X0061154Y0039796D02*
X0004200Y0039796D01*
X0004200Y0041394D02*
X0059842Y0041394D01*
X0059436Y0042993D02*
X0036436Y0042993D01*
X0038034Y0044591D02*
X0059436Y0044591D01*
X0059435Y0046190D02*
X0039633Y0046190D01*
X0040325Y0047788D02*
X0059434Y0047788D01*
X0059434Y0049387D02*
X0040325Y0049387D01*
X0040325Y0050985D02*
X0059433Y0050985D01*
X0059432Y0052584D02*
X0040325Y0052584D01*
X0038741Y0054182D02*
X0059432Y0054182D01*
X0059431Y0055781D02*
X0039224Y0055781D01*
X0040325Y0057379D02*
X0059430Y0057379D01*
X0059430Y0058978D02*
X0040325Y0058978D01*
X0040325Y0060576D02*
X0059429Y0060576D01*
X0059428Y0062175D02*
X0040325Y0062175D01*
X0039150Y0063773D02*
X0059387Y0063773D01*
X0057595Y0065372D02*
X0038815Y0065372D01*
X0040325Y0066970D02*
X0057272Y0066970D01*
X0057272Y0068569D02*
X0040325Y0068569D01*
X0040325Y0070167D02*
X0057272Y0070167D01*
X0057272Y0071766D02*
X0040325Y0071766D01*
X0039559Y0073365D02*
X0057287Y0073365D01*
X0058217Y0074963D02*
X0038406Y0074963D01*
X0018444Y0074963D02*
X0004200Y0074963D01*
X0004200Y0073365D02*
X0017291Y0073365D01*
X0016525Y0071766D02*
X0004200Y0071766D01*
X0004200Y0070167D02*
X0016525Y0070167D01*
X0016525Y0068569D02*
X0004200Y0068569D01*
X0004200Y0066970D02*
X0016525Y0066970D01*
X0018035Y0065372D02*
X0004200Y0065372D01*
X0004200Y0063773D02*
X0019634Y0063773D01*
X0018082Y0062175D02*
X0004200Y0062175D01*
X0004200Y0060576D02*
X0017925Y0060576D01*
X0017925Y0058978D02*
X0004200Y0058978D01*
X0004200Y0057379D02*
X0018008Y0057379D01*
X0019606Y0055781D02*
X0004200Y0055781D01*
X0004200Y0054182D02*
X0018109Y0054182D01*
X0016525Y0052584D02*
X0004200Y0052584D01*
X0004200Y0050985D02*
X0016525Y0050985D01*
X0016525Y0049387D02*
X0004200Y0049387D01*
X0004200Y0047788D02*
X0016525Y0047788D01*
X0017217Y0046190D02*
X0004200Y0046190D01*
X0004200Y0044591D02*
X0018816Y0044591D01*
X0020415Y0042993D02*
X0004200Y0042993D01*
X0026436Y0042993D02*
X0030415Y0042993D01*
X0028816Y0044591D02*
X0028034Y0044591D01*
X0004200Y0025409D02*
X0263414Y0025409D01*
X0263414Y0023811D02*
X0255321Y0023811D01*
X0255236Y0023846D02*
X0251614Y0023846D01*
X0248267Y0022459D01*
X0245706Y0019898D01*
X0244320Y0016551D01*
X0244320Y0012929D01*
X0245706Y0009582D01*
X0248267Y0007021D01*
X0251614Y0005635D01*
X0255236Y0005635D01*
X0258583Y0007021D01*
X0261144Y0009582D01*
X0262531Y0012929D01*
X0262531Y0016551D01*
X0261144Y0019898D01*
X0258583Y0022459D01*
X0255236Y0023846D01*
X0258830Y0022212D02*
X0263414Y0022212D01*
X0263414Y0020614D02*
X0260429Y0020614D01*
X0261510Y0019015D02*
X0263414Y0019015D01*
X0263414Y0017417D02*
X0262172Y0017417D01*
X0262531Y0015818D02*
X0263414Y0015818D01*
X0263414Y0014220D02*
X0262531Y0014220D01*
X0262403Y0012621D02*
X0263414Y0012621D01*
X0263414Y0011023D02*
X0261741Y0011023D01*
X0260986Y0009424D02*
X0263414Y0009424D01*
X0263414Y0007826D02*
X0259388Y0007826D01*
X0256666Y0006227D02*
X0263414Y0006227D01*
X0263414Y0004629D02*
X0004200Y0004629D01*
X0004200Y0006227D02*
X0010184Y0006227D01*
X0011614Y0005635D02*
X0008267Y0007021D01*
X0005706Y0009582D01*
X0004320Y0012929D01*
X0004320Y0016551D01*
X0005706Y0019898D01*
X0008267Y0022459D01*
X0011614Y0023846D01*
X0015236Y0023846D01*
X0018583Y0022459D01*
X0021144Y0019898D01*
X0022531Y0016551D01*
X0022531Y0012929D01*
X0021144Y0009582D01*
X0018583Y0007021D01*
X0015236Y0005635D01*
X0011614Y0005635D01*
X0007463Y0007826D02*
X0004200Y0007826D01*
X0004200Y0009424D02*
X0005864Y0009424D01*
X0005109Y0011023D02*
X0004200Y0011023D01*
X0004200Y0012621D02*
X0004447Y0012621D01*
X0004320Y0014220D02*
X0004200Y0014220D01*
X0004200Y0015818D02*
X0004320Y0015818D01*
X0004200Y0017417D02*
X0004678Y0017417D01*
X0004200Y0019015D02*
X0005340Y0019015D01*
X0006422Y0020614D02*
X0004200Y0020614D01*
X0004200Y0022212D02*
X0008020Y0022212D01*
X0011529Y0023811D02*
X0004200Y0023811D01*
X0015321Y0023811D02*
X0251529Y0023811D01*
X0248020Y0022212D02*
X0018830Y0022212D01*
X0020429Y0020614D02*
X0246422Y0020614D01*
X0245340Y0019015D02*
X0021510Y0019015D01*
X0022172Y0017417D02*
X0244678Y0017417D01*
X0244320Y0015818D02*
X0022531Y0015818D01*
X0022531Y0014220D02*
X0244320Y0014220D01*
X0244447Y0012621D02*
X0022403Y0012621D01*
X0021741Y0011023D02*
X0245109Y0011023D01*
X0245864Y0009424D02*
X0020986Y0009424D01*
X0019388Y0007826D02*
X0247463Y0007826D01*
X0250184Y0006227D02*
X0016666Y0006227D01*
X0063436Y0043170D02*
X0073425Y0033212D01*
X0063436Y0043170D02*
X0063425Y0069740D01*
X0016846Y0076562D02*
X0004200Y0076562D01*
X0004200Y0078160D02*
X0016525Y0078160D01*
X0016525Y0079759D02*
X0004200Y0079759D01*
X0004200Y0081357D02*
X0016525Y0081357D01*
X0016883Y0082956D02*
X0004200Y0082956D01*
X0004200Y0084554D02*
X0018481Y0084554D01*
X0082682Y0100539D02*
X0084168Y0100539D01*
D14*
X0088425Y0077240D03*
X0063425Y0069740D03*
X0073425Y0033212D03*
X0163386Y0063736D03*
M02*
