G75*
%MOIN*%
%OFA0B0*%
%FSLAX25Y25*%
%IPPOS*%
%LPD*%
%AMOC8*
5,1,8,0,0,1.08239X$1,22.5*
%
%ADD10C,0.00000*%
%ADD11R,0.02400X0.08100*%
%ADD12R,0.07087X0.06299*%
%ADD13R,0.07087X0.05512*%
%ADD14R,0.03937X0.05512*%
%ADD15R,0.07800X0.02200*%
%ADD16R,0.06299X0.07087*%
%ADD17R,0.05512X0.11811*%
%ADD18R,0.08661X0.05512*%
%ADD19R,0.08661X0.02362*%
%ADD20C,0.07400*%
%ADD21OC8,0.07400*%
%ADD22C,0.01600*%
%ADD23C,0.01200*%
%ADD24R,0.05906X0.05906*%
D10*
X0001000Y0001000D02*
X0001000Y0139626D01*
X0266614Y0139626D01*
X0266614Y0001000D01*
X0001000Y0001000D01*
X0007519Y0014740D02*
X0007521Y0014893D01*
X0007527Y0015047D01*
X0007537Y0015200D01*
X0007551Y0015352D01*
X0007569Y0015505D01*
X0007591Y0015656D01*
X0007616Y0015807D01*
X0007646Y0015958D01*
X0007680Y0016108D01*
X0007717Y0016256D01*
X0007758Y0016404D01*
X0007803Y0016550D01*
X0007852Y0016696D01*
X0007905Y0016840D01*
X0007961Y0016982D01*
X0008021Y0017123D01*
X0008085Y0017263D01*
X0008152Y0017401D01*
X0008223Y0017537D01*
X0008298Y0017671D01*
X0008375Y0017803D01*
X0008457Y0017933D01*
X0008541Y0018061D01*
X0008629Y0018187D01*
X0008720Y0018310D01*
X0008814Y0018431D01*
X0008912Y0018549D01*
X0009012Y0018665D01*
X0009116Y0018778D01*
X0009222Y0018889D01*
X0009331Y0018997D01*
X0009443Y0019102D01*
X0009557Y0019203D01*
X0009675Y0019302D01*
X0009794Y0019398D01*
X0009916Y0019491D01*
X0010041Y0019580D01*
X0010168Y0019667D01*
X0010297Y0019749D01*
X0010428Y0019829D01*
X0010561Y0019905D01*
X0010696Y0019978D01*
X0010833Y0020047D01*
X0010972Y0020112D01*
X0011112Y0020174D01*
X0011254Y0020232D01*
X0011397Y0020287D01*
X0011542Y0020338D01*
X0011688Y0020385D01*
X0011835Y0020428D01*
X0011983Y0020467D01*
X0012132Y0020503D01*
X0012282Y0020534D01*
X0012433Y0020562D01*
X0012584Y0020586D01*
X0012737Y0020606D01*
X0012889Y0020622D01*
X0013042Y0020634D01*
X0013195Y0020642D01*
X0013348Y0020646D01*
X0013502Y0020646D01*
X0013655Y0020642D01*
X0013808Y0020634D01*
X0013961Y0020622D01*
X0014113Y0020606D01*
X0014266Y0020586D01*
X0014417Y0020562D01*
X0014568Y0020534D01*
X0014718Y0020503D01*
X0014867Y0020467D01*
X0015015Y0020428D01*
X0015162Y0020385D01*
X0015308Y0020338D01*
X0015453Y0020287D01*
X0015596Y0020232D01*
X0015738Y0020174D01*
X0015878Y0020112D01*
X0016017Y0020047D01*
X0016154Y0019978D01*
X0016289Y0019905D01*
X0016422Y0019829D01*
X0016553Y0019749D01*
X0016682Y0019667D01*
X0016809Y0019580D01*
X0016934Y0019491D01*
X0017056Y0019398D01*
X0017175Y0019302D01*
X0017293Y0019203D01*
X0017407Y0019102D01*
X0017519Y0018997D01*
X0017628Y0018889D01*
X0017734Y0018778D01*
X0017838Y0018665D01*
X0017938Y0018549D01*
X0018036Y0018431D01*
X0018130Y0018310D01*
X0018221Y0018187D01*
X0018309Y0018061D01*
X0018393Y0017933D01*
X0018475Y0017803D01*
X0018552Y0017671D01*
X0018627Y0017537D01*
X0018698Y0017401D01*
X0018765Y0017263D01*
X0018829Y0017123D01*
X0018889Y0016982D01*
X0018945Y0016840D01*
X0018998Y0016696D01*
X0019047Y0016550D01*
X0019092Y0016404D01*
X0019133Y0016256D01*
X0019170Y0016108D01*
X0019204Y0015958D01*
X0019234Y0015807D01*
X0019259Y0015656D01*
X0019281Y0015505D01*
X0019299Y0015352D01*
X0019313Y0015200D01*
X0019323Y0015047D01*
X0019329Y0014893D01*
X0019331Y0014740D01*
X0019329Y0014587D01*
X0019323Y0014433D01*
X0019313Y0014280D01*
X0019299Y0014128D01*
X0019281Y0013975D01*
X0019259Y0013824D01*
X0019234Y0013673D01*
X0019204Y0013522D01*
X0019170Y0013372D01*
X0019133Y0013224D01*
X0019092Y0013076D01*
X0019047Y0012930D01*
X0018998Y0012784D01*
X0018945Y0012640D01*
X0018889Y0012498D01*
X0018829Y0012357D01*
X0018765Y0012217D01*
X0018698Y0012079D01*
X0018627Y0011943D01*
X0018552Y0011809D01*
X0018475Y0011677D01*
X0018393Y0011547D01*
X0018309Y0011419D01*
X0018221Y0011293D01*
X0018130Y0011170D01*
X0018036Y0011049D01*
X0017938Y0010931D01*
X0017838Y0010815D01*
X0017734Y0010702D01*
X0017628Y0010591D01*
X0017519Y0010483D01*
X0017407Y0010378D01*
X0017293Y0010277D01*
X0017175Y0010178D01*
X0017056Y0010082D01*
X0016934Y0009989D01*
X0016809Y0009900D01*
X0016682Y0009813D01*
X0016553Y0009731D01*
X0016422Y0009651D01*
X0016289Y0009575D01*
X0016154Y0009502D01*
X0016017Y0009433D01*
X0015878Y0009368D01*
X0015738Y0009306D01*
X0015596Y0009248D01*
X0015453Y0009193D01*
X0015308Y0009142D01*
X0015162Y0009095D01*
X0015015Y0009052D01*
X0014867Y0009013D01*
X0014718Y0008977D01*
X0014568Y0008946D01*
X0014417Y0008918D01*
X0014266Y0008894D01*
X0014113Y0008874D01*
X0013961Y0008858D01*
X0013808Y0008846D01*
X0013655Y0008838D01*
X0013502Y0008834D01*
X0013348Y0008834D01*
X0013195Y0008838D01*
X0013042Y0008846D01*
X0012889Y0008858D01*
X0012737Y0008874D01*
X0012584Y0008894D01*
X0012433Y0008918D01*
X0012282Y0008946D01*
X0012132Y0008977D01*
X0011983Y0009013D01*
X0011835Y0009052D01*
X0011688Y0009095D01*
X0011542Y0009142D01*
X0011397Y0009193D01*
X0011254Y0009248D01*
X0011112Y0009306D01*
X0010972Y0009368D01*
X0010833Y0009433D01*
X0010696Y0009502D01*
X0010561Y0009575D01*
X0010428Y0009651D01*
X0010297Y0009731D01*
X0010168Y0009813D01*
X0010041Y0009900D01*
X0009916Y0009989D01*
X0009794Y0010082D01*
X0009675Y0010178D01*
X0009557Y0010277D01*
X0009443Y0010378D01*
X0009331Y0010483D01*
X0009222Y0010591D01*
X0009116Y0010702D01*
X0009012Y0010815D01*
X0008912Y0010931D01*
X0008814Y0011049D01*
X0008720Y0011170D01*
X0008629Y0011293D01*
X0008541Y0011419D01*
X0008457Y0011547D01*
X0008375Y0011677D01*
X0008298Y0011809D01*
X0008223Y0011943D01*
X0008152Y0012079D01*
X0008085Y0012217D01*
X0008021Y0012357D01*
X0007961Y0012498D01*
X0007905Y0012640D01*
X0007852Y0012784D01*
X0007803Y0012930D01*
X0007758Y0013076D01*
X0007717Y0013224D01*
X0007680Y0013372D01*
X0007646Y0013522D01*
X0007616Y0013673D01*
X0007591Y0013824D01*
X0007569Y0013975D01*
X0007551Y0014128D01*
X0007537Y0014280D01*
X0007527Y0014433D01*
X0007521Y0014587D01*
X0007519Y0014740D01*
X0007519Y0127240D02*
X0007521Y0127393D01*
X0007527Y0127547D01*
X0007537Y0127700D01*
X0007551Y0127852D01*
X0007569Y0128005D01*
X0007591Y0128156D01*
X0007616Y0128307D01*
X0007646Y0128458D01*
X0007680Y0128608D01*
X0007717Y0128756D01*
X0007758Y0128904D01*
X0007803Y0129050D01*
X0007852Y0129196D01*
X0007905Y0129340D01*
X0007961Y0129482D01*
X0008021Y0129623D01*
X0008085Y0129763D01*
X0008152Y0129901D01*
X0008223Y0130037D01*
X0008298Y0130171D01*
X0008375Y0130303D01*
X0008457Y0130433D01*
X0008541Y0130561D01*
X0008629Y0130687D01*
X0008720Y0130810D01*
X0008814Y0130931D01*
X0008912Y0131049D01*
X0009012Y0131165D01*
X0009116Y0131278D01*
X0009222Y0131389D01*
X0009331Y0131497D01*
X0009443Y0131602D01*
X0009557Y0131703D01*
X0009675Y0131802D01*
X0009794Y0131898D01*
X0009916Y0131991D01*
X0010041Y0132080D01*
X0010168Y0132167D01*
X0010297Y0132249D01*
X0010428Y0132329D01*
X0010561Y0132405D01*
X0010696Y0132478D01*
X0010833Y0132547D01*
X0010972Y0132612D01*
X0011112Y0132674D01*
X0011254Y0132732D01*
X0011397Y0132787D01*
X0011542Y0132838D01*
X0011688Y0132885D01*
X0011835Y0132928D01*
X0011983Y0132967D01*
X0012132Y0133003D01*
X0012282Y0133034D01*
X0012433Y0133062D01*
X0012584Y0133086D01*
X0012737Y0133106D01*
X0012889Y0133122D01*
X0013042Y0133134D01*
X0013195Y0133142D01*
X0013348Y0133146D01*
X0013502Y0133146D01*
X0013655Y0133142D01*
X0013808Y0133134D01*
X0013961Y0133122D01*
X0014113Y0133106D01*
X0014266Y0133086D01*
X0014417Y0133062D01*
X0014568Y0133034D01*
X0014718Y0133003D01*
X0014867Y0132967D01*
X0015015Y0132928D01*
X0015162Y0132885D01*
X0015308Y0132838D01*
X0015453Y0132787D01*
X0015596Y0132732D01*
X0015738Y0132674D01*
X0015878Y0132612D01*
X0016017Y0132547D01*
X0016154Y0132478D01*
X0016289Y0132405D01*
X0016422Y0132329D01*
X0016553Y0132249D01*
X0016682Y0132167D01*
X0016809Y0132080D01*
X0016934Y0131991D01*
X0017056Y0131898D01*
X0017175Y0131802D01*
X0017293Y0131703D01*
X0017407Y0131602D01*
X0017519Y0131497D01*
X0017628Y0131389D01*
X0017734Y0131278D01*
X0017838Y0131165D01*
X0017938Y0131049D01*
X0018036Y0130931D01*
X0018130Y0130810D01*
X0018221Y0130687D01*
X0018309Y0130561D01*
X0018393Y0130433D01*
X0018475Y0130303D01*
X0018552Y0130171D01*
X0018627Y0130037D01*
X0018698Y0129901D01*
X0018765Y0129763D01*
X0018829Y0129623D01*
X0018889Y0129482D01*
X0018945Y0129340D01*
X0018998Y0129196D01*
X0019047Y0129050D01*
X0019092Y0128904D01*
X0019133Y0128756D01*
X0019170Y0128608D01*
X0019204Y0128458D01*
X0019234Y0128307D01*
X0019259Y0128156D01*
X0019281Y0128005D01*
X0019299Y0127852D01*
X0019313Y0127700D01*
X0019323Y0127547D01*
X0019329Y0127393D01*
X0019331Y0127240D01*
X0019329Y0127087D01*
X0019323Y0126933D01*
X0019313Y0126780D01*
X0019299Y0126628D01*
X0019281Y0126475D01*
X0019259Y0126324D01*
X0019234Y0126173D01*
X0019204Y0126022D01*
X0019170Y0125872D01*
X0019133Y0125724D01*
X0019092Y0125576D01*
X0019047Y0125430D01*
X0018998Y0125284D01*
X0018945Y0125140D01*
X0018889Y0124998D01*
X0018829Y0124857D01*
X0018765Y0124717D01*
X0018698Y0124579D01*
X0018627Y0124443D01*
X0018552Y0124309D01*
X0018475Y0124177D01*
X0018393Y0124047D01*
X0018309Y0123919D01*
X0018221Y0123793D01*
X0018130Y0123670D01*
X0018036Y0123549D01*
X0017938Y0123431D01*
X0017838Y0123315D01*
X0017734Y0123202D01*
X0017628Y0123091D01*
X0017519Y0122983D01*
X0017407Y0122878D01*
X0017293Y0122777D01*
X0017175Y0122678D01*
X0017056Y0122582D01*
X0016934Y0122489D01*
X0016809Y0122400D01*
X0016682Y0122313D01*
X0016553Y0122231D01*
X0016422Y0122151D01*
X0016289Y0122075D01*
X0016154Y0122002D01*
X0016017Y0121933D01*
X0015878Y0121868D01*
X0015738Y0121806D01*
X0015596Y0121748D01*
X0015453Y0121693D01*
X0015308Y0121642D01*
X0015162Y0121595D01*
X0015015Y0121552D01*
X0014867Y0121513D01*
X0014718Y0121477D01*
X0014568Y0121446D01*
X0014417Y0121418D01*
X0014266Y0121394D01*
X0014113Y0121374D01*
X0013961Y0121358D01*
X0013808Y0121346D01*
X0013655Y0121338D01*
X0013502Y0121334D01*
X0013348Y0121334D01*
X0013195Y0121338D01*
X0013042Y0121346D01*
X0012889Y0121358D01*
X0012737Y0121374D01*
X0012584Y0121394D01*
X0012433Y0121418D01*
X0012282Y0121446D01*
X0012132Y0121477D01*
X0011983Y0121513D01*
X0011835Y0121552D01*
X0011688Y0121595D01*
X0011542Y0121642D01*
X0011397Y0121693D01*
X0011254Y0121748D01*
X0011112Y0121806D01*
X0010972Y0121868D01*
X0010833Y0121933D01*
X0010696Y0122002D01*
X0010561Y0122075D01*
X0010428Y0122151D01*
X0010297Y0122231D01*
X0010168Y0122313D01*
X0010041Y0122400D01*
X0009916Y0122489D01*
X0009794Y0122582D01*
X0009675Y0122678D01*
X0009557Y0122777D01*
X0009443Y0122878D01*
X0009331Y0122983D01*
X0009222Y0123091D01*
X0009116Y0123202D01*
X0009012Y0123315D01*
X0008912Y0123431D01*
X0008814Y0123549D01*
X0008720Y0123670D01*
X0008629Y0123793D01*
X0008541Y0123919D01*
X0008457Y0124047D01*
X0008375Y0124177D01*
X0008298Y0124309D01*
X0008223Y0124443D01*
X0008152Y0124579D01*
X0008085Y0124717D01*
X0008021Y0124857D01*
X0007961Y0124998D01*
X0007905Y0125140D01*
X0007852Y0125284D01*
X0007803Y0125430D01*
X0007758Y0125576D01*
X0007717Y0125724D01*
X0007680Y0125872D01*
X0007646Y0126022D01*
X0007616Y0126173D01*
X0007591Y0126324D01*
X0007569Y0126475D01*
X0007551Y0126628D01*
X0007537Y0126780D01*
X0007527Y0126933D01*
X0007521Y0127087D01*
X0007519Y0127240D01*
X0247519Y0127240D02*
X0247521Y0127393D01*
X0247527Y0127547D01*
X0247537Y0127700D01*
X0247551Y0127852D01*
X0247569Y0128005D01*
X0247591Y0128156D01*
X0247616Y0128307D01*
X0247646Y0128458D01*
X0247680Y0128608D01*
X0247717Y0128756D01*
X0247758Y0128904D01*
X0247803Y0129050D01*
X0247852Y0129196D01*
X0247905Y0129340D01*
X0247961Y0129482D01*
X0248021Y0129623D01*
X0248085Y0129763D01*
X0248152Y0129901D01*
X0248223Y0130037D01*
X0248298Y0130171D01*
X0248375Y0130303D01*
X0248457Y0130433D01*
X0248541Y0130561D01*
X0248629Y0130687D01*
X0248720Y0130810D01*
X0248814Y0130931D01*
X0248912Y0131049D01*
X0249012Y0131165D01*
X0249116Y0131278D01*
X0249222Y0131389D01*
X0249331Y0131497D01*
X0249443Y0131602D01*
X0249557Y0131703D01*
X0249675Y0131802D01*
X0249794Y0131898D01*
X0249916Y0131991D01*
X0250041Y0132080D01*
X0250168Y0132167D01*
X0250297Y0132249D01*
X0250428Y0132329D01*
X0250561Y0132405D01*
X0250696Y0132478D01*
X0250833Y0132547D01*
X0250972Y0132612D01*
X0251112Y0132674D01*
X0251254Y0132732D01*
X0251397Y0132787D01*
X0251542Y0132838D01*
X0251688Y0132885D01*
X0251835Y0132928D01*
X0251983Y0132967D01*
X0252132Y0133003D01*
X0252282Y0133034D01*
X0252433Y0133062D01*
X0252584Y0133086D01*
X0252737Y0133106D01*
X0252889Y0133122D01*
X0253042Y0133134D01*
X0253195Y0133142D01*
X0253348Y0133146D01*
X0253502Y0133146D01*
X0253655Y0133142D01*
X0253808Y0133134D01*
X0253961Y0133122D01*
X0254113Y0133106D01*
X0254266Y0133086D01*
X0254417Y0133062D01*
X0254568Y0133034D01*
X0254718Y0133003D01*
X0254867Y0132967D01*
X0255015Y0132928D01*
X0255162Y0132885D01*
X0255308Y0132838D01*
X0255453Y0132787D01*
X0255596Y0132732D01*
X0255738Y0132674D01*
X0255878Y0132612D01*
X0256017Y0132547D01*
X0256154Y0132478D01*
X0256289Y0132405D01*
X0256422Y0132329D01*
X0256553Y0132249D01*
X0256682Y0132167D01*
X0256809Y0132080D01*
X0256934Y0131991D01*
X0257056Y0131898D01*
X0257175Y0131802D01*
X0257293Y0131703D01*
X0257407Y0131602D01*
X0257519Y0131497D01*
X0257628Y0131389D01*
X0257734Y0131278D01*
X0257838Y0131165D01*
X0257938Y0131049D01*
X0258036Y0130931D01*
X0258130Y0130810D01*
X0258221Y0130687D01*
X0258309Y0130561D01*
X0258393Y0130433D01*
X0258475Y0130303D01*
X0258552Y0130171D01*
X0258627Y0130037D01*
X0258698Y0129901D01*
X0258765Y0129763D01*
X0258829Y0129623D01*
X0258889Y0129482D01*
X0258945Y0129340D01*
X0258998Y0129196D01*
X0259047Y0129050D01*
X0259092Y0128904D01*
X0259133Y0128756D01*
X0259170Y0128608D01*
X0259204Y0128458D01*
X0259234Y0128307D01*
X0259259Y0128156D01*
X0259281Y0128005D01*
X0259299Y0127852D01*
X0259313Y0127700D01*
X0259323Y0127547D01*
X0259329Y0127393D01*
X0259331Y0127240D01*
X0259329Y0127087D01*
X0259323Y0126933D01*
X0259313Y0126780D01*
X0259299Y0126628D01*
X0259281Y0126475D01*
X0259259Y0126324D01*
X0259234Y0126173D01*
X0259204Y0126022D01*
X0259170Y0125872D01*
X0259133Y0125724D01*
X0259092Y0125576D01*
X0259047Y0125430D01*
X0258998Y0125284D01*
X0258945Y0125140D01*
X0258889Y0124998D01*
X0258829Y0124857D01*
X0258765Y0124717D01*
X0258698Y0124579D01*
X0258627Y0124443D01*
X0258552Y0124309D01*
X0258475Y0124177D01*
X0258393Y0124047D01*
X0258309Y0123919D01*
X0258221Y0123793D01*
X0258130Y0123670D01*
X0258036Y0123549D01*
X0257938Y0123431D01*
X0257838Y0123315D01*
X0257734Y0123202D01*
X0257628Y0123091D01*
X0257519Y0122983D01*
X0257407Y0122878D01*
X0257293Y0122777D01*
X0257175Y0122678D01*
X0257056Y0122582D01*
X0256934Y0122489D01*
X0256809Y0122400D01*
X0256682Y0122313D01*
X0256553Y0122231D01*
X0256422Y0122151D01*
X0256289Y0122075D01*
X0256154Y0122002D01*
X0256017Y0121933D01*
X0255878Y0121868D01*
X0255738Y0121806D01*
X0255596Y0121748D01*
X0255453Y0121693D01*
X0255308Y0121642D01*
X0255162Y0121595D01*
X0255015Y0121552D01*
X0254867Y0121513D01*
X0254718Y0121477D01*
X0254568Y0121446D01*
X0254417Y0121418D01*
X0254266Y0121394D01*
X0254113Y0121374D01*
X0253961Y0121358D01*
X0253808Y0121346D01*
X0253655Y0121338D01*
X0253502Y0121334D01*
X0253348Y0121334D01*
X0253195Y0121338D01*
X0253042Y0121346D01*
X0252889Y0121358D01*
X0252737Y0121374D01*
X0252584Y0121394D01*
X0252433Y0121418D01*
X0252282Y0121446D01*
X0252132Y0121477D01*
X0251983Y0121513D01*
X0251835Y0121552D01*
X0251688Y0121595D01*
X0251542Y0121642D01*
X0251397Y0121693D01*
X0251254Y0121748D01*
X0251112Y0121806D01*
X0250972Y0121868D01*
X0250833Y0121933D01*
X0250696Y0122002D01*
X0250561Y0122075D01*
X0250428Y0122151D01*
X0250297Y0122231D01*
X0250168Y0122313D01*
X0250041Y0122400D01*
X0249916Y0122489D01*
X0249794Y0122582D01*
X0249675Y0122678D01*
X0249557Y0122777D01*
X0249443Y0122878D01*
X0249331Y0122983D01*
X0249222Y0123091D01*
X0249116Y0123202D01*
X0249012Y0123315D01*
X0248912Y0123431D01*
X0248814Y0123549D01*
X0248720Y0123670D01*
X0248629Y0123793D01*
X0248541Y0123919D01*
X0248457Y0124047D01*
X0248375Y0124177D01*
X0248298Y0124309D01*
X0248223Y0124443D01*
X0248152Y0124579D01*
X0248085Y0124717D01*
X0248021Y0124857D01*
X0247961Y0124998D01*
X0247905Y0125140D01*
X0247852Y0125284D01*
X0247803Y0125430D01*
X0247758Y0125576D01*
X0247717Y0125724D01*
X0247680Y0125872D01*
X0247646Y0126022D01*
X0247616Y0126173D01*
X0247591Y0126324D01*
X0247569Y0126475D01*
X0247551Y0126628D01*
X0247537Y0126780D01*
X0247527Y0126933D01*
X0247521Y0127087D01*
X0247519Y0127240D01*
X0247519Y0014740D02*
X0247521Y0014893D01*
X0247527Y0015047D01*
X0247537Y0015200D01*
X0247551Y0015352D01*
X0247569Y0015505D01*
X0247591Y0015656D01*
X0247616Y0015807D01*
X0247646Y0015958D01*
X0247680Y0016108D01*
X0247717Y0016256D01*
X0247758Y0016404D01*
X0247803Y0016550D01*
X0247852Y0016696D01*
X0247905Y0016840D01*
X0247961Y0016982D01*
X0248021Y0017123D01*
X0248085Y0017263D01*
X0248152Y0017401D01*
X0248223Y0017537D01*
X0248298Y0017671D01*
X0248375Y0017803D01*
X0248457Y0017933D01*
X0248541Y0018061D01*
X0248629Y0018187D01*
X0248720Y0018310D01*
X0248814Y0018431D01*
X0248912Y0018549D01*
X0249012Y0018665D01*
X0249116Y0018778D01*
X0249222Y0018889D01*
X0249331Y0018997D01*
X0249443Y0019102D01*
X0249557Y0019203D01*
X0249675Y0019302D01*
X0249794Y0019398D01*
X0249916Y0019491D01*
X0250041Y0019580D01*
X0250168Y0019667D01*
X0250297Y0019749D01*
X0250428Y0019829D01*
X0250561Y0019905D01*
X0250696Y0019978D01*
X0250833Y0020047D01*
X0250972Y0020112D01*
X0251112Y0020174D01*
X0251254Y0020232D01*
X0251397Y0020287D01*
X0251542Y0020338D01*
X0251688Y0020385D01*
X0251835Y0020428D01*
X0251983Y0020467D01*
X0252132Y0020503D01*
X0252282Y0020534D01*
X0252433Y0020562D01*
X0252584Y0020586D01*
X0252737Y0020606D01*
X0252889Y0020622D01*
X0253042Y0020634D01*
X0253195Y0020642D01*
X0253348Y0020646D01*
X0253502Y0020646D01*
X0253655Y0020642D01*
X0253808Y0020634D01*
X0253961Y0020622D01*
X0254113Y0020606D01*
X0254266Y0020586D01*
X0254417Y0020562D01*
X0254568Y0020534D01*
X0254718Y0020503D01*
X0254867Y0020467D01*
X0255015Y0020428D01*
X0255162Y0020385D01*
X0255308Y0020338D01*
X0255453Y0020287D01*
X0255596Y0020232D01*
X0255738Y0020174D01*
X0255878Y0020112D01*
X0256017Y0020047D01*
X0256154Y0019978D01*
X0256289Y0019905D01*
X0256422Y0019829D01*
X0256553Y0019749D01*
X0256682Y0019667D01*
X0256809Y0019580D01*
X0256934Y0019491D01*
X0257056Y0019398D01*
X0257175Y0019302D01*
X0257293Y0019203D01*
X0257407Y0019102D01*
X0257519Y0018997D01*
X0257628Y0018889D01*
X0257734Y0018778D01*
X0257838Y0018665D01*
X0257938Y0018549D01*
X0258036Y0018431D01*
X0258130Y0018310D01*
X0258221Y0018187D01*
X0258309Y0018061D01*
X0258393Y0017933D01*
X0258475Y0017803D01*
X0258552Y0017671D01*
X0258627Y0017537D01*
X0258698Y0017401D01*
X0258765Y0017263D01*
X0258829Y0017123D01*
X0258889Y0016982D01*
X0258945Y0016840D01*
X0258998Y0016696D01*
X0259047Y0016550D01*
X0259092Y0016404D01*
X0259133Y0016256D01*
X0259170Y0016108D01*
X0259204Y0015958D01*
X0259234Y0015807D01*
X0259259Y0015656D01*
X0259281Y0015505D01*
X0259299Y0015352D01*
X0259313Y0015200D01*
X0259323Y0015047D01*
X0259329Y0014893D01*
X0259331Y0014740D01*
X0259329Y0014587D01*
X0259323Y0014433D01*
X0259313Y0014280D01*
X0259299Y0014128D01*
X0259281Y0013975D01*
X0259259Y0013824D01*
X0259234Y0013673D01*
X0259204Y0013522D01*
X0259170Y0013372D01*
X0259133Y0013224D01*
X0259092Y0013076D01*
X0259047Y0012930D01*
X0258998Y0012784D01*
X0258945Y0012640D01*
X0258889Y0012498D01*
X0258829Y0012357D01*
X0258765Y0012217D01*
X0258698Y0012079D01*
X0258627Y0011943D01*
X0258552Y0011809D01*
X0258475Y0011677D01*
X0258393Y0011547D01*
X0258309Y0011419D01*
X0258221Y0011293D01*
X0258130Y0011170D01*
X0258036Y0011049D01*
X0257938Y0010931D01*
X0257838Y0010815D01*
X0257734Y0010702D01*
X0257628Y0010591D01*
X0257519Y0010483D01*
X0257407Y0010378D01*
X0257293Y0010277D01*
X0257175Y0010178D01*
X0257056Y0010082D01*
X0256934Y0009989D01*
X0256809Y0009900D01*
X0256682Y0009813D01*
X0256553Y0009731D01*
X0256422Y0009651D01*
X0256289Y0009575D01*
X0256154Y0009502D01*
X0256017Y0009433D01*
X0255878Y0009368D01*
X0255738Y0009306D01*
X0255596Y0009248D01*
X0255453Y0009193D01*
X0255308Y0009142D01*
X0255162Y0009095D01*
X0255015Y0009052D01*
X0254867Y0009013D01*
X0254718Y0008977D01*
X0254568Y0008946D01*
X0254417Y0008918D01*
X0254266Y0008894D01*
X0254113Y0008874D01*
X0253961Y0008858D01*
X0253808Y0008846D01*
X0253655Y0008838D01*
X0253502Y0008834D01*
X0253348Y0008834D01*
X0253195Y0008838D01*
X0253042Y0008846D01*
X0252889Y0008858D01*
X0252737Y0008874D01*
X0252584Y0008894D01*
X0252433Y0008918D01*
X0252282Y0008946D01*
X0252132Y0008977D01*
X0251983Y0009013D01*
X0251835Y0009052D01*
X0251688Y0009095D01*
X0251542Y0009142D01*
X0251397Y0009193D01*
X0251254Y0009248D01*
X0251112Y0009306D01*
X0250972Y0009368D01*
X0250833Y0009433D01*
X0250696Y0009502D01*
X0250561Y0009575D01*
X0250428Y0009651D01*
X0250297Y0009731D01*
X0250168Y0009813D01*
X0250041Y0009900D01*
X0249916Y0009989D01*
X0249794Y0010082D01*
X0249675Y0010178D01*
X0249557Y0010277D01*
X0249443Y0010378D01*
X0249331Y0010483D01*
X0249222Y0010591D01*
X0249116Y0010702D01*
X0249012Y0010815D01*
X0248912Y0010931D01*
X0248814Y0011049D01*
X0248720Y0011170D01*
X0248629Y0011293D01*
X0248541Y0011419D01*
X0248457Y0011547D01*
X0248375Y0011677D01*
X0248298Y0011809D01*
X0248223Y0011943D01*
X0248152Y0012079D01*
X0248085Y0012217D01*
X0248021Y0012357D01*
X0247961Y0012498D01*
X0247905Y0012640D01*
X0247852Y0012784D01*
X0247803Y0012930D01*
X0247758Y0013076D01*
X0247717Y0013224D01*
X0247680Y0013372D01*
X0247646Y0013522D01*
X0247616Y0013673D01*
X0247591Y0013824D01*
X0247569Y0013975D01*
X0247551Y0014128D01*
X0247537Y0014280D01*
X0247527Y0014433D01*
X0247521Y0014587D01*
X0247519Y0014740D01*
D11*
X0088425Y0042240D03*
X0083425Y0042240D03*
X0078425Y0042240D03*
X0073425Y0042240D03*
X0068425Y0042240D03*
X0063425Y0042240D03*
X0058425Y0042240D03*
X0053425Y0042240D03*
X0053425Y0061140D03*
X0058425Y0061140D03*
X0063425Y0061140D03*
X0068425Y0061140D03*
X0073425Y0061140D03*
X0078425Y0061140D03*
X0083425Y0061140D03*
X0088425Y0061140D03*
D12*
X0100925Y0056728D03*
X0118425Y0056728D03*
X0128425Y0056728D03*
X0143425Y0056728D03*
X0143425Y0067752D03*
X0128425Y0067752D03*
X0118425Y0067752D03*
X0100925Y0067752D03*
X0100925Y0079228D03*
X0110925Y0079228D03*
X0130925Y0079228D03*
X0130925Y0090252D03*
X0120925Y0091728D03*
X0110925Y0090252D03*
X0100925Y0090252D03*
X0120925Y0102752D03*
X0185925Y0095252D03*
X0195925Y0100252D03*
X0195925Y0089228D03*
X0185925Y0084228D03*
X0110925Y0045252D03*
X0110925Y0034228D03*
X0093425Y0025252D03*
X0083425Y0025252D03*
X0073425Y0025252D03*
X0063425Y0025252D03*
X0053425Y0025252D03*
X0053425Y0014228D03*
X0063425Y0014228D03*
X0073425Y0014228D03*
X0083425Y0014228D03*
X0093425Y0014228D03*
X0128425Y0014228D03*
X0128425Y0025252D03*
D13*
X0100925Y0033047D03*
X0100925Y0046433D03*
D14*
X0119685Y0035409D03*
X0127165Y0035409D03*
X0123425Y0044071D03*
D15*
X0176225Y0062240D03*
X0176225Y0067240D03*
X0176225Y0072240D03*
X0176225Y0077240D03*
X0195625Y0077240D03*
X0195625Y0072240D03*
X0195625Y0067240D03*
X0195625Y0062240D03*
D16*
X0205413Y0064740D03*
X0216437Y0064740D03*
X0216437Y0074740D03*
X0205413Y0074740D03*
X0166437Y0077240D03*
X0155413Y0077240D03*
X0205413Y0054740D03*
X0216437Y0054740D03*
X0191437Y0049740D03*
X0180413Y0049740D03*
X0184779Y0111572D03*
X0195802Y0111572D03*
D17*
X0215925Y0106689D03*
X0215925Y0087791D03*
X0153425Y0036689D03*
X0153425Y0017791D03*
D18*
X0064724Y0109740D03*
X0052126Y0109740D03*
X0155594Y0116643D03*
X0168192Y0116643D03*
D19*
X0172461Y0104386D03*
X0172461Y0099386D03*
X0172461Y0094386D03*
X0172461Y0089386D03*
X0151988Y0089386D03*
X0151988Y0094386D03*
X0151988Y0099386D03*
X0151988Y0104386D03*
D20*
X0098425Y0106040D02*
X0098425Y0113440D01*
X0088425Y0113440D02*
X0088425Y0106040D01*
X0078425Y0106040D02*
X0078425Y0113440D01*
D21*
X0033425Y0079740D03*
X0023425Y0079740D03*
X0023425Y0069740D03*
X0033425Y0069740D03*
X0033425Y0059740D03*
X0023425Y0059740D03*
X0023425Y0049740D03*
X0033425Y0049740D03*
X0248425Y0052240D03*
X0258425Y0052240D03*
X0258425Y0062240D03*
X0248425Y0062240D03*
X0248425Y0072240D03*
X0258425Y0072240D03*
X0258425Y0082240D03*
X0248425Y0082240D03*
D22*
X0254271Y0086153D02*
X0254559Y0086153D01*
X0254415Y0086008D02*
X0251283Y0089140D01*
X0246899Y0089140D01*
X0245027Y0091013D01*
X0243630Y0091591D01*
X0221881Y0091591D01*
X0221881Y0094333D01*
X0221394Y0095510D01*
X0220494Y0096410D01*
X0219318Y0096897D01*
X0213739Y0096897D01*
X0214425Y0097583D01*
X0219318Y0097583D01*
X0220494Y0098071D01*
X0221394Y0098971D01*
X0221881Y0100147D01*
X0221881Y0113231D01*
X0221394Y0114407D01*
X0220494Y0115307D01*
X0219318Y0115794D01*
X0212533Y0115794D01*
X0211357Y0115307D01*
X0210456Y0114407D01*
X0209969Y0113231D01*
X0209969Y0104441D01*
X0202668Y0097140D01*
X0202668Y0104038D01*
X0202181Y0105214D01*
X0201422Y0105973D01*
X0201665Y0106216D01*
X0202152Y0107392D01*
X0202152Y0115752D01*
X0201665Y0116928D01*
X0200765Y0117828D01*
X0199589Y0118315D01*
X0192016Y0118315D01*
X0190840Y0117828D01*
X0189940Y0116928D01*
X0189531Y0115940D01*
X0189369Y0116220D01*
X0189034Y0116555D01*
X0188623Y0116792D01*
X0188165Y0116915D01*
X0185554Y0116915D01*
X0185554Y0112347D01*
X0184004Y0112347D01*
X0184004Y0116915D01*
X0181392Y0116915D01*
X0180934Y0116792D01*
X0180524Y0116555D01*
X0180189Y0116220D01*
X0179952Y0115810D01*
X0179829Y0115352D01*
X0179829Y0112347D01*
X0184004Y0112347D01*
X0184004Y0110797D01*
X0185554Y0110797D01*
X0185554Y0106229D01*
X0188165Y0106229D01*
X0188623Y0106351D01*
X0189034Y0106588D01*
X0189369Y0106923D01*
X0189531Y0107204D01*
X0189940Y0106216D01*
X0190305Y0105851D01*
X0189669Y0105214D01*
X0189182Y0104038D01*
X0189182Y0100202D01*
X0186700Y0100202D01*
X0186700Y0096027D01*
X0185150Y0096027D01*
X0185150Y0094477D01*
X0180582Y0094477D01*
X0180582Y0093386D01*
X0179991Y0093386D01*
X0179991Y0096203D01*
X0179709Y0096886D01*
X0179991Y0097568D01*
X0179991Y0101203D01*
X0179709Y0101886D01*
X0179991Y0102568D01*
X0179991Y0106203D01*
X0179504Y0107380D01*
X0178604Y0108280D01*
X0177428Y0108767D01*
X0176461Y0108767D01*
X0176461Y0113171D01*
X0175852Y0114641D01*
X0175723Y0114769D01*
X0175723Y0120036D01*
X0175236Y0121212D01*
X0174336Y0122112D01*
X0173160Y0122599D01*
X0163225Y0122599D01*
X0162049Y0122112D01*
X0161893Y0121956D01*
X0161737Y0122112D01*
X0160561Y0122599D01*
X0150627Y0122599D01*
X0149451Y0122112D01*
X0148550Y0121212D01*
X0148063Y0120036D01*
X0148063Y0114014D01*
X0147988Y0113833D01*
X0147988Y0108767D01*
X0147021Y0108767D01*
X0145845Y0108280D01*
X0144945Y0107380D01*
X0144457Y0106203D01*
X0144457Y0102568D01*
X0144945Y0101392D01*
X0145845Y0100492D01*
X0145857Y0100487D01*
X0145857Y0100209D01*
X0145435Y0100631D01*
X0143965Y0101240D01*
X0126268Y0101240D01*
X0126268Y0101977D01*
X0121700Y0101977D01*
X0121700Y0103527D01*
X0120150Y0103527D01*
X0120150Y0101977D01*
X0115582Y0101977D01*
X0115582Y0101240D01*
X0105476Y0101240D01*
X0103274Y0103442D01*
X0103522Y0103929D01*
X0103790Y0104752D01*
X0103925Y0105607D01*
X0103925Y0109440D01*
X0098725Y0109440D01*
X0098725Y0110040D01*
X0098125Y0110040D01*
X0098125Y0118940D01*
X0097992Y0118940D01*
X0097137Y0118805D01*
X0096314Y0118537D01*
X0095543Y0118144D01*
X0094842Y0117635D01*
X0094357Y0117150D01*
X0094275Y0117349D01*
X0092334Y0119290D01*
X0089798Y0120340D01*
X0087053Y0120340D01*
X0084517Y0119290D01*
X0083425Y0118198D01*
X0082334Y0119290D01*
X0079798Y0120340D01*
X0077053Y0120340D01*
X0074517Y0119290D01*
X0072576Y0117349D01*
X0071525Y0114813D01*
X0071525Y0114551D01*
X0070868Y0115209D01*
X0069692Y0115696D01*
X0059757Y0115696D01*
X0058581Y0115209D01*
X0058425Y0115053D01*
X0058269Y0115209D01*
X0057093Y0115696D01*
X0047159Y0115696D01*
X0045983Y0115209D01*
X0045082Y0114309D01*
X0044847Y0113740D01*
X0037630Y0113740D01*
X0036159Y0113131D01*
X0035034Y0112006D01*
X0010034Y0087006D01*
X0009425Y0085536D01*
X0009425Y0073945D01*
X0010034Y0072474D01*
X0011159Y0071349D01*
X0016159Y0066349D01*
X0017630Y0065740D01*
X0017667Y0065740D01*
X0019657Y0063750D01*
X0017925Y0062018D01*
X0017925Y0059940D01*
X0023225Y0059940D01*
X0023225Y0059540D01*
X0017925Y0059540D01*
X0017925Y0057462D01*
X0019657Y0055730D01*
X0016525Y0052598D01*
X0016525Y0046882D01*
X0020567Y0042840D01*
X0024668Y0042840D01*
X0028659Y0038849D01*
X0030130Y0038240D01*
X0049025Y0038240D01*
X0049025Y0037554D01*
X0049512Y0036378D01*
X0050413Y0035477D01*
X0051589Y0034990D01*
X0053018Y0034990D01*
X0050034Y0032006D01*
X0049867Y0031602D01*
X0049245Y0031602D01*
X0048069Y0031114D01*
X0047169Y0030214D01*
X0046682Y0029038D01*
X0046682Y0021466D01*
X0047169Y0020290D01*
X0047719Y0019740D01*
X0047169Y0019191D01*
X0046682Y0018014D01*
X0046682Y0010442D01*
X0047169Y0009266D01*
X0048069Y0008366D01*
X0049245Y0007879D01*
X0057605Y0007879D01*
X0058425Y0008218D01*
X0059245Y0007879D01*
X0067605Y0007879D01*
X0068425Y0008218D01*
X0069245Y0007879D01*
X0077605Y0007879D01*
X0078425Y0008218D01*
X0079245Y0007879D01*
X0087605Y0007879D01*
X0088425Y0008218D01*
X0089245Y0007879D01*
X0097605Y0007879D01*
X0098781Y0008366D01*
X0099681Y0009266D01*
X0100080Y0010228D01*
X0103709Y0010228D01*
X0105179Y0010837D01*
X0106304Y0011963D01*
X0113191Y0018849D01*
X0114316Y0019974D01*
X0114925Y0021445D01*
X0114925Y0027879D01*
X0115105Y0027879D01*
X0116281Y0028366D01*
X0117181Y0029266D01*
X0117259Y0029454D01*
X0121854Y0029454D01*
X0121682Y0029038D01*
X0121682Y0021466D01*
X0122169Y0020290D01*
X0123069Y0019390D01*
X0124057Y0018980D01*
X0123777Y0018818D01*
X0123442Y0018483D01*
X0123205Y0018073D01*
X0123082Y0017615D01*
X0123082Y0015003D01*
X0127650Y0015003D01*
X0127650Y0013454D01*
X0123082Y0013454D01*
X0123082Y0010842D01*
X0123205Y0010384D01*
X0123442Y0009974D01*
X0123777Y0009638D01*
X0124187Y0009401D01*
X0124645Y0009279D01*
X0127650Y0009279D01*
X0127650Y0013453D01*
X0129200Y0013453D01*
X0129200Y0009279D01*
X0132205Y0009279D01*
X0132663Y0009401D01*
X0133074Y0009638D01*
X0133409Y0009974D01*
X0133646Y0010384D01*
X0133768Y0010842D01*
X0133768Y0013454D01*
X0129200Y0013454D01*
X0129200Y0015003D01*
X0133768Y0015003D01*
X0133768Y0017615D01*
X0133646Y0018073D01*
X0133409Y0018483D01*
X0133074Y0018818D01*
X0132793Y0018980D01*
X0133781Y0019390D01*
X0134681Y0020290D01*
X0135168Y0021466D01*
X0135168Y0029038D01*
X0134681Y0030214D01*
X0133781Y0031114D01*
X0132605Y0031602D01*
X0132162Y0031602D01*
X0132334Y0032017D01*
X0132334Y0033402D01*
X0147469Y0033402D01*
X0147469Y0035000D02*
X0132346Y0035000D01*
X0132346Y0033433D02*
X0132346Y0046377D01*
X0132351Y0046388D01*
X0132346Y0047173D01*
X0132346Y0047957D01*
X0132342Y0047968D01*
X0132329Y0050379D01*
X0132367Y0050379D01*
X0132534Y0049974D01*
X0135034Y0047474D01*
X0135415Y0047093D01*
X0136159Y0046349D01*
X0136159Y0046349D01*
X0136159Y0046349D01*
X0136817Y0046077D01*
X0137630Y0045740D01*
X0138208Y0045740D01*
X0139221Y0045740D01*
X0149385Y0045740D01*
X0149386Y0045527D01*
X0148857Y0045307D01*
X0147956Y0044407D01*
X0147469Y0043231D01*
X0147469Y0030147D01*
X0147956Y0028971D01*
X0148857Y0028071D01*
X0150033Y0027583D01*
X0156818Y0027583D01*
X0157994Y0028071D01*
X0158894Y0028971D01*
X0159381Y0030147D01*
X0159381Y0043231D01*
X0158894Y0044407D01*
X0157994Y0045307D01*
X0157386Y0045559D01*
X0157385Y0045742D01*
X0174064Y0045741D01*
X0174064Y0045560D01*
X0174551Y0044384D01*
X0175451Y0043484D01*
X0176627Y0042997D01*
X0184200Y0042997D01*
X0185376Y0043484D01*
X0186276Y0044384D01*
X0186685Y0045372D01*
X0186847Y0045092D01*
X0187182Y0044756D01*
X0187593Y0044520D01*
X0188050Y0044397D01*
X0190662Y0044397D01*
X0190662Y0048965D01*
X0192212Y0048965D01*
X0192212Y0044397D01*
X0194824Y0044397D01*
X0195281Y0044520D01*
X0195692Y0044756D01*
X0196027Y0045092D01*
X0196264Y0045502D01*
X0196387Y0045960D01*
X0196387Y0048965D01*
X0192212Y0048965D01*
X0192212Y0050515D01*
X0196387Y0050515D01*
X0196387Y0053520D01*
X0196264Y0053978D01*
X0196027Y0054389D01*
X0195692Y0054724D01*
X0195281Y0054961D01*
X0194824Y0055083D01*
X0192212Y0055083D01*
X0192212Y0050515D01*
X0190662Y0050515D01*
X0190662Y0055083D01*
X0189925Y0055083D01*
X0189925Y0058422D01*
X0191089Y0057940D01*
X0194851Y0057940D01*
X0199064Y0053728D01*
X0199064Y0050560D01*
X0199551Y0049384D01*
X0200451Y0048484D01*
X0201627Y0047997D01*
X0209200Y0047997D01*
X0210376Y0048484D01*
X0210925Y0049034D01*
X0211475Y0048484D01*
X0212651Y0047997D01*
X0220223Y0047997D01*
X0221399Y0048484D01*
X0222299Y0049384D01*
X0222787Y0050560D01*
X0222787Y0050940D01*
X0241525Y0050940D01*
X0241525Y0049382D01*
X0245567Y0045340D01*
X0251283Y0045340D01*
X0254415Y0048472D01*
X0256147Y0046740D01*
X0258225Y0046740D01*
X0258225Y0052040D01*
X0258625Y0052040D01*
X0258625Y0046740D01*
X0260703Y0046740D01*
X0263414Y0049451D01*
X0263414Y0004200D01*
X0004200Y0004200D01*
X0004200Y0136426D01*
X0263414Y0136426D01*
X0263414Y0085029D01*
X0260703Y0087740D01*
X0258625Y0087740D01*
X0258625Y0082440D01*
X0258225Y0082440D01*
X0258225Y0087740D01*
X0256147Y0087740D01*
X0254415Y0086008D01*
X0252672Y0087751D02*
X0263414Y0087751D01*
X0263414Y0086153D02*
X0262291Y0086153D01*
X0263414Y0089350D02*
X0246690Y0089350D01*
X0245091Y0090948D02*
X0263414Y0090948D01*
X0263414Y0092547D02*
X0221881Y0092547D01*
X0221881Y0094145D02*
X0263414Y0094145D01*
X0263414Y0095744D02*
X0221160Y0095744D01*
X0221364Y0098941D02*
X0263414Y0098941D01*
X0263414Y0100539D02*
X0221881Y0100539D01*
X0221881Y0102138D02*
X0263414Y0102138D01*
X0263414Y0103736D02*
X0221881Y0103736D01*
X0221881Y0105335D02*
X0263414Y0105335D01*
X0263414Y0106933D02*
X0221881Y0106933D01*
X0221881Y0108532D02*
X0263414Y0108532D01*
X0263414Y0110130D02*
X0221881Y0110130D01*
X0221881Y0111729D02*
X0263414Y0111729D01*
X0263414Y0113327D02*
X0221841Y0113327D01*
X0220875Y0114926D02*
X0263414Y0114926D01*
X0263414Y0116524D02*
X0201832Y0116524D01*
X0202152Y0114926D02*
X0210975Y0114926D01*
X0210009Y0113327D02*
X0202152Y0113327D01*
X0202152Y0111729D02*
X0209969Y0111729D01*
X0209969Y0110130D02*
X0202152Y0110130D01*
X0202152Y0108532D02*
X0209969Y0108532D01*
X0209969Y0106933D02*
X0201962Y0106933D01*
X0202061Y0105335D02*
X0209969Y0105335D01*
X0209264Y0103736D02*
X0202668Y0103736D01*
X0202668Y0102138D02*
X0207666Y0102138D01*
X0206067Y0100539D02*
X0202668Y0100539D01*
X0202668Y0098941D02*
X0204469Y0098941D01*
X0202870Y0097342D02*
X0202668Y0097342D01*
X0195925Y0100252D02*
X0195925Y0109228D01*
X0195802Y0111572D01*
X0189643Y0106933D02*
X0189374Y0106933D01*
X0185554Y0106933D02*
X0184004Y0106933D01*
X0184004Y0106229D02*
X0181392Y0106229D01*
X0180934Y0106351D01*
X0180524Y0106588D01*
X0180189Y0106923D01*
X0179952Y0107334D01*
X0179829Y0107792D01*
X0179829Y0110797D01*
X0184004Y0110797D01*
X0184004Y0106229D01*
X0180183Y0106933D02*
X0179689Y0106933D01*
X0179829Y0108532D02*
X0177996Y0108532D01*
X0176461Y0110130D02*
X0179829Y0110130D01*
X0176461Y0111729D02*
X0184004Y0111729D01*
X0184004Y0113327D02*
X0185554Y0113327D01*
X0185554Y0114926D02*
X0184004Y0114926D01*
X0184004Y0116524D02*
X0185554Y0116524D01*
X0189065Y0116524D02*
X0189773Y0116524D01*
X0191552Y0118123D02*
X0175723Y0118123D01*
X0175723Y0116524D02*
X0180493Y0116524D01*
X0179829Y0114926D02*
X0175723Y0114926D01*
X0176396Y0113327D02*
X0179829Y0113327D01*
X0184004Y0110130D02*
X0185554Y0110130D01*
X0185554Y0108532D02*
X0184004Y0108532D01*
X0179991Y0105335D02*
X0189790Y0105335D01*
X0189182Y0103736D02*
X0179991Y0103736D01*
X0179813Y0102138D02*
X0189182Y0102138D01*
X0189182Y0100539D02*
X0179991Y0100539D01*
X0180942Y0099507D02*
X0180705Y0099096D01*
X0180582Y0098639D01*
X0180582Y0096027D01*
X0185150Y0096027D01*
X0185150Y0100202D01*
X0182145Y0100202D01*
X0181687Y0100079D01*
X0181277Y0099842D01*
X0180942Y0099507D01*
X0180663Y0098941D02*
X0179991Y0098941D01*
X0179898Y0097342D02*
X0180582Y0097342D01*
X0179991Y0095744D02*
X0185150Y0095744D01*
X0185150Y0097342D02*
X0186700Y0097342D01*
X0186700Y0098941D02*
X0185150Y0098941D01*
X0180582Y0094145D02*
X0179991Y0094145D01*
X0172461Y0094386D02*
X0172106Y0094740D01*
X0166715Y0094801D01*
X0164515Y0092620D01*
X0164557Y0087240D01*
X0167508Y0084271D01*
X0185925Y0084228D01*
X0185925Y0072240D01*
X0185925Y0055252D01*
X0180413Y0049740D01*
X0155230Y0049743D01*
X0153376Y0047853D01*
X0151148Y0049740D01*
X0138425Y0049740D01*
X0135925Y0052240D01*
X0135925Y0059740D01*
X0133425Y0062240D01*
X0120413Y0062240D01*
X0117913Y0064740D01*
X0117913Y0067240D01*
X0118425Y0067752D01*
X0117913Y0064740D02*
X0113425Y0064740D01*
X0110925Y0067240D01*
X0110925Y0079228D01*
X0100925Y0079228D01*
X0094182Y0079759D02*
X0079064Y0079759D01*
X0077465Y0081357D02*
X0093651Y0081357D01*
X0093659Y0081349D02*
X0094182Y0081133D01*
X0094182Y0075442D01*
X0094669Y0074266D01*
X0095569Y0073366D01*
X0096745Y0072879D01*
X0105105Y0072879D01*
X0105925Y0073218D01*
X0106745Y0072879D01*
X0106925Y0072879D01*
X0106925Y0066445D01*
X0107534Y0064974D01*
X0107768Y0064740D01*
X0107534Y0064506D01*
X0106925Y0063036D01*
X0106925Y0061947D01*
X0106281Y0062591D01*
X0105293Y0063000D01*
X0105574Y0063162D01*
X0105909Y0063497D01*
X0106146Y0063908D01*
X0106268Y0064365D01*
X0106268Y0066977D01*
X0101700Y0066977D01*
X0101700Y0068527D01*
X0100150Y0068527D01*
X0100150Y0066977D01*
X0095582Y0066977D01*
X0095582Y0065140D01*
X0092825Y0065140D01*
X0092825Y0065827D01*
X0092338Y0067003D01*
X0091438Y0067903D01*
X0090552Y0068270D01*
X0075691Y0083131D01*
X0075428Y0083240D01*
X0091768Y0083240D01*
X0092534Y0082474D01*
X0093659Y0081349D01*
X0092534Y0082474D02*
X0092534Y0082474D01*
X0092053Y0082956D02*
X0075867Y0082956D01*
X0073425Y0079740D02*
X0088425Y0064740D01*
X0088425Y0061140D01*
X0096513Y0061140D01*
X0100925Y0056728D01*
X0107913Y0056728D01*
X0110925Y0059740D01*
X0110925Y0045252D01*
X0118425Y0049740D02*
X0118425Y0056728D01*
X0110925Y0059740D02*
X0110925Y0062240D01*
X0113425Y0064740D01*
X0107369Y0065372D02*
X0106268Y0065372D01*
X0106268Y0066970D02*
X0106925Y0066970D01*
X0106925Y0068569D02*
X0106268Y0068569D01*
X0106268Y0068527D02*
X0106268Y0071139D01*
X0106146Y0071596D01*
X0105909Y0072007D01*
X0105574Y0072342D01*
X0105163Y0072579D01*
X0104705Y0072702D01*
X0101700Y0072702D01*
X0101700Y0068527D01*
X0106268Y0068527D01*
X0106268Y0070167D02*
X0106925Y0070167D01*
X0101700Y0070167D02*
X0100150Y0070167D01*
X0100150Y0068569D02*
X0101700Y0068569D01*
X0100150Y0068527D02*
X0100150Y0072702D01*
X0097145Y0072702D01*
X0096687Y0072579D01*
X0096277Y0072342D01*
X0095942Y0072007D01*
X0095705Y0071596D01*
X0095582Y0071139D01*
X0095582Y0068527D01*
X0100150Y0068527D01*
X0095582Y0068569D02*
X0090253Y0068569D01*
X0088655Y0070167D02*
X0095582Y0070167D01*
X0095802Y0071766D02*
X0087056Y0071766D01*
X0085458Y0073365D02*
X0095573Y0073365D01*
X0094380Y0074963D02*
X0083859Y0074963D01*
X0082261Y0076562D02*
X0094182Y0076562D01*
X0094182Y0078160D02*
X0080662Y0078160D01*
X0073425Y0079740D02*
X0033425Y0079740D01*
X0028425Y0087240D02*
X0023425Y0082240D01*
X0023425Y0079740D01*
X0013425Y0074740D02*
X0013425Y0084740D01*
X0038425Y0109740D01*
X0052126Y0109740D01*
X0053425Y0109740D01*
X0068425Y0094740D01*
X0096437Y0094740D01*
X0100925Y0090252D01*
X0097913Y0090252D01*
X0093425Y0087240D02*
X0095925Y0084740D01*
X0108425Y0084740D01*
X0110925Y0087240D01*
X0110925Y0090252D01*
X0116632Y0084740D02*
X0117181Y0085290D01*
X0117218Y0085379D01*
X0124632Y0085379D01*
X0124669Y0085290D01*
X0125219Y0084740D01*
X0124669Y0084191D01*
X0124182Y0083014D01*
X0124182Y0075442D01*
X0124669Y0074266D01*
X0124834Y0074102D01*
X0124245Y0074102D01*
X0123425Y0073762D01*
X0122605Y0074102D01*
X0117017Y0074102D01*
X0117181Y0074266D01*
X0117668Y0075442D01*
X0117668Y0083014D01*
X0117181Y0084191D01*
X0116632Y0084740D01*
X0116818Y0084554D02*
X0125033Y0084554D01*
X0123425Y0084740D02*
X0138425Y0084740D01*
X0143425Y0089740D01*
X0151634Y0089740D01*
X0151988Y0089386D01*
X0151988Y0089386D01*
X0145857Y0089386D01*
X0145857Y0090386D01*
X0145228Y0090386D01*
X0143758Y0090995D01*
X0141512Y0093240D01*
X0137668Y0093240D01*
X0137668Y0086466D01*
X0137181Y0085290D01*
X0136632Y0084740D01*
X0137181Y0084191D01*
X0137580Y0083228D01*
X0142233Y0083228D01*
X0143703Y0082619D01*
X0145691Y0080631D01*
X0146816Y0079506D01*
X0147425Y0078036D01*
X0147425Y0074102D01*
X0147605Y0074102D01*
X0148781Y0073614D01*
X0149064Y0073332D01*
X0149064Y0081420D01*
X0149551Y0082596D01*
X0150451Y0083496D01*
X0151627Y0083983D01*
X0159200Y0083983D01*
X0160376Y0083496D01*
X0160925Y0082947D01*
X0161475Y0083496D01*
X0162299Y0083838D01*
X0161735Y0084405D01*
X0161184Y0084948D01*
X0161175Y0084969D01*
X0161159Y0084985D01*
X0160865Y0085701D01*
X0160563Y0086413D01*
X0160563Y0086436D01*
X0160555Y0086457D01*
X0160557Y0087231D01*
X0160521Y0091818D01*
X0160512Y0091841D01*
X0160515Y0092613D01*
X0160509Y0093384D01*
X0160518Y0093407D01*
X0160518Y0093433D01*
X0160817Y0094144D01*
X0161106Y0094859D01*
X0161124Y0094877D01*
X0161134Y0094900D01*
X0161681Y0095443D01*
X0162223Y0095993D01*
X0162246Y0096003D01*
X0163344Y0097091D01*
X0163349Y0097105D01*
X0163907Y0097650D01*
X0164463Y0098202D01*
X0164477Y0098207D01*
X0164487Y0098217D01*
X0164930Y0098395D01*
X0164930Y0101203D01*
X0165213Y0101886D01*
X0164930Y0102568D01*
X0164930Y0106203D01*
X0165417Y0107380D01*
X0166317Y0108280D01*
X0167493Y0108767D01*
X0168461Y0108767D01*
X0168461Y0110687D01*
X0163225Y0110687D01*
X0162049Y0111174D01*
X0161893Y0111330D01*
X0161737Y0111174D01*
X0160561Y0110687D01*
X0155988Y0110687D01*
X0155988Y0108767D01*
X0156955Y0108767D01*
X0158132Y0108280D01*
X0159032Y0107380D01*
X0159519Y0106203D01*
X0159519Y0102568D01*
X0159032Y0101392D01*
X0158132Y0100492D01*
X0158119Y0100487D01*
X0158119Y0099386D01*
X0151988Y0099386D01*
X0148425Y0099740D01*
X0145925Y0102240D01*
X0113425Y0102240D01*
X0105925Y0109740D01*
X0098425Y0109740D01*
X0098725Y0110040D02*
X0098725Y0118940D01*
X0098858Y0118940D01*
X0099713Y0118805D01*
X0100536Y0118537D01*
X0101308Y0118144D01*
X0102008Y0117635D01*
X0102620Y0117023D01*
X0103129Y0116323D01*
X0103522Y0115551D01*
X0103790Y0114728D01*
X0103925Y0113873D01*
X0103925Y0110040D01*
X0098725Y0110040D01*
X0098725Y0110130D02*
X0098125Y0110130D01*
X0098125Y0111729D02*
X0098725Y0111729D01*
X0098725Y0113327D02*
X0098125Y0113327D01*
X0098125Y0114926D02*
X0098725Y0114926D01*
X0098725Y0116524D02*
X0098125Y0116524D01*
X0098125Y0118123D02*
X0098725Y0118123D01*
X0101337Y0118123D02*
X0148063Y0118123D01*
X0148063Y0116524D02*
X0102983Y0116524D01*
X0103726Y0114926D02*
X0148063Y0114926D01*
X0147988Y0113327D02*
X0103925Y0113327D01*
X0103925Y0111729D02*
X0147988Y0111729D01*
X0147988Y0110130D02*
X0103925Y0110130D01*
X0103925Y0108532D02*
X0146453Y0108532D01*
X0144760Y0106933D02*
X0125951Y0106933D01*
X0125909Y0107007D02*
X0125574Y0107342D01*
X0125163Y0107579D01*
X0124705Y0107702D01*
X0121700Y0107702D01*
X0121700Y0103527D01*
X0126268Y0103527D01*
X0126268Y0106139D01*
X0126146Y0106596D01*
X0125909Y0107007D01*
X0126268Y0105335D02*
X0144457Y0105335D01*
X0144457Y0103736D02*
X0126268Y0103736D01*
X0121700Y0103736D02*
X0120150Y0103736D01*
X0120150Y0103527D02*
X0120150Y0107702D01*
X0117145Y0107702D01*
X0116687Y0107579D01*
X0116277Y0107342D01*
X0115942Y0107007D01*
X0115705Y0106596D01*
X0115582Y0106139D01*
X0115582Y0103527D01*
X0120150Y0103527D01*
X0120150Y0102138D02*
X0104578Y0102138D01*
X0103424Y0103736D02*
X0115582Y0103736D01*
X0115582Y0105335D02*
X0103882Y0105335D01*
X0103925Y0106933D02*
X0115899Y0106933D01*
X0120150Y0106933D02*
X0121700Y0106933D01*
X0121700Y0105335D02*
X0120150Y0105335D01*
X0121700Y0102138D02*
X0144636Y0102138D01*
X0145527Y0100539D02*
X0145798Y0100539D01*
X0148425Y0099740D02*
X0158425Y0099740D01*
X0160925Y0102240D01*
X0163425Y0102240D01*
X0160461Y0099825D01*
X0160546Y0091818D01*
X0158425Y0089740D01*
X0158425Y0086532D01*
X0158071Y0089386D01*
X0158425Y0089740D01*
X0158119Y0089386D02*
X0158119Y0090487D01*
X0158132Y0090492D01*
X0159032Y0091392D01*
X0159519Y0092568D01*
X0159519Y0096203D01*
X0159032Y0097380D01*
X0158132Y0098280D01*
X0158119Y0098285D01*
X0158119Y0099386D01*
X0151988Y0099386D01*
X0160571Y0099386D01*
X0160461Y0099825D01*
X0158179Y0100539D02*
X0164930Y0100539D01*
X0164930Y0098941D02*
X0158119Y0098941D01*
X0159047Y0097342D02*
X0163592Y0097342D01*
X0161977Y0095744D02*
X0159519Y0095744D01*
X0159519Y0094145D02*
X0160817Y0094145D01*
X0160515Y0092547D02*
X0159510Y0092547D01*
X0158588Y0090948D02*
X0160528Y0090948D01*
X0160540Y0089350D02*
X0158119Y0089350D01*
X0158119Y0089386D02*
X0151988Y0089386D01*
X0158071Y0089386D01*
X0158119Y0089386D02*
X0151988Y0089386D01*
X0145857Y0089386D01*
X0145857Y0087968D01*
X0145980Y0087510D01*
X0146217Y0087100D01*
X0146552Y0086764D01*
X0146963Y0086527D01*
X0147420Y0086405D01*
X0151988Y0086405D01*
X0151988Y0089386D01*
X0151988Y0089386D01*
X0151988Y0089386D01*
X0151988Y0086405D01*
X0156556Y0086405D01*
X0157014Y0086527D01*
X0157424Y0086764D01*
X0157759Y0087100D01*
X0157996Y0087510D01*
X0158119Y0087968D01*
X0158119Y0089386D01*
X0158061Y0087751D02*
X0160553Y0087751D01*
X0160674Y0086153D02*
X0137539Y0086153D01*
X0137668Y0087751D02*
X0145916Y0087751D01*
X0145857Y0089350D02*
X0137668Y0089350D01*
X0137668Y0090948D02*
X0143870Y0090948D01*
X0142206Y0092547D02*
X0137668Y0092547D01*
X0143169Y0097240D02*
X0146024Y0094386D01*
X0151988Y0094386D01*
X0151988Y0099386D02*
X0151988Y0099386D01*
X0159341Y0102138D02*
X0165108Y0102138D01*
X0164930Y0103736D02*
X0159519Y0103736D01*
X0159519Y0105335D02*
X0164930Y0105335D01*
X0165232Y0106933D02*
X0159217Y0106933D01*
X0157523Y0108532D02*
X0166926Y0108532D01*
X0168461Y0110130D02*
X0155988Y0110130D01*
X0151988Y0113037D02*
X0155594Y0116643D01*
X0151988Y0113037D02*
X0151988Y0104386D01*
X0143169Y0097240D02*
X0103819Y0097240D01*
X0100925Y0100134D01*
X0090531Y0100134D01*
X0088425Y0102240D01*
X0088425Y0109740D01*
X0078425Y0109740D02*
X0064724Y0109740D01*
X0071151Y0114926D02*
X0071572Y0114926D01*
X0072234Y0116524D02*
X0004200Y0116524D01*
X0004200Y0114926D02*
X0045700Y0114926D01*
X0036633Y0113327D02*
X0004200Y0113327D01*
X0004200Y0111729D02*
X0034757Y0111729D01*
X0033158Y0110130D02*
X0004200Y0110130D01*
X0004200Y0108532D02*
X0031560Y0108532D01*
X0029961Y0106933D02*
X0004200Y0106933D01*
X0004200Y0105335D02*
X0028363Y0105335D01*
X0026764Y0103736D02*
X0004200Y0103736D01*
X0004200Y0102138D02*
X0025166Y0102138D01*
X0023567Y0100539D02*
X0004200Y0100539D01*
X0004200Y0098941D02*
X0021969Y0098941D01*
X0020370Y0097342D02*
X0004200Y0097342D01*
X0004200Y0095744D02*
X0018772Y0095744D01*
X0017173Y0094145D02*
X0004200Y0094145D01*
X0004200Y0092547D02*
X0015575Y0092547D01*
X0013976Y0090948D02*
X0004200Y0090948D01*
X0004200Y0089350D02*
X0012378Y0089350D01*
X0010779Y0087751D02*
X0004200Y0087751D01*
X0004200Y0086153D02*
X0009681Y0086153D01*
X0009425Y0084554D02*
X0004200Y0084554D01*
X0004200Y0082956D02*
X0009425Y0082956D01*
X0009425Y0081357D02*
X0004200Y0081357D01*
X0004200Y0079759D02*
X0009425Y0079759D01*
X0009425Y0078160D02*
X0004200Y0078160D01*
X0004200Y0076562D02*
X0009425Y0076562D01*
X0009425Y0074963D02*
X0004200Y0074963D01*
X0004200Y0073365D02*
X0009665Y0073365D01*
X0010743Y0071766D02*
X0004200Y0071766D01*
X0004200Y0070167D02*
X0012341Y0070167D01*
X0013940Y0068569D02*
X0004200Y0068569D01*
X0004200Y0066970D02*
X0015538Y0066970D01*
X0018035Y0065372D02*
X0004200Y0065372D01*
X0004200Y0063773D02*
X0019634Y0063773D01*
X0018082Y0062175D02*
X0004200Y0062175D01*
X0004200Y0060576D02*
X0017925Y0060576D01*
X0017925Y0058978D02*
X0004200Y0058978D01*
X0004200Y0057379D02*
X0018008Y0057379D01*
X0019606Y0055781D02*
X0004200Y0055781D01*
X0004200Y0054182D02*
X0018109Y0054182D01*
X0016525Y0052584D02*
X0004200Y0052584D01*
X0004200Y0050985D02*
X0016525Y0050985D01*
X0016525Y0049387D02*
X0004200Y0049387D01*
X0004200Y0047788D02*
X0016525Y0047788D01*
X0017217Y0046190D02*
X0004200Y0046190D01*
X0004200Y0044591D02*
X0018816Y0044591D01*
X0020415Y0042993D02*
X0004200Y0042993D01*
X0004200Y0041394D02*
X0026114Y0041394D01*
X0027713Y0039796D02*
X0004200Y0039796D01*
X0004200Y0038197D02*
X0049025Y0038197D01*
X0049421Y0036599D02*
X0004200Y0036599D01*
X0004200Y0035000D02*
X0051564Y0035000D01*
X0051430Y0033402D02*
X0004200Y0033402D01*
X0004200Y0031803D02*
X0049950Y0031803D01*
X0047165Y0030205D02*
X0004200Y0030205D01*
X0004200Y0028606D02*
X0046682Y0028606D01*
X0046682Y0027008D02*
X0004200Y0027008D01*
X0004200Y0025409D02*
X0046682Y0025409D01*
X0046682Y0023811D02*
X0015321Y0023811D01*
X0015236Y0023846D02*
X0011614Y0023846D01*
X0008267Y0022459D01*
X0005706Y0019898D01*
X0004320Y0016551D01*
X0004320Y0012929D01*
X0005706Y0009582D01*
X0008267Y0007021D01*
X0011614Y0005635D01*
X0015236Y0005635D01*
X0018583Y0007021D01*
X0021144Y0009582D01*
X0022531Y0012929D01*
X0022531Y0016551D01*
X0021144Y0019898D01*
X0018583Y0022459D01*
X0015236Y0023846D01*
X0011529Y0023811D02*
X0004200Y0023811D01*
X0004200Y0022212D02*
X0008020Y0022212D01*
X0006422Y0020614D02*
X0004200Y0020614D01*
X0004200Y0019015D02*
X0005340Y0019015D01*
X0004678Y0017417D02*
X0004200Y0017417D01*
X0004200Y0015818D02*
X0004320Y0015818D01*
X0004320Y0014220D02*
X0004200Y0014220D01*
X0004200Y0012621D02*
X0004447Y0012621D01*
X0004200Y0011023D02*
X0005109Y0011023D01*
X0005864Y0009424D02*
X0004200Y0009424D01*
X0004200Y0007826D02*
X0007463Y0007826D01*
X0010184Y0006227D02*
X0004200Y0006227D01*
X0004200Y0004629D02*
X0263414Y0004629D01*
X0263414Y0006227D02*
X0256666Y0006227D01*
X0255236Y0005635D02*
X0258583Y0007021D01*
X0261144Y0009582D01*
X0262531Y0012929D01*
X0262531Y0016551D01*
X0261144Y0019898D01*
X0258583Y0022459D01*
X0255236Y0023846D01*
X0251614Y0023846D01*
X0248267Y0022459D01*
X0245706Y0019898D01*
X0244320Y0016551D01*
X0244320Y0012929D01*
X0245706Y0009582D01*
X0248267Y0007021D01*
X0251614Y0005635D01*
X0255236Y0005635D01*
X0259388Y0007826D02*
X0263414Y0007826D01*
X0263414Y0009424D02*
X0260986Y0009424D01*
X0261741Y0011023D02*
X0263414Y0011023D01*
X0263414Y0012621D02*
X0262403Y0012621D01*
X0262531Y0014220D02*
X0263414Y0014220D01*
X0263414Y0015818D02*
X0262531Y0015818D01*
X0262172Y0017417D02*
X0263414Y0017417D01*
X0263414Y0019015D02*
X0261510Y0019015D01*
X0260429Y0020614D02*
X0263414Y0020614D01*
X0263414Y0022212D02*
X0258830Y0022212D01*
X0255321Y0023811D02*
X0263414Y0023811D01*
X0263414Y0025409D02*
X0156745Y0025409D01*
X0156876Y0025374D02*
X0156418Y0025497D01*
X0154003Y0025497D01*
X0154003Y0018369D01*
X0157981Y0018369D01*
X0157981Y0023934D01*
X0157858Y0024392D01*
X0157621Y0024802D01*
X0157286Y0025137D01*
X0156876Y0025374D01*
X0154003Y0025409D02*
X0152847Y0025409D01*
X0152847Y0025497D02*
X0150432Y0025497D01*
X0149975Y0025374D01*
X0149564Y0025137D01*
X0149229Y0024802D01*
X0148992Y0024392D01*
X0148869Y0023934D01*
X0148869Y0018369D01*
X0152847Y0018369D01*
X0152847Y0017213D01*
X0154003Y0017213D01*
X0154003Y0010086D01*
X0156418Y0010086D01*
X0156876Y0010209D01*
X0157286Y0010445D01*
X0157621Y0010781D01*
X0157858Y0011191D01*
X0157981Y0011649D01*
X0157981Y0017213D01*
X0154003Y0017213D01*
X0154003Y0018369D01*
X0152847Y0018369D01*
X0152847Y0025497D01*
X0150105Y0025409D02*
X0135168Y0025409D01*
X0135168Y0027008D02*
X0263414Y0027008D01*
X0263414Y0028606D02*
X0158529Y0028606D01*
X0159381Y0030205D02*
X0263414Y0030205D01*
X0263414Y0031803D02*
X0159381Y0031803D01*
X0159381Y0033402D02*
X0263414Y0033402D01*
X0263414Y0035000D02*
X0159381Y0035000D01*
X0159381Y0036599D02*
X0263414Y0036599D01*
X0263414Y0038197D02*
X0159381Y0038197D01*
X0159381Y0039796D02*
X0263414Y0039796D01*
X0263414Y0041394D02*
X0159381Y0041394D01*
X0159381Y0042993D02*
X0263414Y0042993D01*
X0263414Y0044591D02*
X0195406Y0044591D01*
X0196387Y0046190D02*
X0244717Y0046190D01*
X0243119Y0047788D02*
X0196387Y0047788D01*
X0199550Y0049387D02*
X0192212Y0049387D01*
X0192212Y0050985D02*
X0190662Y0050985D01*
X0190662Y0052584D02*
X0192212Y0052584D01*
X0192212Y0054182D02*
X0190662Y0054182D01*
X0189925Y0055781D02*
X0197010Y0055781D01*
X0196146Y0054182D02*
X0198609Y0054182D01*
X0199064Y0052584D02*
X0196387Y0052584D01*
X0196387Y0050985D02*
X0199064Y0050985D01*
X0203425Y0054740D02*
X0205413Y0054740D01*
X0195412Y0057379D02*
X0189925Y0057379D01*
X0176225Y0062240D02*
X0170713Y0056728D01*
X0143425Y0056728D01*
X0138425Y0062240D02*
X0148425Y0062240D01*
X0155925Y0069740D01*
X0155925Y0076728D01*
X0155413Y0077240D01*
X0155925Y0074740D01*
X0159925Y0070797D02*
X0160376Y0070984D01*
X0160925Y0071534D01*
X0161475Y0070984D01*
X0162651Y0070497D01*
X0169128Y0070497D01*
X0169612Y0069328D01*
X0170513Y0068427D01*
X0170525Y0068422D01*
X0170525Y0067240D01*
X0170525Y0066058D01*
X0170513Y0066053D01*
X0169612Y0065153D01*
X0169125Y0063977D01*
X0169125Y0060797D01*
X0169057Y0060728D01*
X0152570Y0060728D01*
X0158191Y0066349D01*
X0159316Y0067474D01*
X0159925Y0068945D01*
X0159925Y0070797D01*
X0159925Y0070167D02*
X0169264Y0070167D01*
X0170371Y0068569D02*
X0159770Y0068569D01*
X0160925Y0069740D02*
X0160925Y0082240D01*
X0158425Y0084740D01*
X0155925Y0084740D01*
X0158425Y0087240D01*
X0158425Y0086532D02*
X0158425Y0084740D01*
X0161584Y0084554D02*
X0136818Y0084554D01*
X0142891Y0082956D02*
X0149910Y0082956D01*
X0149064Y0081357D02*
X0144965Y0081357D01*
X0146564Y0079759D02*
X0149064Y0079759D01*
X0149064Y0078160D02*
X0147374Y0078160D01*
X0147425Y0076562D02*
X0149064Y0076562D01*
X0149064Y0074963D02*
X0147425Y0074963D01*
X0149031Y0073365D02*
X0149064Y0073365D01*
X0143425Y0077240D02*
X0143425Y0067752D01*
X0138425Y0062240D02*
X0132913Y0067752D01*
X0128425Y0067752D01*
X0124380Y0074963D02*
X0117470Y0074963D01*
X0117668Y0076562D02*
X0124182Y0076562D01*
X0124182Y0078160D02*
X0117668Y0078160D01*
X0117668Y0079759D02*
X0124182Y0079759D01*
X0124182Y0081357D02*
X0117668Y0081357D01*
X0117668Y0082956D02*
X0124182Y0082956D01*
X0123425Y0084740D02*
X0120925Y0082240D01*
X0130925Y0079228D02*
X0141437Y0079228D01*
X0143425Y0077240D01*
X0160916Y0082956D02*
X0160934Y0082956D01*
X0166437Y0077240D02*
X0176225Y0077240D01*
X0176225Y0072240D02*
X0185925Y0072240D01*
X0195625Y0072240D01*
X0195625Y0077240D02*
X0205413Y0077240D01*
X0205413Y0074740D01*
X0205413Y0067240D02*
X0195625Y0067240D01*
X0200925Y0067240D01*
X0205413Y0067240D02*
X0205413Y0064740D01*
X0222301Y0049387D02*
X0241525Y0049387D01*
X0252133Y0046190D02*
X0263414Y0046190D01*
X0263414Y0047788D02*
X0261752Y0047788D01*
X0258625Y0047788D02*
X0258225Y0047788D01*
X0255099Y0047788D02*
X0253731Y0047788D01*
X0258225Y0049387D02*
X0258625Y0049387D01*
X0258625Y0050985D02*
X0258225Y0050985D01*
X0258225Y0052440D02*
X0258225Y0062040D01*
X0258625Y0062040D01*
X0258625Y0056740D01*
X0258625Y0052440D01*
X0258225Y0052440D01*
X0258225Y0052584D02*
X0258625Y0052584D01*
X0258625Y0054182D02*
X0258225Y0054182D01*
X0258225Y0055781D02*
X0258625Y0055781D01*
X0258625Y0057379D02*
X0258225Y0057379D01*
X0258225Y0058978D02*
X0258625Y0058978D01*
X0258625Y0060576D02*
X0258225Y0060576D01*
X0258225Y0062440D02*
X0258225Y0072040D01*
X0258625Y0072040D01*
X0258625Y0066740D01*
X0258625Y0062440D01*
X0258225Y0062440D01*
X0258225Y0063773D02*
X0258625Y0063773D01*
X0258625Y0065372D02*
X0258225Y0065372D01*
X0258225Y0066970D02*
X0258625Y0066970D01*
X0258625Y0068569D02*
X0258225Y0068569D01*
X0258225Y0070167D02*
X0258625Y0070167D01*
X0258625Y0071766D02*
X0258225Y0071766D01*
X0258225Y0072440D02*
X0258225Y0082040D01*
X0258625Y0082040D01*
X0258625Y0077740D01*
X0258625Y0072440D01*
X0258225Y0072440D01*
X0258225Y0073365D02*
X0258625Y0073365D01*
X0258625Y0074963D02*
X0258225Y0074963D01*
X0258225Y0076562D02*
X0258625Y0076562D01*
X0258625Y0078160D02*
X0258225Y0078160D01*
X0258225Y0079759D02*
X0258625Y0079759D01*
X0258625Y0081357D02*
X0258225Y0081357D01*
X0258225Y0082956D02*
X0258625Y0082956D01*
X0258625Y0084554D02*
X0258225Y0084554D01*
X0258225Y0086153D02*
X0258625Y0086153D01*
X0263414Y0097342D02*
X0214184Y0097342D01*
X0216275Y0102780D02*
X0216275Y0103023D01*
X0216275Y0102780D02*
X0217036Y0102780D01*
X0217036Y0105835D01*
X0216189Y0105835D01*
X0216189Y0106683D01*
X0215850Y0106683D01*
X0215850Y0105156D01*
X0215553Y0105147D02*
X0215553Y0103707D01*
X0214844Y0104139D02*
X0214488Y0103299D01*
X0214844Y0104139D02*
X0214844Y0104740D01*
X0215680Y0104740D01*
X0215680Y0107531D01*
X0215850Y0107531D01*
X0215850Y0106683D01*
X0215925Y0106689D02*
X0214844Y0104139D01*
X0215680Y0104740D02*
X0215925Y0104740D01*
X0200413Y0089228D01*
X0195925Y0089228D01*
X0195925Y0089386D01*
X0172461Y0089386D01*
X0151988Y0089350D02*
X0151988Y0089350D01*
X0151988Y0087751D02*
X0151988Y0087751D01*
X0172461Y0104386D02*
X0172461Y0112375D01*
X0168192Y0116643D01*
X0175723Y0119721D02*
X0248067Y0119721D01*
X0248267Y0119521D02*
X0245706Y0122082D01*
X0244320Y0125429D01*
X0244320Y0129051D01*
X0245706Y0132398D01*
X0248267Y0134959D01*
X0251614Y0136346D01*
X0255236Y0136346D01*
X0258583Y0134959D01*
X0261144Y0132398D01*
X0262531Y0129051D01*
X0262531Y0125429D01*
X0261144Y0122082D01*
X0258583Y0119521D01*
X0255236Y0118135D01*
X0251614Y0118135D01*
X0248267Y0119521D01*
X0246468Y0121320D02*
X0175128Y0121320D01*
X0200053Y0118123D02*
X0263414Y0118123D01*
X0263414Y0119721D02*
X0258783Y0119721D01*
X0260382Y0121320D02*
X0263414Y0121320D01*
X0263414Y0122918D02*
X0261491Y0122918D01*
X0262153Y0124517D02*
X0263414Y0124517D01*
X0263414Y0126115D02*
X0262531Y0126115D01*
X0262531Y0127714D02*
X0263414Y0127714D01*
X0263414Y0129312D02*
X0262423Y0129312D01*
X0261760Y0130911D02*
X0263414Y0130911D01*
X0263414Y0132509D02*
X0261033Y0132509D01*
X0259435Y0134108D02*
X0263414Y0134108D01*
X0263414Y0135706D02*
X0256780Y0135706D01*
X0250071Y0135706D02*
X0016780Y0135706D01*
X0015236Y0136346D02*
X0018583Y0134959D01*
X0021144Y0132398D01*
X0022531Y0129051D01*
X0022531Y0125429D01*
X0021144Y0122082D01*
X0018583Y0119521D01*
X0015236Y0118135D01*
X0011614Y0118135D01*
X0008267Y0119521D01*
X0005706Y0122082D01*
X0004320Y0125429D01*
X0004320Y0129051D01*
X0005706Y0132398D01*
X0008267Y0134959D01*
X0011614Y0136346D01*
X0015236Y0136346D01*
X0019435Y0134108D02*
X0247416Y0134108D01*
X0245817Y0132509D02*
X0021033Y0132509D01*
X0021760Y0130911D02*
X0245090Y0130911D01*
X0244428Y0129312D02*
X0022423Y0129312D01*
X0022531Y0127714D02*
X0244320Y0127714D01*
X0244320Y0126115D02*
X0022531Y0126115D01*
X0022153Y0124517D02*
X0244697Y0124517D01*
X0245360Y0122918D02*
X0021491Y0122918D01*
X0020382Y0121320D02*
X0148659Y0121320D01*
X0148063Y0119721D02*
X0091292Y0119721D01*
X0093501Y0118123D02*
X0095513Y0118123D01*
X0085559Y0119721D02*
X0081292Y0119721D01*
X0075559Y0119721D02*
X0018783Y0119721D01*
X0008067Y0119721D02*
X0004200Y0119721D01*
X0004200Y0121320D02*
X0006468Y0121320D01*
X0005360Y0122918D02*
X0004200Y0122918D01*
X0004200Y0124517D02*
X0004697Y0124517D01*
X0004320Y0126115D02*
X0004200Y0126115D01*
X0004200Y0127714D02*
X0004320Y0127714D01*
X0004428Y0129312D02*
X0004200Y0129312D01*
X0004200Y0130911D02*
X0005090Y0130911D01*
X0005817Y0132509D02*
X0004200Y0132509D01*
X0004200Y0134108D02*
X0007416Y0134108D01*
X0010071Y0135706D02*
X0004200Y0135706D01*
X0004200Y0118123D02*
X0073350Y0118123D01*
X0093425Y0087240D02*
X0028425Y0087240D01*
X0013425Y0074740D02*
X0018425Y0069740D01*
X0023425Y0069740D01*
X0033425Y0069740D02*
X0053425Y0069740D01*
X0058425Y0074740D01*
X0068425Y0074740D01*
X0078425Y0064740D01*
X0078425Y0061140D01*
X0073425Y0061140D02*
X0073425Y0057240D01*
X0075925Y0054740D01*
X0078425Y0054740D01*
X0083425Y0049740D01*
X0090925Y0049740D01*
X0093425Y0047240D01*
X0093425Y0034740D01*
X0090925Y0032240D01*
X0085925Y0032240D01*
X0083425Y0029740D01*
X0083425Y0025252D01*
X0093425Y0025252D02*
X0093937Y0024740D01*
X0093425Y0024740D01*
X0101181Y0032496D01*
X0100925Y0033047D01*
X0110925Y0034228D02*
X0112106Y0035409D01*
X0119685Y0035409D01*
X0127165Y0035409D02*
X0128346Y0034228D01*
X0128346Y0047161D01*
X0128316Y0052634D01*
X0128425Y0056728D01*
X0132334Y0049387D02*
X0133122Y0049387D01*
X0132346Y0047788D02*
X0134720Y0047788D01*
X0135034Y0047474D02*
X0135034Y0047474D01*
X0136544Y0046190D02*
X0132346Y0046190D01*
X0132346Y0044591D02*
X0148141Y0044591D01*
X0147469Y0042993D02*
X0132346Y0042993D01*
X0132346Y0041394D02*
X0147469Y0041394D01*
X0147469Y0039796D02*
X0132346Y0039796D01*
X0132346Y0038197D02*
X0147469Y0038197D01*
X0147469Y0036599D02*
X0132346Y0036599D01*
X0132346Y0033433D02*
X0132334Y0033402D01*
X0132245Y0031803D02*
X0147469Y0031803D01*
X0147469Y0030205D02*
X0134685Y0030205D01*
X0135168Y0028606D02*
X0148321Y0028606D01*
X0148869Y0023811D02*
X0135168Y0023811D01*
X0135168Y0022212D02*
X0148869Y0022212D01*
X0148869Y0020614D02*
X0134815Y0020614D01*
X0132877Y0019015D02*
X0148869Y0019015D01*
X0148869Y0017213D02*
X0148869Y0011649D01*
X0148992Y0011191D01*
X0149229Y0010781D01*
X0149564Y0010445D01*
X0149975Y0010209D01*
X0150432Y0010086D01*
X0152847Y0010086D01*
X0152847Y0017213D01*
X0148869Y0017213D01*
X0148869Y0015818D02*
X0133768Y0015818D01*
X0133768Y0017417D02*
X0152847Y0017417D01*
X0154003Y0017417D02*
X0244678Y0017417D01*
X0244320Y0015818D02*
X0157981Y0015818D01*
X0157981Y0014220D02*
X0244320Y0014220D01*
X0244447Y0012621D02*
X0157981Y0012621D01*
X0157761Y0011023D02*
X0245109Y0011023D01*
X0245864Y0009424D02*
X0132702Y0009424D01*
X0133768Y0011023D02*
X0149089Y0011023D01*
X0148869Y0012621D02*
X0133768Y0012621D01*
X0129200Y0012621D02*
X0127650Y0012621D01*
X0127650Y0011023D02*
X0129200Y0011023D01*
X0129200Y0009424D02*
X0127650Y0009424D01*
X0124148Y0009424D02*
X0099747Y0009424D01*
X0105364Y0011023D02*
X0123082Y0011023D01*
X0123082Y0012621D02*
X0106963Y0012621D01*
X0106304Y0011963D02*
X0106304Y0011963D01*
X0108561Y0014220D02*
X0127650Y0014220D01*
X0129200Y0014220D02*
X0148869Y0014220D01*
X0152847Y0014220D02*
X0154003Y0014220D01*
X0154003Y0015818D02*
X0152847Y0015818D01*
X0152847Y0019015D02*
X0154003Y0019015D01*
X0154003Y0020614D02*
X0152847Y0020614D01*
X0152847Y0022212D02*
X0154003Y0022212D01*
X0154003Y0023811D02*
X0152847Y0023811D01*
X0157981Y0023811D02*
X0251529Y0023811D01*
X0248020Y0022212D02*
X0157981Y0022212D01*
X0157981Y0020614D02*
X0246422Y0020614D01*
X0245340Y0019015D02*
X0157981Y0019015D01*
X0154003Y0012621D02*
X0152847Y0012621D01*
X0152847Y0011023D02*
X0154003Y0011023D01*
X0123973Y0019015D02*
X0113357Y0019015D01*
X0113191Y0018849D02*
X0113191Y0018849D01*
X0111758Y0017417D02*
X0123082Y0017417D01*
X0123082Y0015818D02*
X0110160Y0015818D01*
X0110925Y0022240D02*
X0102913Y0014228D01*
X0093425Y0014228D01*
X0083425Y0014228D01*
X0073425Y0014228D01*
X0053425Y0014228D01*
X0046682Y0014220D02*
X0022531Y0014220D01*
X0022531Y0015818D02*
X0046682Y0015818D01*
X0046682Y0017417D02*
X0022172Y0017417D01*
X0021510Y0019015D02*
X0047096Y0019015D01*
X0045925Y0019740D02*
X0063425Y0019740D01*
X0063425Y0025252D01*
X0063425Y0032240D01*
X0068425Y0037240D01*
X0068425Y0042240D01*
X0068425Y0048090D01*
X0067432Y0048090D01*
X0071816Y0052474D01*
X0072027Y0052982D01*
X0072534Y0052474D01*
X0073659Y0051349D01*
X0075130Y0050740D01*
X0076768Y0050740D01*
X0079418Y0048090D01*
X0078425Y0048090D01*
X0077343Y0048090D01*
X0077338Y0048103D01*
X0076438Y0049003D01*
X0075262Y0049490D01*
X0071589Y0049490D01*
X0070413Y0049003D01*
X0069512Y0048103D01*
X0069507Y0048090D01*
X0068425Y0048090D01*
X0068425Y0042240D01*
X0068425Y0042240D01*
X0068425Y0042993D02*
X0068425Y0042993D01*
X0068425Y0044591D02*
X0068425Y0044591D01*
X0068425Y0046190D02*
X0068425Y0046190D01*
X0068425Y0047788D02*
X0068425Y0047788D01*
X0068729Y0049387D02*
X0071339Y0049387D01*
X0070327Y0050985D02*
X0074538Y0050985D01*
X0075511Y0049387D02*
X0078122Y0049387D01*
X0078425Y0048090D02*
X0078425Y0042240D01*
X0078425Y0042240D01*
X0078425Y0048090D01*
X0078425Y0047788D02*
X0078425Y0047788D01*
X0078425Y0046190D02*
X0078425Y0046190D01*
X0078425Y0044591D02*
X0078425Y0044591D01*
X0078425Y0042993D02*
X0078425Y0042993D01*
X0067272Y0036312D02*
X0066438Y0035477D01*
X0065262Y0034990D01*
X0062425Y0034990D01*
X0062425Y0033945D01*
X0061816Y0032474D01*
X0059619Y0030277D01*
X0059681Y0030214D01*
X0059687Y0030202D01*
X0062650Y0030202D01*
X0062650Y0026027D01*
X0064200Y0026027D01*
X0064200Y0030202D01*
X0067164Y0030202D01*
X0067169Y0030214D01*
X0067272Y0030318D01*
X0067272Y0036312D01*
X0067272Y0035000D02*
X0065286Y0035000D01*
X0067272Y0033402D02*
X0062200Y0033402D01*
X0061145Y0031803D02*
X0067272Y0031803D01*
X0067165Y0030205D02*
X0059685Y0030205D01*
X0062650Y0028606D02*
X0064200Y0028606D01*
X0064200Y0027008D02*
X0062650Y0027008D01*
X0058425Y0034740D02*
X0053425Y0029740D01*
X0053425Y0025252D01*
X0046682Y0022212D02*
X0018830Y0022212D01*
X0020429Y0020614D02*
X0047035Y0020614D01*
X0046682Y0012621D02*
X0022403Y0012621D01*
X0021741Y0011023D02*
X0046682Y0011023D01*
X0047104Y0009424D02*
X0020986Y0009424D01*
X0019388Y0007826D02*
X0247463Y0007826D01*
X0250184Y0006227D02*
X0016666Y0006227D01*
X0063425Y0014228D02*
X0073425Y0014228D01*
X0073425Y0014740D01*
X0073425Y0025252D02*
X0073425Y0033212D01*
X0058425Y0034740D02*
X0058425Y0042240D01*
X0053425Y0042240D02*
X0030925Y0042240D01*
X0023425Y0049740D01*
X0033425Y0049740D02*
X0063425Y0049740D01*
X0068425Y0054740D01*
X0068425Y0061140D01*
X0063425Y0061140D02*
X0063425Y0069740D01*
X0050509Y0065740D02*
X0050425Y0065427D01*
X0050425Y0061140D01*
X0050425Y0056853D01*
X0050548Y0056395D01*
X0050637Y0056240D01*
X0042582Y0056240D01*
X0040325Y0058497D01*
X0040325Y0062598D01*
X0038183Y0064740D01*
X0039183Y0065740D01*
X0050509Y0065740D01*
X0050425Y0065372D02*
X0038815Y0065372D01*
X0039150Y0063773D02*
X0050425Y0063773D01*
X0050425Y0062175D02*
X0040325Y0062175D01*
X0040325Y0060576D02*
X0050425Y0060576D01*
X0050425Y0061140D02*
X0053425Y0061140D01*
X0053425Y0061140D01*
X0050425Y0061140D01*
X0050425Y0058978D02*
X0040325Y0058978D01*
X0041443Y0057379D02*
X0050425Y0057379D01*
X0055925Y0052240D02*
X0040925Y0052240D01*
X0033425Y0059740D01*
X0055925Y0052240D02*
X0058425Y0054740D01*
X0058425Y0061140D01*
X0071862Y0052584D02*
X0072425Y0052584D01*
X0083425Y0057240D02*
X0085925Y0054740D01*
X0090925Y0054740D01*
X0098425Y0047240D01*
X0100118Y0047240D01*
X0100925Y0046433D01*
X0101437Y0054228D02*
X0100925Y0056728D01*
X0106697Y0062175D02*
X0106925Y0062175D01*
X0107231Y0063773D02*
X0106068Y0063773D01*
X0095582Y0065372D02*
X0092825Y0065372D01*
X0092351Y0066970D02*
X0095582Y0066970D01*
X0100150Y0071766D02*
X0101700Y0071766D01*
X0106048Y0071766D02*
X0106925Y0071766D01*
X0083425Y0061140D02*
X0083425Y0057240D01*
X0118425Y0049740D02*
X0123425Y0044740D01*
X0123425Y0044071D01*
X0137630Y0045740D02*
X0137630Y0045740D01*
X0137630Y0045740D01*
X0139221Y0045740D02*
X0139221Y0045740D01*
X0153376Y0047853D02*
X0153425Y0036689D01*
X0158710Y0044591D02*
X0174465Y0044591D01*
X0186362Y0044591D02*
X0187468Y0044591D01*
X0190662Y0044591D02*
X0192212Y0044591D01*
X0192212Y0046190D02*
X0190662Y0046190D01*
X0190662Y0047788D02*
X0192212Y0047788D01*
X0169125Y0062175D02*
X0154017Y0062175D01*
X0155615Y0063773D02*
X0169125Y0063773D01*
X0169831Y0065372D02*
X0157214Y0065372D01*
X0158812Y0066970D02*
X0170525Y0066970D01*
X0170525Y0067240D02*
X0176225Y0067240D01*
X0176225Y0067240D01*
X0170525Y0067240D01*
X0176225Y0067240D02*
X0163425Y0067240D01*
X0160925Y0069740D01*
X0110925Y0034228D02*
X0110925Y0022240D01*
X0114925Y0022212D02*
X0121682Y0022212D01*
X0121682Y0023811D02*
X0114925Y0023811D01*
X0114925Y0025409D02*
X0121682Y0025409D01*
X0121682Y0027008D02*
X0114925Y0027008D01*
X0116521Y0028606D02*
X0121682Y0028606D01*
X0122035Y0020614D02*
X0114581Y0020614D01*
X0263350Y0049387D02*
X0263414Y0049387D01*
X0216275Y0103023D02*
X0216233Y0103118D01*
X0216195Y0103215D01*
X0216160Y0103313D01*
X0216129Y0103412D01*
X0216102Y0103512D01*
X0216079Y0103614D01*
X0216059Y0103716D01*
X0216043Y0103818D01*
X0216031Y0103922D01*
X0216024Y0104025D01*
X0216020Y0104129D01*
X0216019Y0104233D01*
X0216023Y0104337D01*
X0216031Y0104441D01*
X0216043Y0104544D01*
X0216058Y0104647D01*
X0216078Y0104749D01*
X0216101Y0104850D01*
X0216128Y0104951D01*
X0216159Y0105050D01*
X0216194Y0105148D01*
X0216193Y0105147D02*
X0215553Y0105147D01*
D23*
X0215925Y0087791D02*
X0242874Y0087791D01*
X0248425Y0082240D01*
X0245925Y0074740D02*
X0248425Y0072240D01*
X0245925Y0074740D02*
X0216437Y0074740D01*
X0216437Y0064740D02*
X0245925Y0064740D01*
X0248425Y0062240D01*
X0245925Y0054740D02*
X0248425Y0052240D01*
X0245925Y0054740D02*
X0216437Y0054740D01*
X0203425Y0054740D02*
X0195925Y0062240D01*
X0195625Y0062240D01*
X0130925Y0090252D02*
X0122402Y0090252D01*
X0120925Y0091728D01*
X0119449Y0090252D01*
X0110925Y0090252D01*
X0038425Y0064740D02*
X0018425Y0064740D01*
X0013425Y0059740D01*
X0023425Y0059740D01*
X0038426Y0064740D02*
X0038787Y0064843D01*
X0039151Y0064936D01*
X0039517Y0065021D01*
X0039885Y0065097D01*
X0040255Y0065163D01*
X0040626Y0065221D01*
X0040998Y0065269D01*
X0041372Y0065309D01*
X0041746Y0065339D01*
X0042121Y0065361D01*
X0042497Y0065373D01*
X0042873Y0065376D01*
X0043248Y0065370D01*
X0043624Y0065354D01*
X0043998Y0065330D01*
X0044373Y0065296D01*
X0044746Y0065254D01*
X0045118Y0065202D01*
X0045489Y0065141D01*
X0045858Y0065072D01*
X0046225Y0064993D01*
X0046590Y0064905D01*
X0046953Y0064809D01*
X0047314Y0064703D01*
X0047672Y0064589D01*
X0048027Y0064466D01*
X0048379Y0064335D01*
X0048728Y0064195D01*
X0049073Y0064047D01*
X0049414Y0063890D01*
X0049752Y0063725D01*
X0050085Y0063552D01*
X0050414Y0063371D01*
X0050739Y0063181D01*
X0051058Y0062984D01*
X0051373Y0062779D01*
X0051683Y0062567D01*
X0051988Y0062347D01*
X0052287Y0062120D01*
X0052581Y0061886D01*
X0052868Y0061644D01*
X0053150Y0061396D01*
X0053426Y0061140D01*
X0127165Y0035409D02*
X0127165Y0026512D01*
X0128425Y0025252D01*
D24*
X0073425Y0033212D03*
X0063425Y0069740D03*
X0088425Y0077240D03*
X0163386Y0063736D03*
M02*
