G75*
%MOIN*%
%OFA0B0*%
%FSLAX25Y25*%
%IPPOS*%
%LPD*%
%AMOC8*
5,1,8,0,0,1.08239X$1,22.5*
%
%ADD10C,0.00000*%
%ADD11C,0.12211*%
%ADD12C,0.07800*%
%ADD13OC8,0.07800*%
D10*
X0001000Y0001000D02*
X0001000Y0139626D01*
X0266614Y0139626D01*
X0266614Y0001000D01*
X0001000Y0001000D01*
X0007519Y0014740D02*
X0007521Y0014893D01*
X0007527Y0015047D01*
X0007537Y0015200D01*
X0007551Y0015352D01*
X0007569Y0015505D01*
X0007591Y0015656D01*
X0007616Y0015807D01*
X0007646Y0015958D01*
X0007680Y0016108D01*
X0007717Y0016256D01*
X0007758Y0016404D01*
X0007803Y0016550D01*
X0007852Y0016696D01*
X0007905Y0016840D01*
X0007961Y0016982D01*
X0008021Y0017123D01*
X0008085Y0017263D01*
X0008152Y0017401D01*
X0008223Y0017537D01*
X0008298Y0017671D01*
X0008375Y0017803D01*
X0008457Y0017933D01*
X0008541Y0018061D01*
X0008629Y0018187D01*
X0008720Y0018310D01*
X0008814Y0018431D01*
X0008912Y0018549D01*
X0009012Y0018665D01*
X0009116Y0018778D01*
X0009222Y0018889D01*
X0009331Y0018997D01*
X0009443Y0019102D01*
X0009557Y0019203D01*
X0009675Y0019302D01*
X0009794Y0019398D01*
X0009916Y0019491D01*
X0010041Y0019580D01*
X0010168Y0019667D01*
X0010297Y0019749D01*
X0010428Y0019829D01*
X0010561Y0019905D01*
X0010696Y0019978D01*
X0010833Y0020047D01*
X0010972Y0020112D01*
X0011112Y0020174D01*
X0011254Y0020232D01*
X0011397Y0020287D01*
X0011542Y0020338D01*
X0011688Y0020385D01*
X0011835Y0020428D01*
X0011983Y0020467D01*
X0012132Y0020503D01*
X0012282Y0020534D01*
X0012433Y0020562D01*
X0012584Y0020586D01*
X0012737Y0020606D01*
X0012889Y0020622D01*
X0013042Y0020634D01*
X0013195Y0020642D01*
X0013348Y0020646D01*
X0013502Y0020646D01*
X0013655Y0020642D01*
X0013808Y0020634D01*
X0013961Y0020622D01*
X0014113Y0020606D01*
X0014266Y0020586D01*
X0014417Y0020562D01*
X0014568Y0020534D01*
X0014718Y0020503D01*
X0014867Y0020467D01*
X0015015Y0020428D01*
X0015162Y0020385D01*
X0015308Y0020338D01*
X0015453Y0020287D01*
X0015596Y0020232D01*
X0015738Y0020174D01*
X0015878Y0020112D01*
X0016017Y0020047D01*
X0016154Y0019978D01*
X0016289Y0019905D01*
X0016422Y0019829D01*
X0016553Y0019749D01*
X0016682Y0019667D01*
X0016809Y0019580D01*
X0016934Y0019491D01*
X0017056Y0019398D01*
X0017175Y0019302D01*
X0017293Y0019203D01*
X0017407Y0019102D01*
X0017519Y0018997D01*
X0017628Y0018889D01*
X0017734Y0018778D01*
X0017838Y0018665D01*
X0017938Y0018549D01*
X0018036Y0018431D01*
X0018130Y0018310D01*
X0018221Y0018187D01*
X0018309Y0018061D01*
X0018393Y0017933D01*
X0018475Y0017803D01*
X0018552Y0017671D01*
X0018627Y0017537D01*
X0018698Y0017401D01*
X0018765Y0017263D01*
X0018829Y0017123D01*
X0018889Y0016982D01*
X0018945Y0016840D01*
X0018998Y0016696D01*
X0019047Y0016550D01*
X0019092Y0016404D01*
X0019133Y0016256D01*
X0019170Y0016108D01*
X0019204Y0015958D01*
X0019234Y0015807D01*
X0019259Y0015656D01*
X0019281Y0015505D01*
X0019299Y0015352D01*
X0019313Y0015200D01*
X0019323Y0015047D01*
X0019329Y0014893D01*
X0019331Y0014740D01*
X0019329Y0014587D01*
X0019323Y0014433D01*
X0019313Y0014280D01*
X0019299Y0014128D01*
X0019281Y0013975D01*
X0019259Y0013824D01*
X0019234Y0013673D01*
X0019204Y0013522D01*
X0019170Y0013372D01*
X0019133Y0013224D01*
X0019092Y0013076D01*
X0019047Y0012930D01*
X0018998Y0012784D01*
X0018945Y0012640D01*
X0018889Y0012498D01*
X0018829Y0012357D01*
X0018765Y0012217D01*
X0018698Y0012079D01*
X0018627Y0011943D01*
X0018552Y0011809D01*
X0018475Y0011677D01*
X0018393Y0011547D01*
X0018309Y0011419D01*
X0018221Y0011293D01*
X0018130Y0011170D01*
X0018036Y0011049D01*
X0017938Y0010931D01*
X0017838Y0010815D01*
X0017734Y0010702D01*
X0017628Y0010591D01*
X0017519Y0010483D01*
X0017407Y0010378D01*
X0017293Y0010277D01*
X0017175Y0010178D01*
X0017056Y0010082D01*
X0016934Y0009989D01*
X0016809Y0009900D01*
X0016682Y0009813D01*
X0016553Y0009731D01*
X0016422Y0009651D01*
X0016289Y0009575D01*
X0016154Y0009502D01*
X0016017Y0009433D01*
X0015878Y0009368D01*
X0015738Y0009306D01*
X0015596Y0009248D01*
X0015453Y0009193D01*
X0015308Y0009142D01*
X0015162Y0009095D01*
X0015015Y0009052D01*
X0014867Y0009013D01*
X0014718Y0008977D01*
X0014568Y0008946D01*
X0014417Y0008918D01*
X0014266Y0008894D01*
X0014113Y0008874D01*
X0013961Y0008858D01*
X0013808Y0008846D01*
X0013655Y0008838D01*
X0013502Y0008834D01*
X0013348Y0008834D01*
X0013195Y0008838D01*
X0013042Y0008846D01*
X0012889Y0008858D01*
X0012737Y0008874D01*
X0012584Y0008894D01*
X0012433Y0008918D01*
X0012282Y0008946D01*
X0012132Y0008977D01*
X0011983Y0009013D01*
X0011835Y0009052D01*
X0011688Y0009095D01*
X0011542Y0009142D01*
X0011397Y0009193D01*
X0011254Y0009248D01*
X0011112Y0009306D01*
X0010972Y0009368D01*
X0010833Y0009433D01*
X0010696Y0009502D01*
X0010561Y0009575D01*
X0010428Y0009651D01*
X0010297Y0009731D01*
X0010168Y0009813D01*
X0010041Y0009900D01*
X0009916Y0009989D01*
X0009794Y0010082D01*
X0009675Y0010178D01*
X0009557Y0010277D01*
X0009443Y0010378D01*
X0009331Y0010483D01*
X0009222Y0010591D01*
X0009116Y0010702D01*
X0009012Y0010815D01*
X0008912Y0010931D01*
X0008814Y0011049D01*
X0008720Y0011170D01*
X0008629Y0011293D01*
X0008541Y0011419D01*
X0008457Y0011547D01*
X0008375Y0011677D01*
X0008298Y0011809D01*
X0008223Y0011943D01*
X0008152Y0012079D01*
X0008085Y0012217D01*
X0008021Y0012357D01*
X0007961Y0012498D01*
X0007905Y0012640D01*
X0007852Y0012784D01*
X0007803Y0012930D01*
X0007758Y0013076D01*
X0007717Y0013224D01*
X0007680Y0013372D01*
X0007646Y0013522D01*
X0007616Y0013673D01*
X0007591Y0013824D01*
X0007569Y0013975D01*
X0007551Y0014128D01*
X0007537Y0014280D01*
X0007527Y0014433D01*
X0007521Y0014587D01*
X0007519Y0014740D01*
X0007519Y0127240D02*
X0007521Y0127393D01*
X0007527Y0127547D01*
X0007537Y0127700D01*
X0007551Y0127852D01*
X0007569Y0128005D01*
X0007591Y0128156D01*
X0007616Y0128307D01*
X0007646Y0128458D01*
X0007680Y0128608D01*
X0007717Y0128756D01*
X0007758Y0128904D01*
X0007803Y0129050D01*
X0007852Y0129196D01*
X0007905Y0129340D01*
X0007961Y0129482D01*
X0008021Y0129623D01*
X0008085Y0129763D01*
X0008152Y0129901D01*
X0008223Y0130037D01*
X0008298Y0130171D01*
X0008375Y0130303D01*
X0008457Y0130433D01*
X0008541Y0130561D01*
X0008629Y0130687D01*
X0008720Y0130810D01*
X0008814Y0130931D01*
X0008912Y0131049D01*
X0009012Y0131165D01*
X0009116Y0131278D01*
X0009222Y0131389D01*
X0009331Y0131497D01*
X0009443Y0131602D01*
X0009557Y0131703D01*
X0009675Y0131802D01*
X0009794Y0131898D01*
X0009916Y0131991D01*
X0010041Y0132080D01*
X0010168Y0132167D01*
X0010297Y0132249D01*
X0010428Y0132329D01*
X0010561Y0132405D01*
X0010696Y0132478D01*
X0010833Y0132547D01*
X0010972Y0132612D01*
X0011112Y0132674D01*
X0011254Y0132732D01*
X0011397Y0132787D01*
X0011542Y0132838D01*
X0011688Y0132885D01*
X0011835Y0132928D01*
X0011983Y0132967D01*
X0012132Y0133003D01*
X0012282Y0133034D01*
X0012433Y0133062D01*
X0012584Y0133086D01*
X0012737Y0133106D01*
X0012889Y0133122D01*
X0013042Y0133134D01*
X0013195Y0133142D01*
X0013348Y0133146D01*
X0013502Y0133146D01*
X0013655Y0133142D01*
X0013808Y0133134D01*
X0013961Y0133122D01*
X0014113Y0133106D01*
X0014266Y0133086D01*
X0014417Y0133062D01*
X0014568Y0133034D01*
X0014718Y0133003D01*
X0014867Y0132967D01*
X0015015Y0132928D01*
X0015162Y0132885D01*
X0015308Y0132838D01*
X0015453Y0132787D01*
X0015596Y0132732D01*
X0015738Y0132674D01*
X0015878Y0132612D01*
X0016017Y0132547D01*
X0016154Y0132478D01*
X0016289Y0132405D01*
X0016422Y0132329D01*
X0016553Y0132249D01*
X0016682Y0132167D01*
X0016809Y0132080D01*
X0016934Y0131991D01*
X0017056Y0131898D01*
X0017175Y0131802D01*
X0017293Y0131703D01*
X0017407Y0131602D01*
X0017519Y0131497D01*
X0017628Y0131389D01*
X0017734Y0131278D01*
X0017838Y0131165D01*
X0017938Y0131049D01*
X0018036Y0130931D01*
X0018130Y0130810D01*
X0018221Y0130687D01*
X0018309Y0130561D01*
X0018393Y0130433D01*
X0018475Y0130303D01*
X0018552Y0130171D01*
X0018627Y0130037D01*
X0018698Y0129901D01*
X0018765Y0129763D01*
X0018829Y0129623D01*
X0018889Y0129482D01*
X0018945Y0129340D01*
X0018998Y0129196D01*
X0019047Y0129050D01*
X0019092Y0128904D01*
X0019133Y0128756D01*
X0019170Y0128608D01*
X0019204Y0128458D01*
X0019234Y0128307D01*
X0019259Y0128156D01*
X0019281Y0128005D01*
X0019299Y0127852D01*
X0019313Y0127700D01*
X0019323Y0127547D01*
X0019329Y0127393D01*
X0019331Y0127240D01*
X0019329Y0127087D01*
X0019323Y0126933D01*
X0019313Y0126780D01*
X0019299Y0126628D01*
X0019281Y0126475D01*
X0019259Y0126324D01*
X0019234Y0126173D01*
X0019204Y0126022D01*
X0019170Y0125872D01*
X0019133Y0125724D01*
X0019092Y0125576D01*
X0019047Y0125430D01*
X0018998Y0125284D01*
X0018945Y0125140D01*
X0018889Y0124998D01*
X0018829Y0124857D01*
X0018765Y0124717D01*
X0018698Y0124579D01*
X0018627Y0124443D01*
X0018552Y0124309D01*
X0018475Y0124177D01*
X0018393Y0124047D01*
X0018309Y0123919D01*
X0018221Y0123793D01*
X0018130Y0123670D01*
X0018036Y0123549D01*
X0017938Y0123431D01*
X0017838Y0123315D01*
X0017734Y0123202D01*
X0017628Y0123091D01*
X0017519Y0122983D01*
X0017407Y0122878D01*
X0017293Y0122777D01*
X0017175Y0122678D01*
X0017056Y0122582D01*
X0016934Y0122489D01*
X0016809Y0122400D01*
X0016682Y0122313D01*
X0016553Y0122231D01*
X0016422Y0122151D01*
X0016289Y0122075D01*
X0016154Y0122002D01*
X0016017Y0121933D01*
X0015878Y0121868D01*
X0015738Y0121806D01*
X0015596Y0121748D01*
X0015453Y0121693D01*
X0015308Y0121642D01*
X0015162Y0121595D01*
X0015015Y0121552D01*
X0014867Y0121513D01*
X0014718Y0121477D01*
X0014568Y0121446D01*
X0014417Y0121418D01*
X0014266Y0121394D01*
X0014113Y0121374D01*
X0013961Y0121358D01*
X0013808Y0121346D01*
X0013655Y0121338D01*
X0013502Y0121334D01*
X0013348Y0121334D01*
X0013195Y0121338D01*
X0013042Y0121346D01*
X0012889Y0121358D01*
X0012737Y0121374D01*
X0012584Y0121394D01*
X0012433Y0121418D01*
X0012282Y0121446D01*
X0012132Y0121477D01*
X0011983Y0121513D01*
X0011835Y0121552D01*
X0011688Y0121595D01*
X0011542Y0121642D01*
X0011397Y0121693D01*
X0011254Y0121748D01*
X0011112Y0121806D01*
X0010972Y0121868D01*
X0010833Y0121933D01*
X0010696Y0122002D01*
X0010561Y0122075D01*
X0010428Y0122151D01*
X0010297Y0122231D01*
X0010168Y0122313D01*
X0010041Y0122400D01*
X0009916Y0122489D01*
X0009794Y0122582D01*
X0009675Y0122678D01*
X0009557Y0122777D01*
X0009443Y0122878D01*
X0009331Y0122983D01*
X0009222Y0123091D01*
X0009116Y0123202D01*
X0009012Y0123315D01*
X0008912Y0123431D01*
X0008814Y0123549D01*
X0008720Y0123670D01*
X0008629Y0123793D01*
X0008541Y0123919D01*
X0008457Y0124047D01*
X0008375Y0124177D01*
X0008298Y0124309D01*
X0008223Y0124443D01*
X0008152Y0124579D01*
X0008085Y0124717D01*
X0008021Y0124857D01*
X0007961Y0124998D01*
X0007905Y0125140D01*
X0007852Y0125284D01*
X0007803Y0125430D01*
X0007758Y0125576D01*
X0007717Y0125724D01*
X0007680Y0125872D01*
X0007646Y0126022D01*
X0007616Y0126173D01*
X0007591Y0126324D01*
X0007569Y0126475D01*
X0007551Y0126628D01*
X0007537Y0126780D01*
X0007527Y0126933D01*
X0007521Y0127087D01*
X0007519Y0127240D01*
X0247519Y0127240D02*
X0247521Y0127393D01*
X0247527Y0127547D01*
X0247537Y0127700D01*
X0247551Y0127852D01*
X0247569Y0128005D01*
X0247591Y0128156D01*
X0247616Y0128307D01*
X0247646Y0128458D01*
X0247680Y0128608D01*
X0247717Y0128756D01*
X0247758Y0128904D01*
X0247803Y0129050D01*
X0247852Y0129196D01*
X0247905Y0129340D01*
X0247961Y0129482D01*
X0248021Y0129623D01*
X0248085Y0129763D01*
X0248152Y0129901D01*
X0248223Y0130037D01*
X0248298Y0130171D01*
X0248375Y0130303D01*
X0248457Y0130433D01*
X0248541Y0130561D01*
X0248629Y0130687D01*
X0248720Y0130810D01*
X0248814Y0130931D01*
X0248912Y0131049D01*
X0249012Y0131165D01*
X0249116Y0131278D01*
X0249222Y0131389D01*
X0249331Y0131497D01*
X0249443Y0131602D01*
X0249557Y0131703D01*
X0249675Y0131802D01*
X0249794Y0131898D01*
X0249916Y0131991D01*
X0250041Y0132080D01*
X0250168Y0132167D01*
X0250297Y0132249D01*
X0250428Y0132329D01*
X0250561Y0132405D01*
X0250696Y0132478D01*
X0250833Y0132547D01*
X0250972Y0132612D01*
X0251112Y0132674D01*
X0251254Y0132732D01*
X0251397Y0132787D01*
X0251542Y0132838D01*
X0251688Y0132885D01*
X0251835Y0132928D01*
X0251983Y0132967D01*
X0252132Y0133003D01*
X0252282Y0133034D01*
X0252433Y0133062D01*
X0252584Y0133086D01*
X0252737Y0133106D01*
X0252889Y0133122D01*
X0253042Y0133134D01*
X0253195Y0133142D01*
X0253348Y0133146D01*
X0253502Y0133146D01*
X0253655Y0133142D01*
X0253808Y0133134D01*
X0253961Y0133122D01*
X0254113Y0133106D01*
X0254266Y0133086D01*
X0254417Y0133062D01*
X0254568Y0133034D01*
X0254718Y0133003D01*
X0254867Y0132967D01*
X0255015Y0132928D01*
X0255162Y0132885D01*
X0255308Y0132838D01*
X0255453Y0132787D01*
X0255596Y0132732D01*
X0255738Y0132674D01*
X0255878Y0132612D01*
X0256017Y0132547D01*
X0256154Y0132478D01*
X0256289Y0132405D01*
X0256422Y0132329D01*
X0256553Y0132249D01*
X0256682Y0132167D01*
X0256809Y0132080D01*
X0256934Y0131991D01*
X0257056Y0131898D01*
X0257175Y0131802D01*
X0257293Y0131703D01*
X0257407Y0131602D01*
X0257519Y0131497D01*
X0257628Y0131389D01*
X0257734Y0131278D01*
X0257838Y0131165D01*
X0257938Y0131049D01*
X0258036Y0130931D01*
X0258130Y0130810D01*
X0258221Y0130687D01*
X0258309Y0130561D01*
X0258393Y0130433D01*
X0258475Y0130303D01*
X0258552Y0130171D01*
X0258627Y0130037D01*
X0258698Y0129901D01*
X0258765Y0129763D01*
X0258829Y0129623D01*
X0258889Y0129482D01*
X0258945Y0129340D01*
X0258998Y0129196D01*
X0259047Y0129050D01*
X0259092Y0128904D01*
X0259133Y0128756D01*
X0259170Y0128608D01*
X0259204Y0128458D01*
X0259234Y0128307D01*
X0259259Y0128156D01*
X0259281Y0128005D01*
X0259299Y0127852D01*
X0259313Y0127700D01*
X0259323Y0127547D01*
X0259329Y0127393D01*
X0259331Y0127240D01*
X0259329Y0127087D01*
X0259323Y0126933D01*
X0259313Y0126780D01*
X0259299Y0126628D01*
X0259281Y0126475D01*
X0259259Y0126324D01*
X0259234Y0126173D01*
X0259204Y0126022D01*
X0259170Y0125872D01*
X0259133Y0125724D01*
X0259092Y0125576D01*
X0259047Y0125430D01*
X0258998Y0125284D01*
X0258945Y0125140D01*
X0258889Y0124998D01*
X0258829Y0124857D01*
X0258765Y0124717D01*
X0258698Y0124579D01*
X0258627Y0124443D01*
X0258552Y0124309D01*
X0258475Y0124177D01*
X0258393Y0124047D01*
X0258309Y0123919D01*
X0258221Y0123793D01*
X0258130Y0123670D01*
X0258036Y0123549D01*
X0257938Y0123431D01*
X0257838Y0123315D01*
X0257734Y0123202D01*
X0257628Y0123091D01*
X0257519Y0122983D01*
X0257407Y0122878D01*
X0257293Y0122777D01*
X0257175Y0122678D01*
X0257056Y0122582D01*
X0256934Y0122489D01*
X0256809Y0122400D01*
X0256682Y0122313D01*
X0256553Y0122231D01*
X0256422Y0122151D01*
X0256289Y0122075D01*
X0256154Y0122002D01*
X0256017Y0121933D01*
X0255878Y0121868D01*
X0255738Y0121806D01*
X0255596Y0121748D01*
X0255453Y0121693D01*
X0255308Y0121642D01*
X0255162Y0121595D01*
X0255015Y0121552D01*
X0254867Y0121513D01*
X0254718Y0121477D01*
X0254568Y0121446D01*
X0254417Y0121418D01*
X0254266Y0121394D01*
X0254113Y0121374D01*
X0253961Y0121358D01*
X0253808Y0121346D01*
X0253655Y0121338D01*
X0253502Y0121334D01*
X0253348Y0121334D01*
X0253195Y0121338D01*
X0253042Y0121346D01*
X0252889Y0121358D01*
X0252737Y0121374D01*
X0252584Y0121394D01*
X0252433Y0121418D01*
X0252282Y0121446D01*
X0252132Y0121477D01*
X0251983Y0121513D01*
X0251835Y0121552D01*
X0251688Y0121595D01*
X0251542Y0121642D01*
X0251397Y0121693D01*
X0251254Y0121748D01*
X0251112Y0121806D01*
X0250972Y0121868D01*
X0250833Y0121933D01*
X0250696Y0122002D01*
X0250561Y0122075D01*
X0250428Y0122151D01*
X0250297Y0122231D01*
X0250168Y0122313D01*
X0250041Y0122400D01*
X0249916Y0122489D01*
X0249794Y0122582D01*
X0249675Y0122678D01*
X0249557Y0122777D01*
X0249443Y0122878D01*
X0249331Y0122983D01*
X0249222Y0123091D01*
X0249116Y0123202D01*
X0249012Y0123315D01*
X0248912Y0123431D01*
X0248814Y0123549D01*
X0248720Y0123670D01*
X0248629Y0123793D01*
X0248541Y0123919D01*
X0248457Y0124047D01*
X0248375Y0124177D01*
X0248298Y0124309D01*
X0248223Y0124443D01*
X0248152Y0124579D01*
X0248085Y0124717D01*
X0248021Y0124857D01*
X0247961Y0124998D01*
X0247905Y0125140D01*
X0247852Y0125284D01*
X0247803Y0125430D01*
X0247758Y0125576D01*
X0247717Y0125724D01*
X0247680Y0125872D01*
X0247646Y0126022D01*
X0247616Y0126173D01*
X0247591Y0126324D01*
X0247569Y0126475D01*
X0247551Y0126628D01*
X0247537Y0126780D01*
X0247527Y0126933D01*
X0247521Y0127087D01*
X0247519Y0127240D01*
X0247519Y0014740D02*
X0247521Y0014893D01*
X0247527Y0015047D01*
X0247537Y0015200D01*
X0247551Y0015352D01*
X0247569Y0015505D01*
X0247591Y0015656D01*
X0247616Y0015807D01*
X0247646Y0015958D01*
X0247680Y0016108D01*
X0247717Y0016256D01*
X0247758Y0016404D01*
X0247803Y0016550D01*
X0247852Y0016696D01*
X0247905Y0016840D01*
X0247961Y0016982D01*
X0248021Y0017123D01*
X0248085Y0017263D01*
X0248152Y0017401D01*
X0248223Y0017537D01*
X0248298Y0017671D01*
X0248375Y0017803D01*
X0248457Y0017933D01*
X0248541Y0018061D01*
X0248629Y0018187D01*
X0248720Y0018310D01*
X0248814Y0018431D01*
X0248912Y0018549D01*
X0249012Y0018665D01*
X0249116Y0018778D01*
X0249222Y0018889D01*
X0249331Y0018997D01*
X0249443Y0019102D01*
X0249557Y0019203D01*
X0249675Y0019302D01*
X0249794Y0019398D01*
X0249916Y0019491D01*
X0250041Y0019580D01*
X0250168Y0019667D01*
X0250297Y0019749D01*
X0250428Y0019829D01*
X0250561Y0019905D01*
X0250696Y0019978D01*
X0250833Y0020047D01*
X0250972Y0020112D01*
X0251112Y0020174D01*
X0251254Y0020232D01*
X0251397Y0020287D01*
X0251542Y0020338D01*
X0251688Y0020385D01*
X0251835Y0020428D01*
X0251983Y0020467D01*
X0252132Y0020503D01*
X0252282Y0020534D01*
X0252433Y0020562D01*
X0252584Y0020586D01*
X0252737Y0020606D01*
X0252889Y0020622D01*
X0253042Y0020634D01*
X0253195Y0020642D01*
X0253348Y0020646D01*
X0253502Y0020646D01*
X0253655Y0020642D01*
X0253808Y0020634D01*
X0253961Y0020622D01*
X0254113Y0020606D01*
X0254266Y0020586D01*
X0254417Y0020562D01*
X0254568Y0020534D01*
X0254718Y0020503D01*
X0254867Y0020467D01*
X0255015Y0020428D01*
X0255162Y0020385D01*
X0255308Y0020338D01*
X0255453Y0020287D01*
X0255596Y0020232D01*
X0255738Y0020174D01*
X0255878Y0020112D01*
X0256017Y0020047D01*
X0256154Y0019978D01*
X0256289Y0019905D01*
X0256422Y0019829D01*
X0256553Y0019749D01*
X0256682Y0019667D01*
X0256809Y0019580D01*
X0256934Y0019491D01*
X0257056Y0019398D01*
X0257175Y0019302D01*
X0257293Y0019203D01*
X0257407Y0019102D01*
X0257519Y0018997D01*
X0257628Y0018889D01*
X0257734Y0018778D01*
X0257838Y0018665D01*
X0257938Y0018549D01*
X0258036Y0018431D01*
X0258130Y0018310D01*
X0258221Y0018187D01*
X0258309Y0018061D01*
X0258393Y0017933D01*
X0258475Y0017803D01*
X0258552Y0017671D01*
X0258627Y0017537D01*
X0258698Y0017401D01*
X0258765Y0017263D01*
X0258829Y0017123D01*
X0258889Y0016982D01*
X0258945Y0016840D01*
X0258998Y0016696D01*
X0259047Y0016550D01*
X0259092Y0016404D01*
X0259133Y0016256D01*
X0259170Y0016108D01*
X0259204Y0015958D01*
X0259234Y0015807D01*
X0259259Y0015656D01*
X0259281Y0015505D01*
X0259299Y0015352D01*
X0259313Y0015200D01*
X0259323Y0015047D01*
X0259329Y0014893D01*
X0259331Y0014740D01*
X0259329Y0014587D01*
X0259323Y0014433D01*
X0259313Y0014280D01*
X0259299Y0014128D01*
X0259281Y0013975D01*
X0259259Y0013824D01*
X0259234Y0013673D01*
X0259204Y0013522D01*
X0259170Y0013372D01*
X0259133Y0013224D01*
X0259092Y0013076D01*
X0259047Y0012930D01*
X0258998Y0012784D01*
X0258945Y0012640D01*
X0258889Y0012498D01*
X0258829Y0012357D01*
X0258765Y0012217D01*
X0258698Y0012079D01*
X0258627Y0011943D01*
X0258552Y0011809D01*
X0258475Y0011677D01*
X0258393Y0011547D01*
X0258309Y0011419D01*
X0258221Y0011293D01*
X0258130Y0011170D01*
X0258036Y0011049D01*
X0257938Y0010931D01*
X0257838Y0010815D01*
X0257734Y0010702D01*
X0257628Y0010591D01*
X0257519Y0010483D01*
X0257407Y0010378D01*
X0257293Y0010277D01*
X0257175Y0010178D01*
X0257056Y0010082D01*
X0256934Y0009989D01*
X0256809Y0009900D01*
X0256682Y0009813D01*
X0256553Y0009731D01*
X0256422Y0009651D01*
X0256289Y0009575D01*
X0256154Y0009502D01*
X0256017Y0009433D01*
X0255878Y0009368D01*
X0255738Y0009306D01*
X0255596Y0009248D01*
X0255453Y0009193D01*
X0255308Y0009142D01*
X0255162Y0009095D01*
X0255015Y0009052D01*
X0254867Y0009013D01*
X0254718Y0008977D01*
X0254568Y0008946D01*
X0254417Y0008918D01*
X0254266Y0008894D01*
X0254113Y0008874D01*
X0253961Y0008858D01*
X0253808Y0008846D01*
X0253655Y0008838D01*
X0253502Y0008834D01*
X0253348Y0008834D01*
X0253195Y0008838D01*
X0253042Y0008846D01*
X0252889Y0008858D01*
X0252737Y0008874D01*
X0252584Y0008894D01*
X0252433Y0008918D01*
X0252282Y0008946D01*
X0252132Y0008977D01*
X0251983Y0009013D01*
X0251835Y0009052D01*
X0251688Y0009095D01*
X0251542Y0009142D01*
X0251397Y0009193D01*
X0251254Y0009248D01*
X0251112Y0009306D01*
X0250972Y0009368D01*
X0250833Y0009433D01*
X0250696Y0009502D01*
X0250561Y0009575D01*
X0250428Y0009651D01*
X0250297Y0009731D01*
X0250168Y0009813D01*
X0250041Y0009900D01*
X0249916Y0009989D01*
X0249794Y0010082D01*
X0249675Y0010178D01*
X0249557Y0010277D01*
X0249443Y0010378D01*
X0249331Y0010483D01*
X0249222Y0010591D01*
X0249116Y0010702D01*
X0249012Y0010815D01*
X0248912Y0010931D01*
X0248814Y0011049D01*
X0248720Y0011170D01*
X0248629Y0011293D01*
X0248541Y0011419D01*
X0248457Y0011547D01*
X0248375Y0011677D01*
X0248298Y0011809D01*
X0248223Y0011943D01*
X0248152Y0012079D01*
X0248085Y0012217D01*
X0248021Y0012357D01*
X0247961Y0012498D01*
X0247905Y0012640D01*
X0247852Y0012784D01*
X0247803Y0012930D01*
X0247758Y0013076D01*
X0247717Y0013224D01*
X0247680Y0013372D01*
X0247646Y0013522D01*
X0247616Y0013673D01*
X0247591Y0013824D01*
X0247569Y0013975D01*
X0247551Y0014128D01*
X0247537Y0014280D01*
X0247527Y0014433D01*
X0247521Y0014587D01*
X0247519Y0014740D01*
D11*
X0253425Y0014740D03*
X0253425Y0127240D03*
X0013425Y0127240D03*
X0013425Y0014740D03*
D12*
X0078425Y0106040D02*
X0078425Y0113440D01*
X0088425Y0113440D02*
X0088425Y0106040D01*
X0098425Y0106040D02*
X0098425Y0113440D01*
D13*
X0033425Y0079740D03*
X0023425Y0079740D03*
X0023425Y0069740D03*
X0033425Y0069740D03*
X0033425Y0059740D03*
X0023425Y0059740D03*
X0023425Y0049740D03*
X0033425Y0049740D03*
X0248425Y0052240D03*
X0258425Y0052240D03*
X0258425Y0062240D03*
X0248425Y0062240D03*
X0248425Y0072240D03*
X0258425Y0072240D03*
X0258425Y0082240D03*
X0248425Y0082240D03*
M02*
